<svg width="45" height="46" viewBox="0 0 45 46" fill="none" xmlns="http://www.w3.org/2000/svg">
<path d="M0 41.1367C0.0446122 40.9406 0.0939208 40.7456 0.131489 40.5495C0.663314 37.7388 2.15195 35.6059 4.6291 34.1694C4.70307 34.1271 4.76999 34.0719 4.87447 33.9979C3.84957 32.5815 3.49854 31.0346 3.95053 29.3457C4.25962 28.1881 4.9662 27.1765 5.94634 26.488C6.91264 25.798 8.08395 25.4555 9.26959 25.5163C10.4552 25.5771 11.5854 26.0376 12.4762 26.8228C14.1045 28.2592 15.1306 31.1685 13.1289 34.012C13.2463 34.0896 13.3637 34.1706 13.4882 34.247C15.9677 35.7233 17.4528 37.9021 17.8813 40.7374C18.055 41.8861 17.9987 43.0747 17.974 44.2433C17.974 44.5017 17.657 44.7543 17.4868 45.0103H0V41.1367ZM16.5382 43.4858C16.4936 42.5779 16.5382 41.704 16.3938 40.8631C15.9524 38.3237 14.5718 36.4386 12.2566 35.2641C12.16 35.203 12.0481 35.1706 11.9338 35.1706C11.8195 35.1706 11.7075 35.203 11.6109 35.2641C9.87456 36.2366 8.12764 36.2342 6.39011 35.2641C6.29428 35.2016 6.18287 35.1673 6.06852 35.1651C5.95418 35.1628 5.84149 35.1926 5.74324 35.2512C4.22903 35.9876 3.00514 37.2104 2.267 38.7242C1.51564 40.2323 1.42877 41.8414 1.52621 43.4858H16.5382ZM8.99641 34.4619C11.0415 34.4619 12.7297 32.8176 12.7427 30.8209C12.7556 28.7067 11.0415 26.9637 8.98584 26.9919C7.99348 27.0061 7.04668 27.4109 6.35053 28.1186C5.65438 28.8262 5.26494 29.7798 5.26659 30.7727C5.25368 32.8046 6.92664 34.4619 8.99641 34.4631V34.4619Z" fill="white"/>
<path d="M27.5058 44.9997C27.1007 44.7542 26.9563 44.3866 26.9868 43.925C27.0702 42.6577 27.0209 41.3669 27.2498 40.1266C27.7194 37.6084 29.1588 35.7068 31.3225 34.3479L31.8742 33.9955C30.8505 32.5755 30.4901 31.0287 30.9433 29.3409C31.247 28.1969 31.9404 27.195 32.9038 26.5079C33.8604 25.8015 35.0297 25.4438 36.2176 25.4942C37.4055 25.5446 38.5404 26.0002 39.4337 26.7851C41.5058 28.6045 41.75 31.0334 40.1381 33.9967C40.2402 34.0672 40.3435 34.1435 40.4515 34.2105C43.4945 36.0698 44.9808 38.7982 44.9914 42.35C44.9914 42.8773 44.9703 43.407 44.9973 43.932C45.0219 44.4019 44.8799 44.7542 44.4643 44.9891L27.5058 44.9997ZM43.4969 43.4857C43.4969 42.9995 43.5122 42.5344 43.4969 42.0704C43.3795 38.9838 41.993 36.6899 39.227 35.2723C39.1406 35.2322 39.0468 35.2106 38.9516 35.209C38.8563 35.2074 38.7618 35.2257 38.6741 35.2629C36.8837 36.2495 35.1086 36.2506 33.3206 35.2629C33.248 35.2273 33.1689 35.2069 33.0882 35.2029C33.0075 35.1988 32.9268 35.2112 32.851 35.2394C29.5638 36.8109 28.1714 39.9997 28.5506 43.4904L43.4969 43.4857ZM36.0114 34.4689C38.0777 34.4595 39.7483 32.7975 39.7342 30.7644C39.7315 29.7715 39.3381 28.8196 38.6392 28.1147C37.9403 27.4098 36.9921 27.0085 35.9997 26.9977C33.9264 26.9895 32.2311 28.7278 32.2523 30.8408C32.2711 32.8363 33.9663 34.4712 36.0114 34.463V34.4689Z" fill="white"/>
<path d="M26.6418 8.48472C27.0973 8.79715 27.5751 9.08256 28.006 9.42435C30.354 11.3036 31.494 13.7595 31.4905 16.7581C31.4905 17.3583 31.4975 17.9596 31.4905 18.5598C31.4811 19.2246 31.2146 19.4924 30.5513 19.4994C29.4242 19.5065 28.2972 19.4994 27.1701 19.4994H14.6083C13.7195 19.4994 13.4906 19.2775 13.5012 18.3801C13.5153 17.0365 13.4213 15.6904 13.7689 14.3632C14.3699 12.0643 15.6551 10.2633 17.6243 8.96041C17.8661 8.80067 18.1174 8.65386 18.3651 8.49999C16.3693 5.71049 17.3331 2.72602 19.1035 1.23085C20.0487 0.440131 21.2403 0.00475724 22.4724 3.8759e-05C23.7044 -0.00467972 24.8994 0.421554 25.8505 1.20501C27.5892 2.63323 28.667 5.61066 26.6418 8.48472ZM15.052 17.9737H29.9455C29.9632 17.9251 29.9758 17.8747 29.983 17.8234C29.983 17.4135 29.9983 17.0012 29.983 16.5937C29.8962 13.4812 28.4932 11.185 25.7155 9.75909C25.6292 9.72079 25.5358 9.70101 25.4414 9.70101C25.347 9.70101 25.2536 9.72079 25.1673 9.75909C23.3781 10.7422 21.603 10.7422 19.815 9.75909C19.7352 9.72275 19.6488 9.70317 19.5612 9.70155C19.4736 9.69994 19.3865 9.71632 19.3055 9.74969C16.0957 11.2954 14.6634 14.4114 15.052 17.9702V17.9737ZM22.4976 8.95454C24.5462 8.95454 26.2673 7.25969 26.2462 5.26182C26.2432 4.26933 25.8513 3.31758 25.1545 2.61108C24.4578 1.90457 23.5118 1.49967 22.5199 1.48337C20.4724 1.45871 18.7701 3.16294 18.7478 5.26182C18.7255 7.26204 20.4478 8.95454 22.4976 8.95454Z" fill="white"/>
<path d="M21.745 21.0121H23.2454V22.8197C23.2454 23.4633 23.2571 24.1117 23.2395 24.7518C23.2298 24.8736 23.2525 24.9957 23.3053 25.1059C23.358 25.2161 23.4391 25.3103 23.54 25.379C24.5896 26.2011 25.6227 27.0386 26.7099 27.9077L25.7789 29.0764L22.4917 26.4572L19.2126 29.0776L18.2734 27.9089C19.3453 27.0503 20.3867 26.2035 21.4433 25.3766C21.543 25.3064 21.6228 25.2115 21.6749 25.1011C21.727 24.9908 21.7495 24.8688 21.7403 24.7471C21.7274 23.6642 21.7403 22.5801 21.7403 21.496L21.745 21.0121Z" fill="#00FFB6"/>
<path d="M8.28516 37.5283H9.72918V38.9695H8.28516V37.5283Z" fill="#00FFB6"/>
<path d="M8.29297 40.5233H9.72173V41.9774H8.29297V40.5233Z" fill="#00FFB6"/>
<path d="M35.2671 37.5247H36.7076V38.974H35.2671V37.5247Z" fill="#00FFB6"/>
<path d="M35.2778 40.5153H36.7031V41.9717H35.2778V40.5153Z" fill="#00FFB6"/>
<path d="M21.7837 12.0082H23.2089V13.4622H21.7837V12.0082Z" fill="#00FFB6"/>
<path d="M21.7764 16.4715V15.0175H23.2192V16.4715H21.7764Z" fill="#00FFB6"/>
</svg>
