<?xml version="1.0" encoding="utf-8"?>
<!-- Generator: Adobe Illustrator 25.0.1, SVG Export Plug-In . SVG Version: 6.00 Build 0)  -->
<svg version="1.1" id="Layer_1" xmlns="http://www.w3.org/2000/svg" xmlns:xlink="http://www.w3.org/1999/xlink" x="0px" y="0px"
	 viewBox="0 0 665.7 610.5" style="enable-background:new 0 0 665.7 610.5;" xml:space="preserve">
<style type="text/css">
	.st0{opacity:0.2;clip-path:url(#SVGID_2_);fill:url(#SVGID_3_);}
	.st1{opacity:0.2;clip-path:url(#SVGID_2_);fill:url(#SVGID_4_);}
	.st2{opacity:0.2;clip-path:url(#SVGID_2_);fill:url(#SVGID_5_);}
	.st3{opacity:0.2;clip-path:url(#SVGID_2_);fill:url(#SVGID_6_);}
	.st4{opacity:0.2;clip-path:url(#SVGID_2_);fill:url(#SVGID_7_);}
	.st5{opacity:0.2;clip-path:url(#SVGID_2_);fill:url(#SVGID_8_);}
	.st6{opacity:0.2;clip-path:url(#SVGID_2_);fill:url(#SVGID_9_);}
	.st7{opacity:0.2;clip-path:url(#SVGID_2_);fill:url(#SVGID_10_);}
	.st8{fill:url(#SVGID_11_);}
	.st9{fill:#FFFFFF;}
	.st10{fill:url(#SVGID_12_);}
	.st11{fill:url(#SVGID_13_);}
	.st12{fill:url(#SVGID_14_);}
	.st13{fill:url(#SVGID_15_);}
	.st14{opacity:0.5;fill:#E0E8F3;}
	.st15{fill:url(#SVGID_16_);}
	.st16{fill:url(#SVGID_17_);}
	.st17{fill:#F8C4B7;}
	.st18{fill:url(#SVGID_18_);}
	.st19{fill:url(#SVGID_19_);}
	.st20{opacity:0.5;fill:#FB5D13;}
	.st21{fill:#EFA49E;}
	.st22{fill:#D80E6A;}
	.st23{fill:url(#SVGID_20_);}
	.st24{fill:#6BA7FD;}
	.st25{fill:#4975CE;}
	.st26{fill:#0D1C81;}
	.st27{fill:#8CC0FC;}
	.st28{fill:url(#SVGID_21_);}
.only-1 {

  fill:#ffffff00;
  animation:example 1.5s infinite;
}
.only-2 {

  fill:#ffffff00;
  animation:example 3s infinite;
}
.only-3 {

  fill:#ffffff00;
  animation:example 4s infinite;
}
@keyframes example {
  from {fill:#ffffff00;}
  to {fill:#FFFFFF;}
}
#e5h3hlfjj5yh67_tr {
	animation: e5h3hlfjj5yh67_tr__tr 10000ms linear infinite normal forwards
}

@-keyframes e5h3hlfjj5yh67_tr__tr {
	0% {
		transform: translate(122.655972px, 129.978945px) rotate(-359.664250deg)
	}
	92% {
		transform: translate(122.655972px, 129.978945px) rotate(-719.130796deg)
	}
	100% {
		transform: translate(122.655972px, 129.978945px) rotate(-719.130796deg)
	}
}
</style>
<g>
	<defs>
		<rect id="SVGID_1_" width="664.4" height="610.5"/>
	</defs>
	<clipPath id="SVGID_2_">
		<use xlink:href="#SVGID_1_"  style="overflow:visible;"/>
	</clipPath>
	<linearGradient id="SVGID_3_" gradientUnits="userSpaceOnUse" x1="65.958" y1="302.4106" x2="756.5945" y2="302.4106">
		<stop  offset="0" style="stop-color:#65A3F8"/>
		<stop  offset="1" style="stop-color:#5884E7"/>
	</linearGradient>
	<path class="st0" d="M756.6,323.3c-1.2,66-27.5,130.4-73.5,177.7c-24.9,25.7-53.7,45.4-87.9,56.4c-15.1,4.8-30.5,8.9-46.4,11.1
		c-15.6,2.1-31.2,2-46.8,1.4c-33.1-1.3-63.8-17.6-94.9-27.4c-61.5-19.3-122.3,17.5-179.1,35.8c-62,20.1-136.1,10-157.6-62
		c-2-6.8-3.3-13.9-3.9-21C61.6,435.7,96,394,148.3,372.1c37-15.4,69.8-48.5,75.1-89.7c7.7-60,5.3-124.7,33.6-179.9
		c26.7-52.1,87-87.6,145.7-84.9c28.7,1.3,53.9,18.2,70.3,41.2c27,37.9,26.1,93.3,62.6,124.7c39.3,33.9,88.9-7.2,135,1.8
		c63.5,12.5,86.7,79.2,86.1,136.2C756.6,322.1,756.6,322.7,756.6,323.3z"/>
	<linearGradient id="SVGID_4_" gradientUnits="userSpaceOnUse" x1="23.1995" y1="109.1869" x2="248.108" y2="109.1869">
		<stop  offset="0" style="stop-color:#65A3F8"/>
		<stop  offset="1" style="stop-color:#5884E7"/>
	</linearGradient>
	<path class="st1" d="M92.9,206.9c-0.5,0-1-0.1-1.4-0.1c-41.2-3.6-70.3-38.6-68.1-79.4c2.2-41.1,32.5-78,67.4-97.5
		c32.8-18.3,77-25.2,112.6-11.2c21.1,8.3,42.8,25.8,44.7,50c2,25.8-18.7,41.8-33.3,59.9c-8.4,10.4-16.4,21.1-25.3,31
		C164.5,187.1,131.6,209.7,92.9,206.9z"/>
	<linearGradient id="SVGID_5_" gradientUnits="userSpaceOnUse" x1="82.3377" y1="295.1727" x2="190.4092" y2="295.1727">
		<stop  offset="0" style="stop-color:#65A3F8"/>
		<stop  offset="1" style="stop-color:#5884E7"/>
	</linearGradient>
	<path class="st2" d="M190.4,273c-0.4,18.4-10.5,39.2-20.7,51.3c-17.9,21.1-75.8,52.2-86,7c-6.3-27.8,11-61.5,30.5-80.2
		c14.8-14.2,34.9-18.9,54.2-11.9C185,245.1,190.7,258.3,190.4,273z"/>
	<linearGradient id="SVGID_6_" gradientUnits="userSpaceOnUse" x1="-97.7853" y1="312.6043" x2="394.4323" y2="722.9681">
		<stop  offset="0" style="stop-color:#65A3F8"/>
		<stop  offset="1" style="stop-color:#5884E7"/>
	</linearGradient>
	<path class="st3" d="M15.1,429.7c3.2,4.8,8,8.9,12.3,11.2c7,3.8,17.7,6.4,25.3,2.7c14.9-7.4,4.3-29.1-6.1-35.1
		c-9.2-5.3-22.3-4.6-30.4,2.6C9.9,416.7,11.1,423.7,15.1,429.7z"/>
	<linearGradient id="SVGID_7_" gradientUnits="userSpaceOnUse" x1="-61.6377" y1="277.8925" x2="427.2803" y2="685.5053">
		<stop  offset="0" style="stop-color:#65A3F8"/>
		<stop  offset="1" style="stop-color:#5884E7"/>
	</linearGradient>
	<path class="st4" d="M55.5,368.1c-4.3,0.7-8.1,3.3-8.4,7.6c-0.3,4.1,2.7,7.9,6.5,9.7c5.9,2.7,16.3,3.5,15.1-5.4
		C67.8,373.5,62.5,366.8,55.5,368.1z"/>
	<linearGradient id="SVGID_8_" gradientUnits="userSpaceOnUse" x1="82.7301" y1="112.5487" x2="571.6502" y2="520.1634">
		<stop  offset="0" style="stop-color:#65A3F8"/>
		<stop  offset="1" style="stop-color:#5884E7"/>
	</linearGradient>
	<path class="st5" d="M187.3,200.9c-0.3,0.4-0.6,0.8-0.9,1.1c-0.7,0.9-1.3,1.8-1.6,2.9c-0.6,2.2-0.2,4.7,1,6.6
		c2.1,3.3,6.6,4.7,10.3,3.6c3.7-1.1,6.6-4.6,7.3-8.4c0.7-3.9-0.9-8.4-4.3-10.4c-2.1-1.2-4.8-1.3-7-0.3c-1.4,0.6-2.5,1.7-3.4,3
		C188.2,199.6,187.8,200.2,187.3,200.9z"/>
	<linearGradient id="SVGID_9_" gradientUnits="userSpaceOnUse" x1="428.7788" y1="-31.6331" x2="917.699" y2="375.9816">
		<stop  offset="0" style="stop-color:#65A3F8"/>
		<stop  offset="1" style="stop-color:#5884E7"/>
	</linearGradient>
	<path class="st6" d="M533.3,56.7c-0.3,0.4-0.6,0.8-0.9,1.1c-0.7,0.9-1.3,1.8-1.6,2.9c-0.6,2.2-0.2,4.7,1,6.6
		c2.1,3.3,6.6,4.7,10.3,3.6c3.7-1.1,6.6-4.6,7.3-8.4c0.7-3.9-0.9-8.4-4.3-10.4c-2.1-1.2-4.8-1.3-7-0.3c-1.4,0.6-2.5,1.7-3.4,3
		C534.3,55.4,533.8,56,533.3,56.7z"/>
	<linearGradient id="SVGID_10_" gradientUnits="userSpaceOnUse" x1="269.4851" y1="-135.7905" x2="771.6752" y2="282.8873">
		<stop  offset="0" style="stop-color:#65A3F8"/>
		<stop  offset="1" style="stop-color:#5884E7"/>
	</linearGradient>
	<path class="st7" d="M584.6,157.6c7.6,0.3,16.1-3.3,23-12.6c24.4-32.7-20.5-59.8-39-24C558.4,141,569.8,157,584.6,157.6z"/>
</g>
<linearGradient id="SVGID_11_" gradientUnits="userSpaceOnUse" x1="85.6314" y1="170.1604" x2="178.1143" y2="170.1604">
	<stop  offset="0" style="stop-color:#FBC733"/>
	<stop  offset="1" style="stop-color:#FB7F37"/>
</linearGradient>
<path class="st8" d="M139.9,131.3c-11.3-0.1-22.7-0.4-34-0.3c-4.6,0.1-10.6-0.9-14.6,1.6c-3.6,2.3-5.5,6.7-5.6,10.9
	c-0.1,9-0.1,18.1,0.1,27.1c0.1,4.6,0.3,9.2,0.5,13.8c0.2,3.9,0.1,7.5,3,10.5c3.3,3.4,8,3.4,12.4,3.1c4.9-0.3,9.8-0.5,14.6-0.5
	c6.9,0,13.8,0,20.7,0c2.3,0,3.7,0.6,4.7,2.7c1.2,2.4,2.7,4.6,4.2,6.8c2.2,3.2,4.5,3.3,7.1,0.3c2-2.2,3-5,4.3-7.6
	c0.8-1.6,1.8-2.6,3.8-2.3c10.8,1.8,16.6-7.2,16.7-17.8c0.2-11.9,0.3-23.7,0.2-35.6c0-6.1-4.3-11.6-9.5-12.2
	c-3.6-0.4-7.2-0.9-10.9-0.8C151.8,131.3,145.9,131.3,139.9,131.3z"/>
<path class=" only-1" d="M107.3,171.4c5,0,8.7-3.7,8.7-8.5c0-4.3-3.4-7.7-7.8-7.8c-4.9-0.1-9.1,4-9.1,8.7
	C99.1,168.2,102.6,171.4,107.3,171.4z"/>
<path class=" only-2" d="M149.1,163.5c0,4.8,2.8,7.8,7.4,7.8c4.8,0,8.1-3.2,8.2-8c0.1-4.6-2.6-7.6-7.7-8.2
	C152.8,154.7,149.2,158.8,149.1,163.5z"/>
<path class=" only-3" d="M131.2,171c4.6,0,8-3.3,8.1-7.8c0.1-4.4-3.4-7.8-8-7.8c-4.5,0-8.3,3.4-8.1,7.8
	C123.4,168.4,127.3,171.5,131.2,171z"/>
<linearGradient id="SVGID_12_" gradientUnits="userSpaceOnUse" x1="518.9821" y1="261.4334" x2="611.4651" y2="261.4334">
	<stop  offset="0" style="stop-color:#FBC733"/>
	<stop  offset="1" style="stop-color:#FB7F37"/>
</linearGradient>
<path class="st10" d="M557.2,222.5c11.3-0.1,22.7-0.4,34-0.3c4.6,0.1,10.6-0.9,14.6,1.6c3.6,2.3,5.5,6.7,5.6,10.9
	c0.1,9,0.1,18.1-0.1,27.1c-0.1,4.6-0.3,9.2-0.5,13.8c-0.2,3.9-0.1,7.5-3,10.5c-3.3,3.4-8,3.4-12.4,3.1c-4.9-0.3-9.8-0.5-14.6-0.5
	c-6.9,0-13.8,0-20.7,0c-2.3,0-3.7,0.6-4.7,2.7c-1.2,2.4-2.7,4.6-4.2,6.8c-2.2,3.2-4.5,3.3-7.1,0.3c-2-2.2-3-5-4.3-7.6
	c-0.8-1.6-1.8-2.6-3.8-2.3c-10.8,1.8-16.6-7.2-16.7-17.8c-0.2-11.9-0.3-23.7-0.2-35.6c0-6.1,4.3-11.6,9.5-12.2
	c3.6-0.4,7.2-0.9,10.9-0.8C545.3,222.5,551.2,222.6,557.2,222.5z"/>
<path class="only-1" d="M589.8,262.7c-5,0-8.7-3.7-8.7-8.5c0-4.3,3.4-7.7,7.8-7.8c4.9-0.1,9.1,4,9.1,8.7
	C598,259.5,594.5,262.7,589.8,262.7z"/>
<path class="only-2" d="M548,254.8c0,4.8-2.8,7.8-7.4,7.8c-4.8,0-8.1-3.2-8.2-8c-0.1-4.6,2.6-7.6,7.7-8.2
	C544.3,246,547.9,250.1,548,254.8z"/>
<path class="only-3" d="M565.9,262.3c-4.6,0-8-3.3-8.1-7.8c-0.1-4.4,3.4-7.8,8-7.8c4.5,0,8.3,3.4,8.1,7.8
	C573.7,259.7,569.8,262.7,565.9,262.3z"/>
<linearGradient id="SVGID_13_" gradientUnits="userSpaceOnUse" x1="540.4267" y1="453.7225" x2="563.3367" y2="454.4991" gradientTransform="matrix(0.9999 1.360000e-02 -1.360000e-02 0.9999 21.6447 -18.3541)">
	<stop  offset="0" style="stop-color:#65A3F8"/>
	<stop  offset="1" style="stop-color:#5884E7"/>
</linearGradient>
<path class="st11" d="M581.5,489c-1.5,2.5-3.2,4.8-4.9,7.2c-1.2,1.7-2.5,3.4-3.6,5.2c-2.7,4.2-4.7,8.7-3.5,14
	c0.5,2.1-0.4,3.7-2.3,4.5c-2.5,1-4.1-0.6-5.2-2.5c-0.1-0.2-0.3-0.4-0.4-0.7c-3.8-6.6-6.8-13.6-8.2-21.1c-1-5.5-2.4-11-1.7-16.1
	c-0.1-2.7,0.1-5.3,0.4-7.8c0.4-3.2,0.9-6.3,1.3-9.5c0.6-5.1-0.8-9.9-3-14.4c-2.7-5.6-5.7-11-8.5-16.6c-6.4-13.2-5.4-26.4,0.4-39.4
	c2.7-6.1,5.8-11.9,6.8-18.5c0.3-1.7,0.4-3.4,0.3-5.1c0-0.9,0.1-1.6,0.3-2c0.7-1.5,2.8,0,4,0.7c4.5,2.7,7.7,7,10.8,11
	c5.6,7,12.1,13.4,13.9,23c1.6,8.3,0.9,16.1-3,23.3c-4.8,8.7-3.9,16.4,2,23.2c0.5,0.5,1,1.1,1.5,1.6C592.6,462,588.2,477.9,581.5,489
	z"/>
<linearGradient id="SVGID_14_" gradientUnits="userSpaceOnUse" x1="576.9835" y1="461.5303" x2="608.03" y2="509.6524" gradientTransform="matrix(0.9999 1.360000e-02 -1.360000e-02 0.9999 21.6447 -18.3541)">
	<stop  offset="0" style="stop-color:#65A3F8"/>
	<stop  offset="1" style="stop-color:#5884E7"/>
</linearGradient>
<path class="st12" d="M609.1,495.8c-4.2,7.7-9.5,14.7-13.3,22.6c-2,4.2-5.3,4-8.3,0c-5.4-7.1-8.8-14.8-10.9-22.2
	c-1.9-6.7-2.7-13.1-3-18.8c0.1-11.2,1.6-21.1,3.9-30.2c2.9-11.6,7.3-22,12-32.4c3.2-6.8,6.3-13.7,9.5-20.5c0.5-1,0.8-2.6,2.3-2.5
	c0.4,0,0.7,0.1,1,0.3c0.8,0.5,1.3,1.5,1.8,2.4c0,0.1,0.1,0.2,0.1,0.2c2,4.1,0.3,8.3-0.5,12.2c-1.9,9.1-1.1,17.8,3.7,25.8
	c6,10,9.9,20.9,10.1,32.5C617.6,475.9,614.4,486.2,609.1,495.8z"/>
<linearGradient id="SVGID_15_" gradientUnits="userSpaceOnUse" x1="514.8674" y1="481.472" x2="538.1589" y2="496.6115" gradientTransform="matrix(0.9999 1.360000e-02 -1.360000e-02 0.9999 21.6447 -18.3541)">
	<stop  offset="0" style="stop-color:#65A3F8"/>
	<stop  offset="1" style="stop-color:#5884E7"/>
</linearGradient>
<path class="st13" d="M566.1,501.5c-0.1,2.8-0.6,5.5-1.5,8.1c-0.5,1.6-1.1,3.1-1.8,4.6c-0.4,0.8-0.8,1.6-1.2,2.4
	c-0.4,0.8-0.9,1.6-1.3,2.3c-1,1.5,0.2,4.2-1.8,4.6c-2.9,0.6-6,0.9-9,0c-1.5-0.4-2.7-1.3-2.6-2.7c0.9-10.5-6-17.4-11.4-24.9
	c-4.1-5.8-7.5-11.7-8.6-19.1c-1.2-8.6,0.7-16.6,3.5-24.3c1.7-4.5,3.3-9,4.4-13.7c0.3-1.2,0.6-2.6,1.6-3.3c0.3-0.2,0.7-0.4,1.2-0.4
	c0.3,0,0.6,0,0.8,0.1c3.8,1,4,11.6,3.8,14.3c-0.9,8.9,2.8,16.2,10,22.1c0.1,0.1,0.2,0.2,0.3,0.3c5.3,4.3,9.2,9.4,11.4,15.2
	c0.7,1.7,1.2,3.4,1.5,5.2C566,495.2,566.3,498.3,566.1,501.5z"/>
<path class="st14" d="M565.4,492.2c-1,5.8-1.4,11.6-0.8,17.4c0.2,2.3,0.6,4.5,1.2,6.8c0.3,1,0.6,2.5-0.4,2.9c-1.7,0.5-1.9-1.5-2-2.4
	c-0.2-0.9-0.3-1.8-0.5-2.6c-0.6-3.9-1-7.8-0.5-11.7c-0.5-5.4,0.4-10.5,1.5-15.6c0.5-2.5,1.2-4.9,1.7-7.4c3.3-14,1.6-27.4-6.3-39.2
	c-10.7-16-11.9-33.2-9.7-51.5c0.5-3.7,0.5-7.5,0.5-11.3c0-1.5-0.4-3-0.9-4.4c0.3-1.7,0.4-3.4,0.3-5.1c0-0.9,0.1-1.6,0.3-2
	c1,0.4,1.6,2.8,2,3.7c1,2.8,1.3,5.8,1.3,8.8c0,5.8-1.2,11.5-1.7,17.3c-1.1,13.1-0.2,25.8,6.9,37.3c5.2,8.4,9.5,17.1,10.8,27.2
	c1.1,8.5-0.2,16.6-2.1,24.7C566.3,487.4,565.8,489.8,565.4,492.2z"/>
<path class="st14" d="M594.5,424.2c-1.4,8.5,0.5,16.5,2.1,24.7c1.1,5.2,2.4,10.3,2.9,15.6c0.7,6.3-1.1,12.4-3,18.2
	c-3.5,10.6-5,21.5-4.8,32.6c0,0.9,1,2.4-0.8,2.5c-1.5,0.1-1.4-1.3-1.4-2.4c0-2.4,0.1-4.9,0.1-7.6c-0.3-8.5,1.4-17,4.3-25.1
	c3.8-10.7,4-21.4,0.6-32c-3.1-9.4-3.7-19.4-2.1-29.1c0.8-4.9,2.1-9.6,3.8-14.3c0.8-2.4,1.8-4.7,2.8-7c0.5-1.1,1.8-6.1,3.2-8.3
	c0.8,0.5,1.3,1.5,1.8,2.4c0,0.1,0.1,0.2,0.1,0.2c-0.3,1.3-0.6,2.5-1.1,3.8c-1.1,3.3-3,6.3-4.2,9.6
	C597,413.4,595.4,418.7,594.5,424.2z"/>
<path class="st14" d="M553,518.9c-1.4,0.1-1.4-1.2-1.3-2.3c0.2-1.8,0.3-3.6,0.5-5.4c1.2-9.9-3.8-17.6-9.4-24.9
	c-6.2-8.1-10.1-16.9-9.3-27.2c0.4-4.6,1.1-9.3,2-13.8c0.4-2,0.6-3.7,0.6-5.8c0-0.4,0.1-2.2,0.2-3.9c0.3-0.2,0.7-0.4,1.2-0.4
	c0.3,0,0.6,0,0.8,0.1c0.2,0.5,0.4,1.1,0.4,1.6c0.3,2.2,0,5.6-0.4,7.8c-1.2,6.5-2.6,12.9-2.3,19.7c0.5,8,4.2,14.4,8.6,20.6
	c1.9,2.7,3.8,5.5,5.5,8.3c2.8,4.6,4.2,9.6,4.1,15.1c0,2.7-0.8,5.4,0.3,8.1C555.5,517.8,554.3,518.8,553,518.9z"/>
<linearGradient id="SVGID_16_" gradientUnits="userSpaceOnUse" x1="512.5125" y1="567.7841" x2="599.7407" y2="567.7841" gradientTransform="matrix(0.9999 1.210000e-02 -1.210000e-02 0.9999 19.4524 -16.7754)">
	<stop  offset="0" style="stop-color:#FBC733"/>
	<stop  offset="1" style="stop-color:#FB7F37"/>
</linearGradient>
<path class="st15" d="M580.7,516.6c10,0.1,17.9,0.1,25.8,0.3c5.4,0.1,6.7,1.3,6,6.6c-1.4,10.1-3.2,20.2-5.2,30.3
	c-2.5,12.2-5.6,24.3-8.4,36.5c-1.3,5.7-4,7.8-9.9,7.8c-13.2,0.1-26.5,0.4-39.7,0.4c-6.1,0-6.8-0.9-8.3-6.7
	c-5.3-19.9-10.4-39.9-14.9-60c-0.4-1.8-0.5-3.6-0.5-5.4c-0.3-6.8,1.6-8.3,8.5-8.7C550.2,516.9,566.5,516.2,580.7,516.6z"/>
<g>
	<g>
		<linearGradient id="SVGID_17_" gradientUnits="userSpaceOnUse" x1="393.2339" y1="150.6725" x2="478.1902" y2="150.6725">
			<stop  offset="0" style="stop-color:#FBC733"/>
			<stop  offset="1" style="stop-color:#FB7F37"/>
		</linearGradient>
		<path class="st16" d="M477.5,167.8c-2.4,16.3-11.6,31.7-29.9,33.4c-11.4,1-21.5-4.6-27.6-14c-7-10.7-12.8-21.9-17-33.9
			c-3.4-9.7-11.9-21.9-9.2-32.7c2.1-8.6,12.7-16.4,20.8-18.8c30.5-9,60.4,22.5,63.4,50.8C478.4,157.4,478.3,162.6,477.5,167.8z"/>
		<path class="st17" d="M420.2,217.3c0.4,16-1.6,30.3-8.2,43.6c-2.8,5.8-7.3,10.4-11.2,15.4c-1.1,1.4-1.6,2.7-1.7,4.4
			c-0.3,7.3,0.2,14.6,0.8,21.9c0.1,1.6,0.7,2.3,2.2,2.8c8.2,2.7,16,6.2,23.9,9.6c2.8,1.2,2.2,2.2,1.4,3.9
			c-3.6,7.6-9.3,13.4-15.6,18.7c-12.4,10.5-26.6,17.2-43,16.6c-19.8-0.7-35.9-9.6-47.9-25.5c-1.8-2.3-1.2-4.3,1.1-6.2
			c3.1-2.7,6.7-4.8,10.6-6.5c3.2-1.4,6.7-1.8,10-2.9c5.6-1.9,3.1-11.3-2.2-11.8c-15.2-1.5-30.2-7-42.5-16.2
			c-10.2-7.6-19.2-17.6-22.2-30.2c-1.5-6.3-1.5-12.9-0.1-19.3c1.4-6.4,5.4-12,4.6-18.8c-0.7-5.8-3-11.3-3.8-17.1
			c-1.4-10.3,2.1-17.7,8.4-25.5c9.1-11.4,20.4-20.1,34.8-23.4c12.3-2.8,24.6-1.3,36.7,2.3c18.5,5.6,34.7,14.8,48.5,28.2
			c6.3,6.1,10.5,13.6,14.2,21.4C421.4,207.7,420,213.3,420.2,217.3z"/>
		<path class="st17" d="M239.4,502.1c-5.5-0.4-10.8-2.4-15.7-6.6c-12.3-10.6-18.6-28.3-25.6-42.5c-16.1-32.5-32-65.4-46-98.9
			c-3.8-9.1-10.6-14.3-19.3-17.9c-1-0.4-1.9-0.9-2.9-1.2c-16.4-4.2-23.9-17.9-32.5-30.5c-0.9-1.4-1.9-2.7-2.7-4.2
			c-0.9-1.7-2.5-3.3-1-5.4c1.3-1.8,3.3-1.8,5.3-1.8c7.3,0,12.7,3.4,16.9,9.1c0.9,1.2,2.1,2.3,2.8,3.6c4.7,8.6,12.9,6.1,20.2,6.5
			c1.7,0.1,1.7-1,0.8-2.1c-1.4-1.6-2.8-3.2-4.2-4.8c-2.8-3.3-5-6.9-5.1-11.3c-0.1-3.5,2.5-5.8,5.1-4.2c9.8,6.1,21,10.6,27.6,20.9
			c3.6,5.6,4.3,13.2,7.4,19.3c3.8,7.5,8.8,14.3,13.1,21.5c7.1,11.8,14.2,23.7,21.6,35.3c11.8,18.5,23.9,36.8,36.9,54.5
			c3.1,4.3,3.3,4.3,6.2-0.6c2.4-4,4.8-8.1,7.2-12.1c2-3.3,3.9-3.3,5.4,0c7.1,15,14,30.1,21.1,45.1c3.6,7.6-7,14.1-12.3,17.8
			C260.7,498.1,249.8,503,239.4,502.1z"/>
		<linearGradient id="SVGID_18_" gradientUnits="userSpaceOnUse" x1="254.14" y1="158.398" x2="434.0104" y2="158.398">
			<stop  offset="0" style="stop-color:#FBC733"/>
			<stop  offset="1" style="stop-color:#FB7F37"/>
		</linearGradient>
		<path class="st18" d="M400.6,210.1c-19.5-0.6-40.6-5-56.8-15.7c-7.1-4.7-12.5-10.9-16.3-18.5c-2.3-4.6-2.4-4.4-5-0.3
			c-10.2,16.2-24.4,26.6-43.5,29.8c-11.1,1.8-23.1-6.9-24.7-17.7c-0.8-5.6,4.5-3.4,7.5-5.9c4.1-3.4,4.2-11.4,4.6-16.2
			c1.3-14.1,8.3-26.6,18.3-36.5c25.3-25,64.4-28.4,96-14.7c26.7,11.6,45,34.9,51.5,63.1c1.6,6.8,2,13.7,1.9,20.7
			c-0.3,11.5-20.1,11.8-28.4,11.8C404,210.2,402.3,210.2,400.6,210.1z"/>
		<linearGradient id="SVGID_19_" gradientUnits="userSpaceOnUse" x1="296.2989" y1="362.8156" x2="504.4805" y2="515.1721">
			<stop  offset="0" style="stop-color:#00B4DB"/>
			<stop  offset="0.2717" style="stop-color:#00AFD7"/>
			<stop  offset="0.5807" style="stop-color:#00A2CB"/>
			<stop  offset="0.907" style="stop-color:#008BB7"/>
			<stop  offset="1" style="stop-color:#0083B0"/>
		</linearGradient>
		<path class="st19" d="M317.9,470.8c-8.3,8.1-16.5,15.9-24.4,23.9c-5.8,5.9-6.2,6-9.5-1.7c-9.8-22.4-21.2-44.1-29.8-67
			c-1.2-3.1-1.3-5.9-0.1-9.1c7.2-18.2,16.4-35.6,27-52c9.6-14.9,19.8-31.4,35.3-40.7c6.2-3.7,6.2-3.6,10.7,1.8
			c8.3,10.1,18.7,17.3,31.2,21.1c23.8,7.3,47.9-2.5,61.2-24.6c0.4-0.7,0.7-1.3,1.1-2c3.8-6.7,5.1-7,11.4-2.3
			c13.9,10.6,24,24.4,32.3,39.6c19.3,35.6,28.2,75.9,29.3,116.2c0.1,4.2-1.4,5.9-5.7,6.9c-17.9,4.1-34.6,11.5-50.3,21.1
			c-3.4,2.1-4.5,4.9-4.6,8.7c0,6.1-0.5,12.1-0.9,18.2c-0.3,3.8-1.5,6.2-6.4,6.1c-17.7-0.4-35.4,0.4-53-0.6
			c-11.8-0.7-23.4,0.2-35.1,0.3c-3.5,0-5-0.2-5.4-4.6c-0.7-7.4-3.1-14.7-4.3-22.1c-2-12.1-4.5-24-9.2-35.3
			C318.5,472.1,318.2,471.6,317.9,470.8z"/>
		<path class="st17" d="M338.5,554c-27.7,0.6-56.3-3.4-83.7,2.1c-5.4,1.1-17.4,3.8-20.9-2.4c-1.1-2-0.6-4.6-0.2-6.7
			c2.6-13.3,7.3-22.1,24.8-26.1c13.1-3,26.2-2.7,39.4-2.6c5.7,0,11.5-3.2,16.9-4.7c18.2-5.3,37.5-7.7,56.5-8.5
			c9.6-0.4,19.3-0.4,29-0.2c9.6,0.2,19.3-0.2,28.8,1.4c1.9,0.3,2.5-0.6,2.8-2.1c1.9-11.7,9.4-18.1,20.1-21.9
			c11.4-4,22.8-7.9,34.4-11c2.3-0.6,2.8-0.7,3.4,2c2.1,9.2,2.6,18.5,3.7,27.8c1.7,14.1,3.2,32.5-6.9,44.1
			c-5.1,5.8-13.1,13-20.6,15.2c-9.2,2.8-19.3,1.5-28.6,0.1c-10.1-1.5-20.3-3.1-30.5-3.9C385.5,554.8,364.1,553.4,338.5,554z"/>
		<path class="st9" d="M340.3,280.1c-7.6,0.3-17.3-2.6-20.2-9.9c-2.3-5.8,7.1-7,10.7-8.2c9-3.2,18.1-6.3,27.4-8.7
			c3.5-0.9,5.1,2.2,5.4,5.3c0.9,11.4-10.1,19.7-20.2,21.3C342.4,279.9,341.4,280,340.3,280.1z"/>
		<path class="st20" d="M304.8,368c0-2.1,0-3.8,0-5.5c0-0.8-0.3-2.1,0.9-2.2c1.3-0.2,1,1.2,1.3,1.9c1.8,4.7,0.1,9.4-0.5,14
			c-1.3,10.5-5.1,20.2-11.3,28.9c-4.7,6.6-5.2,13.1-2.1,20.8c4.8,12,12.1,22.3,19.5,32.6c2,2.8,3.8,5.9,5.6,8.8
			c0.4,0.7,0.5,1.5-0.2,2.1c-0.8,0.6-1.4,0-1.8-0.7c-8.9-14.7-20.8-27.6-26.3-44.4c-2.2-6.6-1.9-12.4,1.8-18.1
			c5.1-7.8,9.5-15.8,11.4-25.1C304.2,376.6,305.1,372.2,304.8,368z"/>
		<path class="st21" d="M377.4,254.3c-2.8-0.8-5.5-2.5-6.5-5c-1.5-3.9,1.5-9.1,4.9-11.1c3.9-2.3,12.2-1.5,14.5,2.9
			c2.8,5.6-2.2,12.3-7.8,13.4C380.9,254.8,379.1,254.7,377.4,254.3z"/>
		<path class="st20" d="M376.2,465.9c10.7,0.7,21-2.4,30.3-8.8c1.1-0.7,2.5-2.2,3.5-0.6c0.8,1.3-1.1,1.8-2,2.5
			c-12.7,9.1-27,10.7-42,9c-0.6-0.1-1.3-0.2-1.4-0.9c-0.1-1.1,0.8-1.1,1.5-1.2C369.3,465.9,372.5,465.9,376.2,465.9z"/>
		<path d="M302.3,213.5c3.2-1.1,6.5-0.2,7.2,3.5c0.9,4.6-4.5,7.1-8.1,4.6C298.7,219.7,298.8,214.7,302.3,213.5z"/>
		<path d="M358.8,222c-2.5,1.4-6.3,1.2-7.9-1.5c-1.2-1.9-0.9-4.5,0.6-6.1c3.1-3.3,8.6-1.3,9.4,3C361.4,219.5,360.3,221.1,358.8,222z
			"/>
		<path class="st22" d="M333.5,148.4c-1.5,7.4-4.2,14.8-8,21.7c-0.5,1-1.2,2.1-2.4,1.5c-1.5-0.8-0.1-1.8,0.3-2.6
			c3.7-6.7,6-13.8,7.8-21.1c0.3-1-0.3-2.9,1.6-2.5C334.2,145.5,333.4,147.1,333.5,148.4z"/>
		<path class="st21" d="M350.1,302.5c-1,0-1.6,0-2.2,0c-0.7-0.1-1.7-0.1-1.6-1.1c0.1-1,1-0.9,1.7-1c3.6-0.5,7.1-1.1,10.7-1.5
			c4.1-0.5,7.9-1.7,11.6-3.5c0.9-0.4,2.3-1.8,3,0c0.5,1.3-1,1.5-1.9,2c-4.4,2.5-9.3,3.4-14.1,4.3C354.8,302,352.3,302.2,350.1,302.5
			z"/>
		<path class="st21" d="M434,505.6c9.7,0.5,18.2,3,26.4,6.7c0.9,0.4,2.7,1,1.8,2.5c-0.7,1.1-1.8,0-2.7-0.4c-7.4-2.9-14.8-6.1-23.1-6
			c-0.7,0-1.5-0.3-2.2-0.6c-0.8-0.3-2.1-0.2-1.8-1.5C432.7,505.2,433.9,505.6,434,505.6z"/>
		<path class="st21" d="M325.2,239.3c0.2,3,2.2,4.2,4.2,5.3c0.5,0.3,1.1,0.1,1.3-0.4c0.2-0.5,0.1-1.1-0.5-1.3
			c-4.7-2-2.3-5.8-2.1-8.9c0.3-3.4,1.3-6.8,1.2-10.2c0-0.8,0-1.8-1-1.8c-1.1,0-0.8,1.1-0.9,1.7C326.7,229,326.5,234.4,325.2,239.3z"
			/>
		<linearGradient id="SVGID_20_" gradientUnits="userSpaceOnUse" x1="296.3428" y1="362.7563" x2="504.5245" y2="515.1127">
			<stop  offset="0.7034" style="stop-color:#00B4DB"/>
			<stop  offset="0.784" style="stop-color:#00AFD7"/>
			<stop  offset="0.8756" style="stop-color:#00A2CB"/>
			<stop  offset="0.9724" style="stop-color:#008BB7"/>
			<stop  offset="1" style="stop-color:#0083B0"/>
		</linearGradient>
		<path class="st23" d="M431.3,498.5c-0.1,1.7-0.9,4.8,0.1,6.3c1.9,3.2,14.7-4.7,17-5.9c12.6-6.7,26.7-10.5,40.4-14.5
			c4.1-1.2,3.9-2.9,4.6-6.9c0.7-4.1,0.5-8.4-0.9-12.4c-0.8-2.3-2.4-4.4-4.6-5.4c-2-0.9-4.3-0.8-6.5-0.6c-13.7,1.1-27.3,4.1-40.2,8.7
			c-2.6,0.9-5.7,2-7.8,4c-2,1.8-1.6,2.9-1.5,5.4c0.2,5.2,0,10.4-0.2,15.6C431.6,493.1,431.4,495.7,431.3,498.5z"/>
		<path class="st20" d="M432.2,487.3c0,3.5,0,7,0,10.5c0,0.9-0.1,2-1.3,2c-1.6,0-1.3-1.2-1.3-2.3c1.4-31.9-5.2-62.5-13.9-92.9
			c-0.5-1.9-2.5-5.1-0.5-5.7c2.4-0.7,2.1,2.9,2.7,4.7c5.9,18,9.5,36.5,12.3,55.1C431.6,468.1,432.7,477.7,432.2,487.3z"/>
	</g>
	<g>
		<path class="st24" d="M360,104.3c1.9,0.1,3.4,0.2,4,0.2c14.8,1.3,23.8,11.3,31.5,23c7.4,11.3,13.2,23.7,16.9,36.7
			c0.8,2.7,0.7,4.8-1.2,7.1c-6,7-10.9,14.9-17.2,21.7c-0.6,0.6-0.8,1.7-2,1.1c-0.6-0.3-0.7-0.8-0.7-1.5c0.3-15.2-5.1-28.9-11.9-42.2
			c-7.7-15-18.1-28-30.9-39c-1.1-1-3.7-2.6-4-4.2C343.9,104.1,354,104,360,104.3z"/>
		<path class="st25" d="M387.3,276c-4.2,0.3-8.7-0.9-12.8,2.4c-2.1,1.6-5-0.4-6.6-2.6c-1.5-2.2-1.5-4.6,0.5-6.7c2-2.2,5-2.8,7-1.1
			c2.9,2.4,5.9,2.3,9,2c8.3-0.8,16.6-1.8,24.8-2.7c1.9-0.2,2.7-1.1,2.7-3c0.1-5,0.3-10-0.6-15c-0.8-4,0-4.9,4.9-5.6
			c3.4-0.5,5,1,5.1,4.6c0.1,5.9,1.2,11.8,1,17.7c-0.3,7.4-1.6,9.1-8.8,8.8C404.8,274.6,396.2,276.3,387.3,276z"/>
		<path class="st26" d="M386.1,203.3c-0.9-7-0.3-13.9,1.8-20.6c2.9-9.5,12-16.5,21.9-16.6c10.1-0.1,19.3,6.3,22.4,15.9
			c2.7,8.5,2.3,17.4,3,26.1c0.5,6.5,1.1,13-0.3,19.5c-2.9,12.8-10.8,19.1-24.3,19.1c-9.4,0-18.1-7.7-20.7-18.6
			C387.9,219.9,386.9,211.6,386.1,203.3z"/>
		<path class="st25" d="M420.2,205.4c-0.2,3.2,0.8,6.6-0.1,10.1c-0.8,3.2-2.8,5.4-5.7,5.6c-3.4,0.3-7.5-0.2-8.8-4.1
			c-2.3-7.2-3.1-14.8-1.4-22.3c0.9-3.7,4.4-4.9,7.8-5c3.1-0.1,5.2,1.9,6.5,4.7C420.1,197.9,419.7,201.6,420.2,205.4z"/>
	</g>
</g>
<g>
	<g>
		<polygon class="st27" points="350.7,539.5 135.1,539.5 113,547.6 307.8,547.6 		"/>
		<path class="st25" d="M307.8,560.7H116c-1.7,0-3-1.4-3-3v-10h194.8V560.7z"/>
		<path class="st26" d="M342.5,554.1l-34.7,6.6v-13.1l42.9-8.2v4.7C350.7,549,347.2,553.2,342.5,554.1z"/>
	</g>
	<g>
		<linearGradient id="SVGID_21_" gradientUnits="userSpaceOnUse" x1="134.5809" y1="406.3714" x2="258.1263" y2="541.2892">
			<stop  offset="0" style="stop-color:#65A3F8"/>
			<stop  offset="1" style="stop-color:#5884E7"/>
		</linearGradient>
		<path class="st28" d="M208.8,551.3c-29.4,0-58.8-0.2-88.2,0.1c-5.5,0.1-8.1-2.3-9.5-7c-11.3-38.2-21.5-77.3-29.7-116.3
			c-1.6-7.8-3.4-15.6-4.9-23.4c-1.1-5.7,1.5-8.2,7.4-8.1c15.5,0.3,31-0.9,46.6-1c23.9-0.1,47.8-0.9,71.6-1.8
			c13.4-0.5,26.9-0.8,40.3-0.9c6.8,0,13.7,0,20.5,0.1c5.2,0.1,13-1.7,14.6,4.9c2,8.2,3.5,16.5,5.2,24.7c3.9,18.5,8.4,36.9,12.6,55.3
			c4.5,19.5,8.9,39,13.6,58.4c2,8.2-1.5,14.6-11.6,14.5c-29.6-0.3-59.1-0.1-88.7-0.1C208.8,551.1,208.8,551.2,208.8,551.3z"/>
		<path class="st14" d="M183.4,493c-10.8-0.1-20.2-9.5-21-20.4c-2-27.6,40.2-28.8,40.8-0.7c0.2,9.6-5.9,18.5-15.5,20.6
			C186.3,492.9,184.8,493.1,183.4,493z"/>
	</g>
</g>
</svg>
