<svg width="479" height="411" viewBox="0 0 479 411" fill="none" xmlns="http://www.w3.org/2000/svg">
<path d="M452 390H6V391H452V390Z" fill="#407BFF"/>
<path d="M363.398 239.2C363.831 237.198 364.21 235.178 364.551 233.14C364.671 232.448 364.8 231.766 364.911 231.074C364.994 230.566 365.104 230.068 365.178 229.561L400 222.948L399.585 193.321L364.579 187.676C364.505 187.224 364.394 186.753 364.311 186.338C364.053 184.945 363.767 183.571 363.462 182.169C363.158 180.767 362.854 179.402 362.54 178.009C362.439 177.576 362.356 177.133 362.245 176.69L391.763 157.108L379.882 129.971L345.429 138.337C345.152 137.904 344.848 137.498 344.562 137.065C344.184 136.483 343.778 135.912 343.39 135.34C342.228 133.624 341.047 131.936 339.82 130.294C339.801 130.257 339.776 130.223 339.747 130.193L359.717 100.861L338.501 80.2089L309.777 100.972C309.38 100.686 308.965 100.437 308.568 100.16C307.425 99.3729 306.272 98.6073 305.109 97.8633C303.947 97.1192 302.769 96.3844 301.576 95.6588C301.161 95.4098 300.765 95.133 300.35 94.8932L307.397 60.1194L279.77 49.3183L261.321 79.6093H261.202C259.2 79.1666 257.17 78.7977 255.141 78.4472C254.449 78.3272 253.767 78.1981 253.075 78.0874C252.568 78.0136 252.069 77.9029 251.562 77.8292L244.939 43L215.32 43.4243L209.693 78.4748C209.241 78.5486 208.77 78.6593 208.365 78.7423C206.962 79.0006 205.597 79.2865 204.177 79.5909C202.756 79.8953 201.409 80.1997 200.035 80.5133C199.592 80.624 199.113 80.707 198.707 80.8177L179.114 51.3014L151.949 63.1541L160.343 97.5589C159.909 97.8356 159.512 98.14 159.079 98.4167L157.345 99.5974C155.638 100.76 153.941 101.931 152.299 103.167L152.198 103.232L122.864 83.2712L102.22 104.486L122.966 133.255C122.689 133.652 122.44 134.076 122.163 134.473C121.379 135.616 120.613 136.76 119.866 137.922C119.119 139.085 118.381 140.265 117.662 141.455C117.413 141.87 117.136 142.267 116.896 142.691L82.1204 135.635L71.3002 163.233L101.602 181.68V181.809C101.169 183.811 100.8 185.831 100.449 187.869C100.329 188.561 100.2 189.244 100.089 189.935C100.016 190.443 99.9049 190.941 99.8311 191.448L65 198.062L65.4243 227.689L100.421 233.315C100.504 233.767 100.615 234.238 100.698 234.653C100.947 236.045 101.242 237.42 101.538 238.822C101.833 240.224 102.156 241.589 102.46 242.982C102.571 243.415 102.644 243.858 102.764 244.301L73.2466 263.883L85.109 291.038L119.534 282.681C119.811 283.115 120.115 283.52 120.392 283.945C120.78 284.535 121.176 285.107 121.573 285.679C122.735 287.394 123.907 289.082 125.133 290.733L125.207 290.826L105.246 320.157L126.462 340.81L155.214 320.019C155.611 320.305 156.026 320.554 156.422 320.822C157.566 321.615 158.722 322.383 159.891 323.128C161.059 323.872 162.234 324.606 163.414 325.332C163.829 325.581 164.226 325.858 164.641 326.098L157.594 360.871L185.248 371.682L203.697 341.391H203.817C205.828 341.833 207.848 342.202 209.887 342.553C210.569 342.673 211.261 342.802 211.953 342.913C212.46 342.986 212.949 343.097 213.456 343.171L220.079 378L249.708 377.576L255.353 342.636C255.796 342.562 256.23 342.451 256.682 342.368C258.074 342.11 259.449 341.824 260.86 341.52C262.272 341.215 263.628 340.911 265.011 340.597L266.339 340.293L285.923 369.809L313.079 357.957L304.713 323.506C305.146 323.229 305.552 322.925 305.976 322.648C306.567 322.26 307.139 321.855 307.711 321.458C309.426 320.305 311.114 319.124 312.756 317.907L312.858 317.833L342.191 337.793L362.844 316.579L342.007 287.754C342.283 287.358 342.532 286.942 342.809 286.546C343.596 285.396 344.365 284.24 345.115 283.078C345.862 281.915 346.6 280.744 347.311 279.554C347.56 279.139 347.836 278.742 348.086 278.318L382.861 285.374L393.718 257.777L363.37 239.329L363.398 239.2ZM339.82 221.324C339.516 224.34 339.129 227.329 338.584 230.271C338.16 232.522 337.579 234.726 337.016 236.949C336.74 238.075 336.518 239.228 336.195 240.334C335.504 242.76 334.646 245.122 333.779 247.492C333.456 248.415 333.188 249.337 332.856 250.195C331.989 252.381 331.011 254.493 329.978 256.651C329.48 257.703 329.056 258.782 328.511 259.806C327.589 261.577 326.565 263.265 325.569 264.981C324.785 266.318 324.047 267.692 323.207 268.993C322.368 270.293 321.436 271.52 320.542 272.784C319.389 274.407 318.272 276.058 317.036 277.608C316.326 278.53 315.524 279.351 314.786 280.227C313.264 282.026 311.742 283.834 310.109 285.531C309.454 286.205 308.744 286.813 308.07 287.468C306.225 289.248 304.454 291.019 302.536 292.661C301.613 293.408 300.691 294.082 299.768 294.81C297.979 296.231 296.208 297.679 294.326 298.998C291.9 300.695 289.354 302.272 286.753 303.776C286.338 304.016 285.96 304.302 285.545 304.542C282.365 306.294 279.066 307.924 275.647 309.43C272.28 310.897 268.867 312.197 265.445 313.286C264.624 313.544 263.757 313.719 262.926 313.968C260.381 314.725 257.835 315.453 255.27 316.007C252.706 316.56 250.022 316.929 247.365 317.326C246.535 317.446 245.705 317.63 244.865 317.732C237.6 318.565 230.27 318.667 222.985 318.036C222.496 317.99 222.063 317.888 221.528 317.842C218.548 317.538 215.596 317.16 212.691 316.615C210.431 316.2 208.208 315.61 205.975 315.047C204.859 314.761 203.725 314.549 202.627 314.236C200.192 313.535 197.803 312.668 195.423 311.801C194.546 311.478 193.643 311.22 192.766 310.878C190.58 310.011 188.449 309.033 186.309 307.991C185.276 307.493 184.197 307.069 183.182 306.534C181.411 305.611 179.705 304.588 177.989 303.582C176.651 302.807 175.286 302.069 173.995 301.239C172.703 300.409 171.449 299.45 170.176 298.555C168.562 297.411 166.929 296.295 165.379 295.069C164.457 294.34 163.608 293.537 162.723 292.781C160.933 291.268 159.144 289.765 157.465 288.169C156.773 287.505 156.155 286.776 155.481 286.094C153.72 284.295 151.958 282.497 150.325 280.56C149.569 279.637 148.895 278.715 148.176 277.792C146.746 276.003 145.307 274.232 143.988 272.36C142.291 269.924 140.704 267.369 139.191 264.759C138.961 264.353 138.675 263.975 138.444 263.569C134.856 257.197 131.92 250.479 129.681 243.517C129.423 242.714 129.257 241.884 129.017 241.082C128.251 238.508 127.523 235.925 126.96 233.343C126.397 230.76 126.037 228.094 125.632 225.429C125.521 224.599 125.327 223.778 125.235 222.948C124.816 219.334 124.579 215.701 124.525 212.063C124.475 208.374 124.611 204.706 124.93 201.059C124.93 200.607 125.06 200.137 125.106 199.713C125.41 196.697 125.798 193.708 126.342 190.766C126.766 188.515 127.347 186.311 127.91 184.088C128.196 182.962 128.408 181.809 128.731 180.702C129.432 178.277 130.281 175.915 131.148 173.545C131.48 172.622 131.747 171.7 132.07 170.842C132.928 168.665 133.915 166.553 134.939 164.441C135.437 163.38 135.861 162.301 136.415 161.259C137.337 159.497 138.352 157.8 139.357 156.084C140.141 154.747 140.87 153.381 141.71 152.09C142.549 150.799 143.49 149.544 144.394 148.271C145.538 146.657 146.654 145.015 147.881 143.466C148.6 142.543 149.393 141.723 150.141 140.846C151.663 139.002 153.175 137.24 154.817 135.543C155.463 134.869 156.183 134.251 156.856 133.596C158.701 131.825 160.472 130.054 162.39 128.413C163.313 127.665 164.235 126.983 165.158 126.263C166.938 124.834 168.709 123.395 170.582 122.076C173.026 120.379 175.572 118.792 178.183 117.279C178.588 117.049 178.957 116.763 179.372 116.532C182.569 114.733 185.854 113.096 189.215 111.625C192.591 110.156 195.995 108.87 199.426 107.77C200.229 107.511 201.068 107.345 201.88 107.106C204.444 106.34 207.018 105.611 209.601 105.049C212.183 104.486 214.785 104.126 217.423 103.739C218.281 103.619 219.139 103.425 219.996 103.324C227.261 102.49 234.591 102.388 241.877 103.019C242.375 103.019 242.864 103.167 243.362 103.222C246.332 103.517 249.274 103.896 252.171 104.431C254.431 104.855 256.645 105.445 258.868 106.008C259.993 106.285 261.137 106.506 262.244 106.82C264.67 107.521 267.05 108.378 269.42 109.245C270.343 109.568 271.219 109.836 272.095 110.168C274.282 111.035 276.412 112.013 278.552 113.055C279.595 113.544 280.665 113.977 281.689 114.512C283.46 115.435 285.157 116.459 286.873 117.455C288.201 118.239 289.576 118.967 290.867 119.807C292.158 120.646 293.413 121.596 294.686 122.491C296.3 123.635 297.942 124.751 299.482 125.978C300.405 126.706 301.254 127.509 302.148 128.265C303.929 129.778 305.718 131.281 307.406 132.877C308.089 133.541 308.716 134.27 309.38 134.952C311.151 136.751 312.904 138.55 314.546 140.487C315.293 141.409 315.966 142.331 316.695 143.254C318.116 145.043 319.564 146.814 320.874 148.687C322.571 151.122 324.158 153.677 325.67 156.287C325.91 156.693 326.187 157.071 326.418 157.477C328.218 160.676 329.856 163.964 331.325 167.328C332.806 170.659 334.114 174.064 335.245 177.529C335.503 178.332 335.679 179.171 335.919 179.974C336.675 182.547 337.413 185.121 337.976 187.703C338.538 190.286 338.898 192.933 339.285 195.58C339.405 196.42 339.599 197.259 339.701 198.099C340.106 201.677 340.34 205.305 340.402 208.983C340.455 212.655 340.323 216.328 340.005 219.987C339.959 220.429 339.867 220.881 339.82 221.324ZM307.425 218.059C307.212 220.162 306.945 222.256 306.567 224.303C306.272 225.872 305.866 227.421 305.469 228.971C305.275 229.755 305.119 230.557 304.897 231.332C304.408 233.02 303.809 234.68 303.209 236.331C302.979 236.949 302.794 237.595 302.545 238.176C301.945 239.707 301.235 241.183 300.534 242.668C300.193 243.397 299.888 244.153 299.519 244.863C298.883 246.099 298.163 247.28 297.462 248.479C296.918 249.401 296.402 250.37 295.811 251.246C295.221 252.123 294.575 253.008 293.966 253.884C293.155 255.019 292.38 256.172 291.513 257.26C291.015 257.887 290.461 258.478 289.945 259.105C288.875 260.359 287.823 261.623 286.679 262.794C286.218 263.265 285.757 263.717 285.259 264.15C283.995 265.396 282.731 266.622 281.384 267.775C280.766 268.301 280.093 268.771 279.466 269.27C278.22 270.275 276.975 271.28 275.665 272.194C273.968 273.383 272.188 274.481 270.38 275.542C270.085 275.708 269.817 275.902 269.531 276.068C267.298 277.326 265.001 278.468 262.65 279.49C260.325 280.511 257.948 281.41 255.529 282.183C254.957 282.367 254.357 282.497 253.776 282.663C251.996 283.188 250.215 283.696 248.426 284.092C246.636 284.489 244.736 284.756 242.891 285.015C242.31 285.088 241.729 285.227 241.148 285.291C238.648 285.577 236.121 285.743 233.547 285.78C230.986 285.818 228.424 285.726 225.872 285.504C225.531 285.504 225.19 285.402 224.848 285.365C222.773 285.162 220.707 284.895 218.687 284.517C217.1 284.221 215.55 283.816 213.991 283.419C213.217 283.216 212.423 283.068 211.658 282.847C209.951 282.358 208.291 281.759 206.63 281.15C206.012 280.928 205.376 280.744 204.786 280.504C203.254 279.895 201.769 279.185 200.284 278.484C199.555 278.143 198.808 277.839 198.089 277.47C196.853 276.833 195.672 276.114 194.473 275.413C193.55 274.859 192.582 274.352 191.705 273.771C190.829 273.19 189.934 272.526 189.04 271.926C187.914 271.124 186.77 270.349 185.691 269.491C185.055 268.984 184.455 268.421 183.846 267.895C182.601 266.835 181.346 265.783 180.157 264.648C179.677 264.187 179.234 263.68 178.773 263.21C177.546 261.955 176.319 260.691 175.175 259.354C174.65 258.736 174.179 258.072 173.672 257.435C172.676 256.19 171.67 254.954 170.748 253.644C169.567 251.938 168.46 250.158 167.399 248.341C167.233 248.055 167.04 247.787 166.883 247.501C165.637 245.297 164.494 243 163.451 240.63C162.409 238.259 161.533 235.898 160.758 233.5C160.583 232.946 160.463 232.365 160.297 231.802C159.762 230.004 159.254 228.205 158.858 226.397C158.461 224.589 158.193 222.708 157.935 220.863C157.852 220.291 157.723 219.71 157.658 219.138C157.372 216.638 157.197 214.102 157.16 211.528C157.126 208.967 157.221 206.406 157.446 203.854C157.446 203.541 157.538 203.227 157.566 202.932C157.778 200.829 158.055 198.735 158.433 196.687C158.728 195.11 159.134 193.57 159.522 192.02C159.725 191.236 159.872 190.434 160.094 189.659C160.583 187.971 161.182 186.311 161.782 184.659C162.012 184.041 162.197 183.396 162.446 182.815C163.045 181.302 163.756 179.826 164.448 178.35C164.798 177.612 165.112 176.856 165.481 176.127C166.108 174.901 166.837 173.711 167.538 172.521C168.082 171.599 168.589 170.63 169.18 169.754C169.77 168.878 170.425 167.974 171.024 167.088C171.827 165.963 172.602 164.81 173.46 163.731C173.958 163.103 174.511 162.513 175.037 161.886C176.098 160.631 177.159 159.368 178.302 158.196C178.754 157.726 179.225 157.274 179.723 156.831C180.987 155.595 182.25 154.368 183.588 153.215C184.206 152.69 184.879 152.219 185.516 151.712C186.761 150.716 187.997 149.71 189.307 148.797C191.014 147.607 192.794 146.501 194.611 145.44C194.897 145.274 195.155 145.08 195.441 144.923C197.675 143.665 199.972 142.523 202.323 141.501C204.648 140.481 207.025 139.582 209.444 138.808C210.006 138.623 210.597 138.503 211.16 138.337C212.949 137.802 214.748 137.295 216.556 136.899C218.364 136.502 220.172 136.244 222.007 135.976C222.607 135.893 223.206 135.755 223.852 135.69C226.343 135.404 228.879 135.238 231.444 135.201C234.005 135.163 236.567 135.256 239.118 135.478C239.469 135.478 239.81 135.579 240.161 135.616C242.236 135.829 244.284 136.087 246.304 136.465C247.882 136.76 249.431 137.166 250.99 137.563C251.765 137.756 252.568 137.913 253.342 138.134C255.04 138.623 256.7 139.223 258.351 139.822C258.969 140.053 259.606 140.238 260.196 140.477C261.718 141.086 263.203 141.796 264.688 142.497C265.417 142.839 266.173 143.143 266.884 143.512C268.12 144.148 269.3 144.868 270.5 145.569C271.422 146.113 272.391 146.63 273.267 147.211C274.143 147.792 275.047 148.456 275.933 149.056C277.058 149.858 278.202 150.633 279.281 151.491C279.918 151.998 280.517 152.561 281.126 153.086C282.371 154.147 283.626 155.199 284.816 156.333C285.295 156.794 285.738 157.255 286.199 157.772C287.436 159.026 288.662 160.29 289.806 161.628C290.323 162.246 290.802 162.91 291.301 163.546C292.297 164.791 293.311 166.027 294.225 167.337C295.415 169.044 296.512 170.824 297.573 172.641C297.739 172.927 297.933 173.194 298.099 173.48C300.613 177.929 302.671 182.62 304.242 187.482C304.417 188.035 304.537 188.616 304.703 189.188C305.238 190.978 305.755 192.776 306.142 194.584C306.53 196.392 306.807 198.228 307.065 200.119C307.148 200.7 307.277 201.29 307.351 201.88C307.637 204.371 307.803 206.907 307.84 209.472C307.878 212.036 307.785 214.6 307.563 217.155C307.526 217.432 307.462 217.745 307.425 218.059Z" fill="#4951C8"/>
<path d="M65.949 225.15C61.5594 234.034 49.7637 230.203 48.2604 230.042C40.5135 228.97 25.2702 217.914 25.2702 217.914C21.1713 215.357 23.1055 211.911 24.4284 212.437C25.0498 212.75 22.1635 211.082 21.5822 210.719C16.5712 207.343 19.9987 203.998 22.2937 204.786C17.9944 202.856 19.7782 197.954 22.6445 198.985C19.7181 197.257 21.5421 192.851 26.2524 194.579C28.9483 195.317 49.914 204.968 49.914 204.968C50.6957 203.038 42.4678 199.44 43.8408 194.448C43.9507 194.248 44.1345 194.099 44.3521 194.035C44.5697 193.971 44.8037 193.996 45.0033 194.104C52.2128 198.103 58.3915 203.752 63.0427 210.597C65.7285 214.215 68.5948 219.814 65.949 225.15Z" fill="#FCA886"/>
<path d="M24.9399 212.322L24.6279 212.996L36.9536 218.699L37.2656 218.025L24.9399 212.322Z" fill="black"/>
<path d="M22.7316 204.681L22.3945 205.343L38.4525 213.518L38.7896 212.856L22.7316 204.681Z" fill="black"/>
<path d="M23.1439 198.876L22.8223 199.546L40.7981 208.178L41.1197 207.508L23.1439 198.876Z" fill="black"/>
<path d="M36.7115 221L36 220.863C36.7212 216.435 38.4712 211.249 41.3558 205L42 205.347C39.1442 211.533 37.4135 216.645 36.7115 221Z" fill="black"/>
<path d="M53.5091 219C47.0313 213.445 49.428 205.088 49.4569 205L50.1499 205.216C50.1499 205.294 47.8687 213.2 54 218.432L53.5091 219Z" fill="black"/>
<path d="M103.69 252.364C91.4533 259.772 88.744 272.982 100.712 282.562C105.205 285.992 110.851 287.526 116.452 286.84H116.819C117.775 286.725 118.723 286.552 119.657 286.321L188.501 266.99C192.718 266.47 196.755 264.956 200.28 262.573C210.304 255.893 214.779 245.934 210.204 235.376C205.431 224.409 195.318 221.418 183.409 223.731H183.211C182.028 223.969 180.861 224.282 179.718 224.668L111.321 249.353L110.438 249.573C108.054 250.132 105.775 251.074 103.69 252.364Z" fill="#2B3459"/>
<path d="M55.9146 238L73 218.106L66.0352 212C64.6382 217.739 52.2764 230.602 49 231.884L55.9146 238Z" fill="#2B3459"/>
<path d="M118.502 246.367C101.502 233.983 79.9477 213.717 72.2447 217.452L56.1852 237.295C53.3832 244.755 83.0368 266.043 100.156 281.375C120.423 297.473 147.097 268.077 118.502 246.367Z" fill="#2B3459"/>
<path d="M56.1535 238L56 237.257C60.6427 236.147 70.7146 223.657 71.2806 217L72 217.061C71.3957 224.115 61.1031 236.84 56.1535 238Z" fill="black"/>
<path d="M115.662 253L115 252.658L118.34 247.182C118.376 247.117 118.435 247.065 118.506 247.034C118.578 247.002 118.659 246.992 118.737 247.006C118.815 247.019 118.886 247.054 118.941 247.105C118.996 247.156 119.031 247.222 119.043 247.293L120 252.787L119.246 252.898L118.462 248.403L115.662 253Z" fill="black"/>
<path d="M37.5497 219.055C37.8286 213.068 49.0932 210.154 50.9059 199.097C51.4138 195.106 49.7007 193 49.7007 193H20.2993C20.2993 193 18.5862 195.086 19.0941 199.097C20.8969 210.124 32.1714 213.068 32.4503 219.055C32.7292 225.042 15.3094 228.166 19.7814 245H49.9099C54.3918 228.166 37.2708 225.002 37.5497 219.055Z" fill="#D8D8D8"/>
<path d="M51 189H18V193H51V189Z" fill="#00FFB6"/>
<path d="M53 187H17V189H53V187Z" fill="#00FFB6"/>
<path d="M18 248H51V244H18V248Z" fill="#00FFB6"/>
<path d="M17 251H53V248H17V251Z" fill="#00FFB6"/>
<path d="M51 248H18V249H51V248Z" fill="black"/>
<path d="M51 189H18V190H51V189Z" fill="black"/>
<path d="M48.7811 236.882L45.4549 235.412C42.87 234.291 40.6312 232.533 38.9608 230.31C37.2904 228.087 36.2464 225.478 35.9324 222.742C35.7682 221.432 35.6835 220.114 35.6789 218.795C35.8411 215.618 38.4677 213.289 41.2463 210.832C42.2604 209.944 43.2745 209.016 44.2886 208H25.0206C26.0347 208.987 27.0488 209.974 28.0629 210.832C30.8416 213.289 33.4681 215.618 33.6202 218.795C33.6205 220.016 33.5358 221.236 33.3667 222.446C33.029 225.256 31.9428 227.931 30.2156 230.207C28.4885 232.483 26.1803 234.281 23.5197 235.422L20.2442 236.853C19.8736 238.891 19.9253 240.981 20.3963 243H48.5884C49.0622 240.992 49.1277 238.914 48.7811 236.882Z" fill="#3281FF"/>
<path d="M40.804 205.294L50.6794 207.992C52.2607 208.247 56 202.498 56 202.498C54.6957 201.241 52.9847 200.477 51.1667 200.34L39.909 199.045C38.0493 198.878 37.3829 199.182 37.1542 199.869C36.9255 200.556 36.3586 204.068 40.804 205.294Z" fill="#FCA886"/>
<path d="M39.3037 201C38.5222 200.981 37.7467 200.827 37 200.541L37.2066 199.624C40.6674 200.834 41.2665 199.013 41.2665 199L42 199.293C41.9793 199.395 41.5248 201 39.3037 201Z" fill="black"/>
<path d="M401.027 225.121C405.334 234.049 416.883 230.199 418.355 230.037C425.94 228.96 440.854 217.849 440.854 217.849C444.867 215.279 442.984 211.815 441.679 212.344C441.07 212.659 443.896 210.983 444.475 210.617C449.381 207.225 446.016 203.863 443.769 204.655C447.988 202.715 446.231 197.789 443.425 198.825C446.29 197.088 444.504 192.66 439.893 194.396C437.253 195.138 416.736 204.838 416.736 204.838C415.971 202.898 412.066 200.684 409.318 203.619C407.339 205.761 405.525 208.06 403.892 210.495C401.253 214.131 398.436 219.758 401.027 225.121Z" fill="#FCA886"/>
<path d="M441.461 212.349L429.131 218.044L429.442 218.718L441.772 213.024L441.461 212.349Z" fill="black"/>
<path d="M443.664 204.696L427.604 212.865L427.94 213.528L444.001 205.358L443.664 204.696Z" fill="black"/>
<path d="M443.25 198.82L425.273 207.449L425.594 208.119L443.572 199.49L443.25 198.82Z" fill="black"/>
<path d="M429.287 221C428.584 216.655 426.86 211.533 424 205.347L424.645 205C427.535 211.249 429.287 216.435 430 220.863L429.287 221Z" fill="black"/>
<path d="M412.465 219L412 218.432C418.152 213.19 415.875 205.294 415.875 205.216L416.563 205C416.563 205.088 418.975 213.445 412.465 219Z" fill="black"/>
<path d="M363.307 252.365C375.543 259.773 378.262 272.983 366.284 282.564C361.797 285.989 356.158 287.524 350.564 286.841H350.207C349.248 286.727 348.297 286.553 347.359 286.323L278.517 266.991C274.293 266.472 270.25 264.959 266.718 262.574C256.705 255.894 252.219 245.934 256.794 235.376C261.577 224.409 271.68 221.418 283.588 223.731H283.797C284.98 223.969 286.146 224.282 287.29 224.668L355.675 249.354L356.568 249.573C358.95 250.131 361.226 251.073 363.307 252.365Z" fill="#2B3459"/>
<path d="M410.042 238L393 218.106L399.958 212C401.355 217.739 413.722 230.602 417 231.884L410.042 238Z" fill="#2B3459"/>
<path d="M348.513 246.358C365.516 233.978 387.052 213.718 394.752 217.452L410.815 237.329C413.616 244.786 383.964 266.068 366.862 281.395C346.534 297.45 319.911 268.062 348.513 246.358Z" fill="#2B3459"/>
<path d="M410.827 238C405.578 236.84 394.683 224.115 394 217.061L394.764 217C395.356 223.657 406.057 236.147 411 237.257L410.827 238Z" fill="black"/>
<path d="M351.328 253L348.527 248.396L347.754 252.871L347 252.761L347.947 247.291C347.96 247.221 347.996 247.156 348.051 247.105C348.105 247.054 348.176 247.02 348.253 247.006C348.332 246.993 348.414 247.002 348.487 247.034C348.56 247.065 348.621 247.117 348.66 247.181L352 252.632L351.328 253Z" fill="black"/>
<path d="M424.701 203C422.485 203 422.031 201.382 422 201.293L422.732 201C422.732 201 423.33 202.834 426.794 201.624L427 202.554C426.253 202.83 425.48 202.98 424.701 203Z" fill="black"/>
<path d="M370.826 338.68C365.244 346.829 374.155 355.432 375.052 356.664C379.687 362.996 396.522 371.155 396.522 371.155C400.688 373.548 402.742 370.195 401.655 369.266C401.087 368.872 403.918 370.619 404.506 370.963C409.828 373.79 411.074 369.135 409.3 367.479C413.028 370.357 416.407 366.469 414.144 364.389C417.035 366.146 419.985 362.37 416.227 359.088C414.304 357.068 395.934 343.174 395.934 343.174C397.24 341.548 404.277 347.102 407.895 343.487C408.015 343.294 408.055 343.06 408.006 342.837C407.958 342.614 407.825 342.419 407.636 342.295C400.732 337.852 392.898 335.106 384.76 334.278C380.395 333.621 374.185 333.783 370.826 338.68Z" fill="#FCA886"/>
<path d="M390.272 360.758L389.831 361.355L400.755 369.424L401.196 368.827L390.272 360.758Z" fill="black"/>
<path d="M394.06 356.899L393.642 357.513L408.527 367.667L408.946 367.054L394.06 356.899Z" fill="black"/>
<path d="M395.518 352.466L395.087 353.068L411.24 364.634L411.67 364.032L395.518 352.466Z" fill="black"/>
<path d="M388.459 363L388 362.401C391.274 359.683 394.668 355.632 398.391 350L399 350.434C395.247 356.138 391.793 360.231 388.459 363Z" fill="black"/>
<path d="M385.828 348C384.175 347.994 382.537 347.662 381 347.022L381.279 346.261C389.253 349.522 395.391 343.065 395.453 343L396 343.576C393.232 346.303 389.616 347.875 385.828 348Z" fill="black"/>
<path d="M328.467 315.329C331.197 329.306 323.283 340.075 308.256 337.66C302.727 336.615 297.822 333.455 294.584 328.85L294.376 328.554C293.818 327.771 293.31 326.954 292.853 326.109L261.087 262.283C258.616 258.822 257.005 254.822 256.388 250.613C254.607 238.735 258.94 228.837 269.802 225.184C281.06 221.423 289.984 226.936 296.286 237.28L296.394 237.458C297.013 238.491 297.565 239.562 298.047 240.665L325.578 307.707L326.014 308.519C327.19 310.643 328.019 312.942 328.467 315.329Z" fill="#2B3459"/>
<path d="M364 353.862L372.698 330L381 333.138C376.864 337.003 371.867 353.587 372.302 357L364 353.862Z" fill="#2B3459"/>
<path d="M326.315 303.303C345.399 312.214 373.605 321.312 374 329.876L364.166 353.636C358.938 359.705 325.939 343.994 304.217 336.41C280.349 326.351 293.434 288.76 326.315 303.303Z" fill="#2B3459"/>
<path d="M364.234 354C362.74 349.005 368.665 333.813 374.57 330L375 330.611C369.423 334.217 363.569 349.094 364.971 353.803L364.234 354Z" fill="black"/>
<path d="M319.056 308L318.468 307.627L321.775 302.988L317.227 304.417L317 303.787L322.542 302.013C322.611 301.994 322.685 301.996 322.753 302.017C322.822 302.038 322.882 302.078 322.926 302.132C322.969 302.185 322.995 302.25 322.999 302.317C323.004 302.385 322.986 302.451 322.949 302.509L319.056 308Z" fill="black"/>
<path d="M305.482 260.748L304.811 261.065L312.015 276.287L312.687 275.969L305.482 260.748Z" fill="black"/>
<path d="M451.781 360.359L398.212 342.383C395.852 341.591 393.297 342.862 392.505 345.222L379.014 385.427C378.222 387.787 379.493 390.342 381.853 391.134L435.421 409.11C437.781 409.902 440.337 408.63 441.128 406.27L454.62 366.066C455.412 363.706 454.141 361.151 451.781 360.359Z" fill="#3143C3"/>
<path d="M459.337 352L397.222 331.157L392.482 345.281L454.597 366.125L459.337 352Z" fill="#00FFB6"/>
<path d="M403.307 337.911C403.068 337.841 402.847 337.73 402.657 337.585C402.467 337.439 402.311 337.263 402.199 337.065C402.087 336.867 402.021 336.652 402.004 336.431C401.987 336.211 402.021 335.99 402.102 335.781L404.26 330.153C404.339 329.943 404.465 329.748 404.63 329.581C404.795 329.413 404.997 329.276 405.223 329.177C405.449 329.078 405.696 329.019 405.948 329.004C406.2 328.989 406.453 329.017 406.693 329.088C406.932 329.158 407.153 329.269 407.343 329.414C407.533 329.56 407.689 329.736 407.801 329.934C407.913 330.132 407.979 330.347 407.996 330.568C408.013 330.788 407.979 331.009 407.898 331.218L405.74 336.856C405.66 337.065 405.533 337.259 405.368 337.425C405.202 337.592 405 337.728 404.774 337.826C404.548 337.924 404.302 337.982 404.05 337.996C403.798 338.011 403.546 337.982 403.307 337.911Z" fill="white"/>
<path d="M415.092 341.915C414.691 341.768 414.36 341.462 414.17 341.062C413.981 340.663 413.948 340.201 414.079 339.776L415.885 334.152C415.951 333.942 416.056 333.748 416.194 333.58C416.331 333.413 416.499 333.276 416.688 333.177C416.876 333.078 417.081 333.019 417.291 333.004C417.501 332.989 417.712 333.017 417.911 333.088C418.314 333.232 418.646 333.538 418.835 333.939C419.023 334.34 419.052 334.803 418.915 335.227L417.118 340.85C416.983 341.273 416.694 341.622 416.314 341.822C415.935 342.021 415.495 342.055 415.092 341.915Z" fill="white"/>
<path d="M427.092 345.912C426.691 345.768 426.36 345.464 426.171 345.065C425.981 344.667 425.948 344.206 426.079 343.783L427.876 338.148C428.015 337.726 428.306 337.378 428.687 337.179C429.067 336.98 429.507 336.945 429.911 337.083C430.314 337.227 430.646 337.533 430.835 337.935C431.023 338.336 431.052 338.799 430.915 339.223L429.118 344.847C429.052 345.057 428.947 345.252 428.81 345.419C428.672 345.587 428.504 345.724 428.316 345.823C428.128 345.922 427.922 345.981 427.712 345.996C427.502 346.011 427.291 345.983 427.092 345.912Z" fill="white"/>
<path d="M438.31 349.915C437.829 349.77 437.432 349.466 437.205 349.067C436.977 348.669 436.938 348.208 437.094 347.784L439.251 342.145C439.415 341.721 439.765 341.372 440.223 341.174C440.681 340.976 441.21 340.946 441.694 341.089C441.933 341.16 442.154 341.271 442.344 341.416C442.534 341.561 442.689 341.738 442.801 341.936C442.913 342.134 442.979 342.349 442.996 342.57C443.012 342.79 442.979 343.011 442.898 343.22L440.742 348.849C440.58 349.272 440.233 349.622 439.777 349.822C439.321 350.021 438.794 350.055 438.31 349.915Z" fill="white"/>
<path d="M450.092 353.911C449.691 353.767 449.36 353.462 449.171 353.064C448.981 352.665 448.948 352.204 449.079 351.78L450.876 346.142C451.015 345.72 451.307 345.373 451.688 345.175C452.069 344.978 452.509 344.946 452.912 345.087C453.111 345.157 453.295 345.268 453.453 345.413C453.611 345.558 453.741 345.735 453.834 345.933C453.927 346.131 453.983 346.346 453.996 346.567C454.01 346.787 453.983 347.008 453.915 347.217L452.118 352.856C452.051 353.065 451.946 353.259 451.808 353.425C451.67 353.591 451.502 353.728 451.313 353.826C451.125 353.924 450.92 353.982 450.711 353.996C450.501 354.011 450.291 353.982 450.092 353.911Z" fill="white"/>
<path d="M411.649 357.292L410.228 361.528L414.464 362.949L415.885 358.713L411.649 357.292Z" fill="#F2E5DC"/>
<path d="M419.797 360.022L418.375 364.257L422.611 365.678L424.032 361.443L419.797 360.022Z" fill="#F2E5DC"/>
<path d="M427.955 362.751L426.533 366.987L430.769 368.408L432.19 364.173L427.955 362.751Z" fill="#F2E5DC"/>
<path d="M436.099 365.5L434.677 369.736L438.913 371.157L440.334 366.922L436.099 365.5Z" fill="#3281FF"/>
<path d="M444.246 368.22L442.825 372.456L447.06 373.877L448.482 369.642L444.246 368.22Z" fill="#3281FF"/>
<path d="M385.104 382.351L383.683 386.587L387.918 388.008L389.339 383.773L385.104 382.351Z" fill="#F2E5DC"/>
<path d="M393.248 385.1L391.827 389.336L396.063 390.757L397.484 386.521L393.248 385.1Z" fill="#F2E5DC"/>
<path d="M401.406 387.83L399.984 392.065L404.22 393.487L405.641 389.251L401.406 387.83Z" fill="#F2E5DC"/>
<path d="M409.553 390.56L408.132 394.795L412.367 396.217L413.789 391.981L409.553 390.56Z" fill="#F2E5DC"/>
<path d="M392.788 359.466L391.366 363.701L395.602 365.123L397.023 360.887L392.788 359.466Z" fill="#F2E5DC"/>
<path d="M400.925 362.176L399.504 366.411L403.739 367.832L405.161 363.597L400.925 362.176Z" fill="#F2E5DC"/>
<path d="M409.082 364.925L407.661 369.161L411.897 370.582L413.318 366.346L409.082 364.925Z" fill="#F2E5DC"/>
<path d="M417.227 367.654L415.806 371.89L420.041 373.311L421.462 369.076L417.227 367.654Z" fill="#F2E5DC"/>
<path d="M425.385 370.384L423.963 374.62L428.199 376.041L429.62 371.806L425.385 370.384Z" fill="#F2E5DC"/>
<path d="M433.532 373.124L432.111 377.359L436.346 378.781L437.768 374.545L433.532 373.124Z" fill="#3281FF"/>
<path d="M441.686 375.863L440.265 380.098L444.501 381.52L445.922 377.284L441.686 375.863Z" fill="#3281FF"/>
<path d="M390.221 367.082L388.799 371.318L393.035 372.739L394.456 368.503L390.221 367.082Z" fill="#F2E5DC"/>
<path d="M398.375 369.831L396.954 374.067L401.189 375.488L402.61 371.253L398.375 369.831Z" fill="#F2E5DC"/>
<path d="M406.522 372.561L405.101 376.797L409.337 378.218L410.758 373.982L406.522 372.561Z" fill="#F2E5DC"/>
<path d="M414.68 375.301L413.259 379.536L417.494 380.957L418.916 376.722L414.68 375.301Z" fill="#F2E5DC"/>
<path d="M422.834 378.04L421.413 382.275L425.649 383.696L427.07 379.461L422.834 378.04Z" fill="#F2E5DC"/>
<path d="M430.982 380.77L429.561 385.005L433.796 386.426L435.217 382.191L430.982 380.77Z" fill="#3281FF"/>
<path d="M439.129 383.499L437.708 387.735L441.944 389.156L443.365 384.921L439.129 383.499Z" fill="#3281FF"/>
<path d="M387.67 374.738L386.249 378.974L390.485 380.395L391.906 376.159L387.67 374.738Z" fill="#F2E5DC"/>
<path d="M395.818 377.458L394.396 381.693L398.632 383.114L400.053 378.879L395.818 377.458Z" fill="#F2E5DC"/>
<path d="M403.975 380.187L402.554 384.423L406.789 385.844L408.211 381.609L403.975 380.187Z" fill="#F2E5DC"/>
<path d="M412.12 382.936L410.698 387.172L414.934 388.593L416.355 384.358L412.12 382.936Z" fill="#F2E5DC"/>
<path d="M420.267 385.656L418.846 389.892L423.081 391.313L424.503 387.078L420.267 385.656Z" fill="#F2E5DC"/>
<path d="M428.425 388.396L427.003 392.631L431.239 394.053L432.66 389.817L428.425 388.396Z" fill="#3281FF"/>
<path d="M436.569 391.145L435.148 395.381L439.383 396.802L440.805 392.566L436.569 391.145Z" fill="#3281FF"/>
<path d="M410.079 368.99H409.985C409.933 368.973 409.885 368.943 409.845 368.902C409.804 368.861 409.772 368.81 409.75 368.753L409 366.602L409.657 366.301L410.238 367.99L413.568 365L414 365.635L410.295 368.958C410.229 368.999 410.152 369.011 410.079 368.99Z" fill="black"/>
<path d="M397.079 381.997H396.985C396.932 381.979 396.883 381.948 396.842 381.905C396.802 381.862 396.77 381.809 396.75 381.75L396 379.601L396.657 379.3L397.238 380.987L400.568 378L401 378.634L397.295 381.954C397.228 381.992 397.153 382.007 397.079 381.997Z" fill="black"/>
<path d="M413.303 386.999H413.191C413.127 386.982 413.069 386.95 413.02 386.907C412.971 386.864 412.934 386.811 412.91 386.751L412 384.595L412.786 384.304L413.483 385.997L417.483 383L418 383.636L413.506 386.967C413.442 386.992 413.372 387.003 413.303 386.999Z" fill="black"/>
<path d="M429.079 366.991H428.985C428.932 366.977 428.883 366.948 428.842 366.907C428.801 366.866 428.769 366.813 428.75 366.755L428 364.603L428.647 364.302L429.229 365.991L432.568 363L433 363.635L429.295 366.959C429.228 366.998 429.152 367.01 429.079 366.991Z" fill="black"/>
<path d="M399.055 350.853L390.39 344.855C389.141 343.763 391.291 337 391.291 337C393.163 337.191 394.907 338.032 396.218 339.377L404.667 347.395C406.029 348.751 406.214 349.435 405.814 350.118C405.415 350.802 402.977 353.515 399.055 350.853Z" fill="#FCA886"/>
<path d="M404.567 350C401.032 347.784 402.16 346.074 402.21 346L402.855 346.368C402.855 346.368 402.11 347.618 405 349.439L404.567 350Z" fill="black"/>
<path d="M135.417 131.627C128.878 138.923 118.561 132.196 117.175 131.627C110.028 128.563 98.3054 114.012 98.3054 114.012C95.0459 110.489 97.7971 107.724 98.9334 108.583C99.4518 109.042 97.1192 106.686 96.6507 106.187C92.6635 101.646 96.8999 99.3706 98.8936 100.728C95.2751 97.7338 98.2755 93.562 100.748 95.2986C98.3952 92.8833 101.306 89.1606 105.363 92.0549C107.755 93.4722 125.299 108.213 125.299 108.213C126.555 106.576 119.597 100.977 122.229 96.5861C122.39 96.427 122.606 96.3377 122.832 96.3377C123.058 96.3377 123.275 96.427 123.435 96.5861C129.291 102.303 133.729 109.313 136.394 117.056C138.068 121.158 139.324 127.246 135.417 131.627Z" fill="#FCA886"/>
<path d="M99.4213 108.856L98.9414 109.423L109.309 118.197L109.788 117.63L99.4213 108.856Z" fill="black"/>
<path d="M99.3349 100.906L98.834 101.455L112.142 113.603L112.643 113.054L99.3349 100.906Z" fill="black"/>
<path d="M101.286 95.4237L100.798 95.9839L115.834 109.082L116.322 108.522L101.286 95.4237Z" fill="black"/>
<path d="M108.685 120L108 119.689C109.843 115.942 112.935 111.786 117.436 107L118 107.495C113.549 112.223 110.497 116.32 108.685 120Z" fill="black"/>
<path d="M125.364 123C120.233 115.692 125.046 108.071 125.097 108L125.743 108.403C125.743 108.474 121.187 115.681 126 122.577L125.364 123Z" fill="black"/>
<path d="M128.702 184.446C115.283 179.875 103.588 186.291 104.011 201.562C104.317 207.194 106.789 212.483 110.902 216.309L111.168 216.556C111.863 217.218 112.6 217.834 113.374 218.401L172.078 258.474C175.153 261.374 178.863 263.504 182.907 264.692C194.366 268.034 204.733 265.059 209.744 254.775C214.952 244.085 210.728 234.486 201.336 226.84L201.169 226.721C200.234 225.962 199.247 225.269 198.216 224.648L135.79 188.344L135.062 187.798C133.13 186.351 130.984 185.22 128.702 184.446Z" fill="#2B3459"/>
<path d="M112 138.531L137.506 140L138 130.469C132.759 132.937 115.455 130.875 112.494 129L112 138.531Z" fill="#2B3459"/>
<path d="M142.912 192.367C142.328 171.459 145.302 142.154 137.467 138.412L111.28 138C103.486 140.367 104.746 176.654 103.002 199.458C102.689 225.188 143.124 228.134 142.912 192.367Z" fill="#2B3459"/>
<path d="M124.744 141C118.986 141 113.189 139.762 111 137.665L111.473 137C115.25 140.633 131.193 141.516 136.606 137.447L137 138.169C134.377 140.129 129.576 141 124.744 141Z" fill="black"/>
<path d="M141.088 195L140.521 194.673L141.88 192.821C140.341 193.228 138.504 193.731 138.333 193.795L138 193.276C138 193.276 138.144 193.188 142.564 192.014C142.63 191.995 142.701 191.995 142.768 192.014C142.834 192.032 142.892 192.069 142.933 192.118C142.975 192.167 142.998 192.227 143 192.289C143.002 192.35 142.981 192.411 142.942 192.461L141.088 195Z" fill="black"/>
<path d="M164.571 253L141 237.61L141.429 237L165 252.39L164.571 253Z" fill="black"/>
<path d="M334.252 136.517C342.547 141.574 350.379 132.157 351.513 131.181C357.432 126.204 364.336 108.883 364.336 108.883C366.418 104.583 363.015 102.741 362.176 103.906C361.831 104.493 363.36 101.576 363.656 100.919C366.072 95.4443 361.456 94.4887 359.957 96.3601C362.531 92.4679 358.487 89.3919 356.643 91.7213C358.171 88.7349 354.354 86.0273 351.336 89.9693C349.481 92.0199 337.092 111.192 337.092 111.192C335.435 109.988 340.397 102.631 336.649 99.2469C336.453 99.1393 336.224 99.1134 336.01 99.1749C335.796 99.2363 335.614 99.3802 335.504 99.5754C331.596 106.722 329.4 114.692 329.093 122.849C328.728 127.289 329.241 133.471 334.252 136.517Z" fill="#FCA886"/>
<path d="M362.265 103.879L354.91 115.297L355.535 115.699L362.89 104.282L362.265 103.879Z" fill="black"/>
<path d="M360.036 96.2342L350.833 111.726L351.472 112.106L360.674 96.6136L360.036 96.2342Z" fill="black"/>
<path d="M356.552 91.5187L345.994 108.435L346.624 108.828L357.183 91.9121L356.552 91.5187Z" fill="black"/>
<path d="M356.447 117C353.651 113.984 349.581 110.911 344 107.632L344.385 107C350.026 110.327 354.155 113.44 357 116.514L356.447 117Z" fill="black"/>
<path d="M341.402 125L340.71 124.775C343.113 117.042 337.067 111.616 337 111.557L337.471 111C337.538 111.059 343.949 116.846 341.402 125Z" fill="black"/>
<path d="M338.066 184.446C351.611 179.875 363.416 186.291 362.989 201.562C362.689 207.196 360.192 212.488 356.033 216.309L355.774 216.556C355.067 217.216 354.321 217.832 353.538 218.401L294.293 258.474C291.189 261.375 287.444 263.505 283.362 264.692C271.805 268.034 261.331 265.059 256.273 254.775C251.026 244.085 255.279 234.486 264.769 226.84L264.928 226.721C265.876 225.966 266.872 225.274 267.909 224.648L330.921 188.344L331.667 187.798C333.611 186.354 335.77 185.223 338.066 184.446Z" fill="#2B3459"/>
<path d="M355 138.531L329.503 140L329 130.469C334.251 132.937 351.555 130.875 354.506 129L355 138.531Z" fill="#2B3459"/>
<path d="M324.093 192.367C324.654 171.459 321.751 142.154 329.396 138.412L354.91 138C362.525 140.367 361.296 176.654 362.998 199.458C363.342 225.188 323.886 228.134 324.093 192.367Z" fill="#2B3459"/>
<path d="M341.256 141C336.434 141 331.633 140.129 329 138.169L329.404 137.447C334.847 141.516 350.76 140.622 354.527 137L355 137.665C352.821 139.762 347.024 141 341.256 141Z" fill="black"/>
<path d="M325.3 195L323.072 192.461C323.025 192.41 323 192.35 323 192.289C323 192.228 323.025 192.168 323.072 192.117C323.12 192.069 323.188 192.033 323.266 192.014C323.343 191.995 323.427 191.995 323.505 192.014C328.816 193.187 328.913 193.243 329 193.275L328.773 193.523L328.6 193.794C328.394 193.73 326.177 193.227 324.338 192.82L325.96 194.673L325.3 195Z" fill="black"/>
<path d="M323.74 237.635L302.833 251.312L303.24 251.933L324.147 238.257L323.74 237.635Z" fill="black"/>
<path d="M386.183 57H341.817C338.052 57 335 60.0197 335 63.7448V105.255C335 108.98 338.052 112 341.817 112H386.183C389.948 112 393 108.98 393 105.255V63.7448C393 60.0197 389.948 57 386.183 57Z" fill="#025BD2"/>
<path d="M382.756 108H345.244C343.589 107.997 342.003 107.351 340.832 106.204C339.662 105.057 339.003 103.502 339 101.879V67.1206C339.003 65.4983 339.662 63.9435 340.832 62.7964C342.003 61.6492 343.589 61.0033 345.244 61H382.756C384.411 61.0033 385.997 61.6492 387.168 62.7964C388.338 63.9435 388.997 65.4983 389 67.1206V101.879C388.997 103.502 388.338 105.057 387.168 106.204C385.997 107.351 384.411 107.997 382.756 108ZM345.244 61.9319C344.55 61.9319 343.864 62.0658 343.223 62.3259C342.582 62.5861 342 62.9673 341.51 63.448C341.02 63.9286 340.631 64.4992 340.365 65.1272C340.1 65.7552 339.964 66.4283 339.964 67.108V101.879C339.964 102.559 340.1 103.232 340.365 103.86C340.631 104.488 341.02 105.059 341.51 105.539C342 106.02 342.582 106.401 343.223 106.661C343.864 106.922 344.55 107.055 345.244 107.055H382.756C384.157 107.055 385.5 106.51 386.49 105.539C387.48 104.569 388.036 103.252 388.036 101.879V67.1206C388.036 65.7478 387.48 64.4313 386.49 63.4606C385.5 62.4899 384.157 61.9445 382.756 61.9445L345.244 61.9319Z" fill="black"/>
<path d="M387.18 116L369 98.6046L375.337 91.7064L386.308 102.214L405.849 78L413 84.0084L387.18 116Z" fill="#00FFB6"/>
<path d="M346.179 106.793L338.585 113.817C337.271 114.798 331 111.512 331 111.512C331.558 109.79 332.727 108.308 334.305 107.322L343.85 100.877C345.451 99.8956 346.21 99.7975 346.764 100.288C347.319 100.779 349.546 103.594 346.179 106.793Z" fill="#FCA886"/>
<path d="M343.051 102.999C342.67 103.015 342.296 102.894 342 102.659L342.432 102.202C342.432 102.202 343.449 103.032 345.559 101L346 101.448C344.712 102.683 343.72 102.999 343.051 102.999Z" fill="black"/>
<path d="M96.1794 338.68C101.751 346.829 92.8403 355.432 91.9432 356.664C87.3184 362.996 70.4736 371.155 70.4736 371.155C66.3072 373.548 64.254 370.195 65.3404 369.266C65.9085 368.872 63.0878 370.619 62.4997 370.963C57.1772 373.79 55.9312 369.135 57.7054 367.479C53.9776 370.357 50.5987 366.469 52.8513 364.389C49.9608 366.146 47.0204 362.37 50.7681 359.088C52.6918 357.068 71.0617 343.174 71.0617 343.174C69.7659 341.548 62.719 347.102 59.1008 343.487C58.9833 343.293 58.9446 343.06 58.9929 342.838C59.0413 342.616 59.1729 342.421 59.36 342.295C66.2792 337.847 74.1303 335.101 82.2849 334.278C86.6007 333.621 92.8204 333.783 96.1794 338.68Z" fill="#FCA886"/>
<path d="M76.1229 360.767L65.1943 368.831L65.6354 369.428L76.564 361.365L76.1229 360.767Z" fill="black"/>
<path d="M72.3372 356.922L57.4463 367.068L57.8646 367.682L72.7555 357.536L72.3372 356.922Z" fill="black"/>
<path d="M68.7602 352.278L52.5625 363.908L52.9958 364.512L69.1936 352.881L68.7602 352.278Z" fill="black"/>
<path d="M77.5313 363C74.2004 360.234 70.7597 356.122 67 350.435L67.6183 350C71.3282 355.614 74.7289 359.675 78 362.43L77.5313 363Z" fill="black"/>
<path d="M80.4873 348C76.9551 347.871 73.5841 346.3 71 343.576L71.5196 343C71.5773 343.065 77.2928 349.522 84.7402 346.261L85 347.022C83.5627 347.662 82.0323 347.994 80.4873 348Z" fill="black"/>
<path d="M138.53 315.329C135.81 329.306 143.714 340.075 158.75 337.66C164.277 336.617 169.179 333.456 172.411 328.85L172.619 328.554C173.181 327.773 173.69 326.956 174.143 326.109L205.917 262.283C208.379 258.818 209.989 254.819 210.616 250.613C212.387 238.735 208.054 228.837 197.202 225.184C185.934 221.423 177.011 226.936 170.71 237.28L170.611 237.458C169.983 238.503 169.431 239.591 168.959 240.715L141.428 307.757L140.993 308.569C139.818 310.677 138.987 312.959 138.53 315.329Z" fill="#2B3459"/>
<path d="M102 353.888L93.3019 330L85 333.112C89.1461 336.981 94.1427 353.583 93.6981 357L102 353.888Z" fill="#2B3459"/>
<path d="M139.67 303.303C120.602 312.214 92.4051 321.312 92 329.876L101.88 353.636C107.116 359.705 140.105 343.994 161.821 336.41C185.632 326.351 172.561 288.76 139.67 303.303Z" fill="#2B3459"/>
<path d="M102.764 354L102.027 353.803C103.439 349.094 97.5864 334.217 92 330.611L92.4297 330C98.3333 333.852 104.268 349.005 102.764 354Z" fill="black"/>
<path d="M145.49 309L143.02 302.459C142.994 302.389 142.993 302.314 143.018 302.243C143.042 302.173 143.091 302.111 143.156 302.067C143.222 302.023 143.301 302 143.382 302C143.464 302 143.543 302.023 143.608 302.067L149 305.272L148.559 305.851L144.134 303.207L146.236 308.813L145.49 309Z" fill="black"/>
<path d="M154.656 276L154 275.687L161.334 261L162 261.313L154.656 276Z" fill="black"/>
<path d="M251 199H214V262H251V199Z" fill="#FCA886"/>
<path d="M278 390C277.386 378.128 276.347 366.795 274.882 356H190.465C188.356 365.458 186.554 377.07 185 390H278Z" fill="#263238"/>
<path d="M283.083 215.524L251.47 222.588L233.225 230.798L214.272 223.319L181.133 215C181.133 215 179.857 287.765 185.203 321.04C188.715 342.776 178.031 356.42 190.002 360.036C205.773 363.988 259.461 363.988 275.89 360.036C288.011 356.963 277.327 342.815 280.878 321.04C286.225 287.765 283.083 215.524 283.083 215.524Z" fill="#2B3459"/>
<path d="M189.069 375L189 374.293C189.098 374.293 199.166 373.337 201.282 365L202 365.172C199.737 373.958 189.148 374.99 189.069 375Z" fill="#0B0A0A"/>
<path d="M277.926 375C277.809 375 266.416 373.958 264 365.172L264.774 365C267.052 373.289 277.894 374.283 278 374.293L277.926 375Z" fill="#0B0A0A"/>
<path d="M233 376C230.446 375.894 228.556 374.93 227.384 373.109C224.908 369.322 226.509 363.251 226.509 363L227.139 363.202C227.139 363.26 225.591 369.187 227.883 372.685C228.932 374.294 230.647 375.152 232.991 375.248L233 376Z" fill="#0B0A0A"/>
<path d="M232.759 362.858L232.554 389.494L233.297 389.5L233.502 362.863L232.759 362.858Z" fill="#0B0A0A"/>
<path d="M214.409 217L209 221.404C211.324 229.23 216.723 234.953 224.564 239L233 230.073C225.065 227.362 218.868 223.004 214.409 217Z" fill="#2B3459"/>
<path d="M250.561 217L256 221.404C253.676 229.23 248.277 234.953 240.436 239L232 230.073C239.915 227.362 246.103 223.004 250.561 217Z" fill="#2B3459"/>
<path d="M226.372 235.91L228.651 238.262L224 346.74L232 356V230C229.745 231.515 227.825 233.531 226.372 235.91Z" fill="#00FFB6"/>
<path d="M235.809 238.278L238.373 235.927C236.729 233.538 234.555 231.516 232 230V356L241 346.744L235.809 238.278Z" fill="#00FFB6"/>
<path d="M225.303 240L224.926 239.795C217.731 235.937 212.106 229.756 209 222.293L209.685 222C212.661 229.176 218.015 235.151 224.877 238.955C225.282 237.953 225.784 236.992 226.375 236.084L227 236.484C226.357 237.466 225.825 238.514 225.412 239.609L225.303 240Z" fill="black"/>
<path d="M239.728 240L239.58 239.609C239.165 238.513 238.636 237.462 238 236.474L238.622 236.074C239.208 236.986 239.708 237.951 240.113 238.955C246.974 235.167 252.334 229.19 255.319 222L256 222.293C252.896 229.763 247.281 235.946 240.103 239.795L239.728 240Z" fill="black"/>
<path d="M232.541 239.999C231.286 240.022 230.054 239.574 229 238.712L229.372 238C230.306 238.737 231.385 239.128 232.486 239.128C233.587 239.128 234.666 238.737 235.601 238L236 238.701C234.98 239.573 233.772 240.026 232.541 239.999Z" fill="black"/>
<path d="M183.245 306C181.815 288.603 181.06 271.784 181 256H181.755C181.815 271.764 182.57 288.563 184 305.94L183.245 306Z" fill="black"/>
<path d="M282.758 306L282 305.94C283.434 288.553 284.182 271.744 284.242 256H285C284.939 271.764 284.192 288.593 282.758 306Z" fill="black"/>
<path d="M233.526 142H231.474C218.51 142 208 152.73 208 165.966V188.034C208 201.27 218.51 212 231.474 212H233.526C246.49 212 257 201.27 257 188.034V165.966C257 152.73 246.49 142 233.526 142Z" fill="#FCA886"/>
<path d="M209.971 179.146C209.971 179.146 206.905 171.376 201.993 174.931C197.081 178.486 201.993 190.733 208.655 191.928C215.316 193.122 209.971 179.146 209.971 179.146Z" fill="#FCA886"/>
<path d="M255.028 179.146C255.028 179.146 258.095 171.376 263.007 174.931C267.919 178.486 263.007 190.733 256.345 191.928C249.684 193.122 255.028 179.146 255.028 179.146Z" fill="#FCA886"/>
<path d="M208.484 186C208.877 181.062 209.388 174.247 205.083 173.447L203.855 165.061C202.931 161.249 204.385 158.79 205.909 158.148C205.909 158.148 198.37 151.362 201.977 144.32C205.584 137.278 214.027 140.567 214.027 140.567C214.027 140.567 213.565 135.016 221.055 133.169C228.544 131.323 251.474 145.18 251.474 145.18C257.027 148.469 258.433 152.795 259.337 158.118C261.951 158.592 262.158 162.444 261.931 164.242L260.949 173.417C255.956 173.091 255.749 178.671 256.034 185.97C252.693 185.97 253.253 175.6 253.253 175.6V160.192C238.402 164.607 223.502 164.143 212.622 160.192L212.032 175.649C212.032 175.649 212.17 186 208.484 186Z" fill="#263238"/>
<path d="M203.794 185C202.537 183.259 201.259 179.844 202.517 178.047C202.966 177.413 203.934 176.741 206 177.101L205.85 177.791C204.513 177.536 203.605 177.744 203.146 178.406C202.217 179.721 203.066 182.701 204.403 184.565L203.794 185Z" fill="black"/>
<path d="M261.206 185L260.587 184.602C261.924 182.705 262.773 179.746 261.854 178.428C261.395 177.764 260.487 177.555 259.15 177.811L259 177.119C261.066 176.721 261.994 177.394 262.483 178.067C263.741 179.831 262.463 183.255 261.206 185Z" fill="black"/>
<path d="M232.505 212.997C229.046 213.047 225.614 212.404 222.428 211.11C219.242 209.815 216.372 207.898 214 205.479L214.549 205C216.856 207.344 219.646 209.201 222.74 210.454C225.835 211.707 229.167 212.328 232.525 212.278C235.874 212.324 239.196 211.701 242.28 210.448C245.364 209.195 248.143 207.34 250.441 205L251 205.479C248.63 207.891 245.764 209.805 242.584 211.099C239.404 212.393 235.979 213.039 232.525 212.997H232.505Z" fill="black"/>
<path d="M232.633 188L232.469 187.45C233.251 187.22 235.495 186.349 235.417 185.347C235.323 184.2 232.923 179.858 232 178.283L232.516 178C232.649 178.237 235.879 183.795 235.996 185.301C236.129 186.953 232.985 187.901 232.633 188Z" fill="black"/>
<path d="M223 182.53C222.994 182.826 222.901 183.113 222.732 183.356C222.563 183.599 222.326 183.787 222.051 183.895C221.776 184.004 221.475 184.029 221.185 183.967C220.896 183.905 220.632 183.758 220.425 183.547C220.219 183.335 220.08 183.066 220.026 182.776C219.971 182.485 220.004 182.184 220.12 181.912C220.236 181.64 220.43 181.408 220.677 181.246C220.924 181.084 221.214 180.998 221.51 181C221.708 181.001 221.905 181.042 222.088 181.12C222.27 181.198 222.436 181.311 222.575 181.453C222.713 181.596 222.822 181.764 222.895 181.949C222.968 182.134 223.004 182.331 223 182.53Z" fill="black"/>
<path d="M224.631 178C222.561 177.345 220.154 177.345 217.271 178L217 177.517C220.1 176.828 222.724 176.828 225 177.517L224.631 178Z" fill="black"/>
<path d="M246 182.5C246 182.898 245.842 183.279 245.561 183.561C245.279 183.842 244.898 184 244.5 184C244.102 184 243.721 183.842 243.439 183.561C243.158 183.279 243 182.898 243 182.5C243 182.102 243.158 181.721 243.439 181.439C243.721 181.158 244.102 181 244.5 181C244.898 181 245.279 181.158 245.561 181.439C245.842 181.721 246 182.102 246 182.5Z" fill="black"/>
<path d="M247.632 178C245.564 177.347 243.161 177.347 240.271 178L240 177.512C243.107 176.824 245.716 176.824 248 177.546L247.632 178Z" fill="black"/>
<path d="M227 190C227.377 191.421 228.212 192.68 229.376 193.583C230.541 194.486 231.97 194.984 233.446 195C234.922 195.016 236.362 194.549 237.546 193.672C238.73 192.794 239.592 191.554 240 190.141C235.709 191.047 231.27 190.999 227 190Z" fill="white"/>
<path d="M217 192C214.824 192 212.698 191.326 210.889 190.062C209.08 188.798 207.67 187.002 206.837 184.901C206.005 182.8 205.787 180.487 206.211 178.256C206.636 176.026 207.683 173.977 209.222 172.368C210.76 170.76 212.72 169.665 214.854 169.221C216.988 168.777 219.2 169.005 221.21 169.875C223.22 170.746 224.937 172.22 226.146 174.111C227.355 176.002 228 178.226 228 180.5C227.997 183.549 226.838 186.473 224.775 188.629C222.713 190.785 219.917 191.997 217 192ZM217 169.788C214.968 169.788 212.981 170.418 211.291 171.598C209.601 172.778 208.284 174.456 207.507 176.419C206.729 178.382 206.525 180.542 206.922 182.626C207.318 184.71 208.297 186.624 209.734 188.127C211.171 189.629 213.002 190.652 214.995 191.067C216.989 191.481 219.055 191.268 220.932 190.455C222.81 189.642 224.415 188.265 225.544 186.499C226.673 184.732 227.276 182.655 227.276 180.53C227.273 177.682 226.19 174.951 224.263 172.937C222.337 170.923 219.724 169.79 217 169.788Z" fill="#030C2C"/>
<path d="M248 192C245.824 192 243.698 191.326 241.889 190.062C240.08 188.798 238.67 187.002 237.837 184.901C237.005 182.8 236.787 180.487 237.211 178.256C237.636 176.026 238.683 173.977 240.222 172.368C241.76 170.76 243.72 169.665 245.854 169.221C247.988 168.777 250.2 169.005 252.21 169.875C254.22 170.746 255.937 172.22 257.146 174.111C258.355 176.002 259 178.226 259 180.5C258.997 183.549 257.838 186.473 255.775 188.629C253.713 190.785 250.917 191.997 248 192ZM248 169.788C245.968 169.788 243.981 170.418 242.291 171.598C240.601 172.778 239.284 174.456 238.507 176.419C237.729 178.382 237.525 180.542 237.922 182.626C238.318 184.71 239.297 186.624 240.734 188.127C242.171 189.629 244.002 190.652 245.995 191.067C247.989 191.481 250.055 191.268 251.932 190.455C253.81 189.642 255.415 188.265 256.544 186.499C257.673 184.732 258.276 182.655 258.276 180.53C258.273 177.682 257.19 174.951 255.263 172.937C253.337 170.923 250.725 169.79 248 169.788Z" fill="#030C2C"/>
<path d="M238.461 176C236.748 174.488 234.483 173.68 232.152 173.749C231.111 173.75 230.081 173.948 229.121 174.333C228.161 174.718 227.29 175.281 226.56 175.99L226 175.474C226.8 174.693 227.756 174.072 228.811 173.648C229.865 173.224 230.998 173.006 232.142 173.005C233.398 172.964 234.65 173.161 235.827 173.583C237.004 174.005 238.082 174.644 239 175.465L238.461 176Z" fill="#030C2C"/>
<path d="M233.006 198C231.619 197.988 230.252 197.612 229 196.901L229.343 196C230.483 196.66 231.733 197.003 233 197.003C234.267 197.003 235.517 196.66 236.657 196L237 196.901C235.752 197.614 234.388 197.989 233.006 198Z" fill="black"/>
<path d="M120.686 100.999C119.85 100.999 118.568 100.683 117 99.4478L117.551 99C120.199 101.023 121.449 100.211 121.46 100.202L122 100.659C121.63 100.894 121.163 101.015 120.686 100.999Z" fill="black"/>
<path d="M80.0524 31.7676C79.3413 33.4999 75.155 33.3805 70.7692 31.5676C66.3834 29.7546 63.4005 26.8803 64.1116 25.148C64.279 24.748 64.7552 23.2479 65.2314 23.0415C66.866 22.3479 69.9776 23.906 73.3466 25.2996C76.4839 26.59 80.0717 27.4319 80.6284 29.1385C80.963 30.1772 80.2551 31.274 80.0524 31.7676Z" fill="#00FFB6"/>
<path opacity="0.2" d="M80.6279 29.1387C80.8949 30.4968 80.3061 31.1484 80.0519 31.7678C79.7977 32.3872 79.0544 32.7937 78.015 32.9356C77.8851 32.9578 77.754 32.9728 77.6225 32.9808C76.8255 33.0278 76.0258 32.9856 75.2381 32.855C75.1255 32.855 75.0129 32.8195 74.897 32.8001C73.9724 32.6337 73.0614 32.3987 72.1716 32.0969L71.8498 31.9872C71.4926 31.8614 71.1258 31.7227 70.759 31.571C70.3922 31.4194 70.0447 31.2485 69.7004 31.0968L69.4043 30.9549C68.5932 30.5528 67.8114 30.0935 67.065 29.5806L66.8012 29.3936C66.1496 28.9318 65.5526 28.3972 65.0217 27.7999C64.9413 27.7096 64.8673 27.6225 64.7965 27.5322C64.1047 26.6547 63.8312 25.816 64.1047 25.1482C64.2849 24.7192 64.671 23.2514 65.2245 23.0385C65.9052 22.8462 66.6256 22.8462 67.3063 23.0385L67.6281 23.1159C69.237 23.5288 71.2642 24.4482 73.3332 25.3031C75.7723 26.3128 78.6586 27.3612 80.0744 28.5709C80.1586 28.642 80.2392 28.7174 80.3157 28.7968C80.4287 28.9022 80.5331 29.0166 80.6279 29.1387Z" fill="#01110B"/>
<g opacity="0.2">
<path opacity="0.2" d="M67.7883 22.8382L67.6403 23.1092L65.0275 27.7964C64.947 27.7061 64.873 27.619 64.8022 27.5287L67.3121 23.0318L67.5084 22.6833L67.7883 22.8382Z" fill="#01110B"/>
</g>
<g opacity="0.2">
<path opacity="0.2" d="M69.7652 24.7514L67.072 29.5903L66.8081 29.4032L69.4853 24.603L69.7652 24.7514Z" fill="#01110B"/>
</g>
<g opacity="0.2">
<path opacity="0.2" d="M74.7176 27.5257L72.1724 32.0968L71.8506 31.9872L74.4248 27.3547L74.7176 27.5257Z" fill="#01110B"/>
</g>
<g opacity="0.2">
<path opacity="0.2" d="M72.4128 26.2349L69.7067 31.0964L69.4106 30.9545L72.1329 26.064L72.4128 26.2349Z" fill="#01110B"/>
</g>
<g opacity="0.2">
<path opacity="0.2" d="M77.719 28.4093L75.2381 32.8547C75.1254 32.8547 75.0128 32.8192 74.897 32.7998L77.4358 28.248L77.719 28.4093Z" fill="#01110B"/>
</g>
<path d="M80.6078 30.2578C79.8967 31.9901 75.7619 31.9224 71.3729 30.1062C66.9839 28.29 64.0042 25.4189 64.7186 23.6866C65.4329 21.9543 69.5645 22.0253 73.9535 23.8382C78.3425 25.6512 81.319 28.5158 80.6078 30.2578Z" fill="#00FFB6"/>
<path opacity="0.2" d="M79.1148 29.6289C78.6129 30.8516 75.3887 30.6806 71.9167 29.2451C68.4448 27.8095 66.0379 25.6514 66.5398 24.4287C67.0418 23.2061 70.266 23.3771 73.7412 24.8126C77.2164 26.2482 79.62 28.4063 79.1148 29.6289Z" fill="white"/>
<path d="M102.229 16.1091C103.375 17.5898 101.193 21.1738 97.4378 24.0868C93.6826 26.9998 89.7151 28.1611 88.5728 26.6675C88.309 26.3256 87.2407 25.1804 87.305 24.6449C87.5206 22.8803 90.4134 20.9512 93.2965 18.7124C95.9801 16.6284 98.4868 13.9251 100.24 14.2897C101.306 14.5251 101.904 15.6897 102.229 16.1091Z" fill="#00FFB6"/>
<path opacity="0.2" d="M100.24 14.3025C101.55 14.7477 101.82 15.5929 102.229 16.109C102.637 16.6252 102.621 17.4865 102.229 18.4639C102.184 18.5833 102.129 18.7026 102.071 18.8252C101.718 19.5424 101.287 20.2176 100.784 20.8382C100.716 20.9285 100.642 21.0156 100.568 21.106C99.9631 21.8295 99.3048 22.5067 98.599 23.1318L98.3512 23.348C98.0648 23.5964 97.7624 23.8448 97.4502 24.0867C97.1381 24.3286 96.826 24.5577 96.5107 24.7738C96.4238 24.8383 96.3305 24.8996 96.2436 24.9609C95.4918 25.4665 94.7046 25.9172 93.8882 26.3094C93.7884 26.361 93.6919 26.4029 93.5986 26.4481C92.8732 26.7845 92.1122 27.0377 91.3301 27.2029C91.2142 27.2288 91.1016 27.2481 90.989 27.2642C89.8853 27.4288 89.0229 27.2642 88.5821 26.6803C88.2989 26.3126 87.221 25.2448 87.3143 24.6609C87.4826 23.9707 87.8404 23.3415 88.3472 22.8447C88.418 22.7641 88.4952 22.6834 88.5757 22.5996C89.7373 21.3931 91.536 20.0995 93.3058 18.7285C95.3941 17.1155 97.7366 15.1186 99.4839 14.4928C99.5894 14.454 99.6968 14.4206 99.8056 14.3928C99.9481 14.3521 100.093 14.3219 100.24 14.3025Z" fill="#01110B"/>
<g opacity="0.2">
<path opacity="0.2" d="M88.4053 22.3347L88.5662 22.5992L91.3206 27.2026C91.2048 27.2284 91.0922 27.2478 90.9795 27.2639L88.3378 22.838L88.1318 22.5154L88.4053 22.3347Z" fill="#01110B"/>
</g>
<g opacity="0.2">
<path opacity="0.2" d="M91.0409 21.5669L93.879 26.309C93.7792 26.3606 93.6827 26.4025 93.5894 26.4477L90.7642 21.7314L91.0409 21.5669Z" fill="#01110B"/>
</g>
<g opacity="0.2">
<path opacity="0.2" d="M95.9022 18.6448L98.5891 23.1353L98.3413 23.3514L95.6255 18.8093L95.9022 18.6448Z" fill="#01110B"/>
</g>
<g opacity="0.2">
<path opacity="0.2" d="M93.6432 20.0024L96.5006 24.7736C96.4137 24.8381 96.3204 24.8994 96.2335 24.9607L93.3633 20.167L93.6432 20.0024Z" fill="#01110B"/>
</g>
<g opacity="0.2">
<path opacity="0.2" d="M98.1615 16.467L100.774 20.8382C100.707 20.9285 100.633 21.0156 100.559 21.1059L97.8848 16.6348L98.1615 16.467Z" fill="#01110B"/>
</g>
<path d="M96.4629 22.8174C100.216 19.9034 102.331 16.3411 101.187 14.8607C100.043 13.3803 96.0738 14.5426 92.3211 17.4566C88.5685 20.3706 86.4535 23.933 87.5973 25.4133C88.741 26.8937 92.7103 25.7315 96.4629 22.8174Z" fill="#00FFB6"/>
<path opacity="0.2" d="M95.9977 21.9227C98.9678 19.6163 100.72 16.8983 99.9115 15.8517C99.103 14.8052 96.0398 15.8265 93.0697 18.1328C90.0996 20.4392 88.3474 23.1572 89.1559 24.2038C89.9645 25.2503 93.0277 24.229 95.9977 21.9227Z" fill="white"/>
<path d="M86.6965 9.17339C86.3297 11.296 81.5803 12.1928 76.2002 11.2251C70.8201 10.2573 66.7625 7.76366 67.139 5.641C67.2258 5.14744 67.3771 3.3506 67.8823 2.99252C69.5523 1.81184 73.4329 2.79897 77.5645 3.53448C81.4258 4.2216 85.6507 4.27644 86.6965 6.06037C87.3304 7.15719 86.8027 8.56691 86.6965 9.17339Z" fill="#00FFB6"/>
<path opacity="0.2" d="M86.6963 6.06368C87.3398 7.52825 86.8282 8.40248 86.6963 9.16379C86.5643 9.92511 85.8275 10.5606 84.6948 10.98C84.5565 11.0348 84.4117 11.08 84.2636 11.1252C83.3777 11.3748 82.4669 11.5252 81.5479 11.5736C81.4159 11.5736 81.2872 11.5736 81.1521 11.5961C80.0694 11.6361 78.9854 11.5962 77.9086 11.4768L77.5321 11.4284C77.0977 11.3735 76.6504 11.309 76.2032 11.2284C75.7559 11.1477 75.3215 11.0574 74.8935 10.9574C74.7713 10.9316 74.649 10.8993 74.5267 10.8703C73.5157 10.62 72.5242 10.2966 71.5599 9.90253C71.4409 9.85737 71.3283 9.80575 71.2156 9.76059C70.3693 9.39943 69.5662 8.94385 68.8216 8.40248C68.709 8.32183 68.606 8.24118 68.4998 8.15731C67.5023 7.34115 66.9907 6.4637 67.1355 5.64754C67.2321 5.11849 67.3093 3.38939 67.8756 2.99906C68.4419 2.60872 69.2528 2.48614 70.2181 2.48291H70.6043C72.5349 2.54743 75.0222 3.08616 77.5611 3.53779C80.5536 4.07329 84.0577 4.54105 85.9433 5.55399C86.0539 5.61276 86.1613 5.67736 86.2651 5.74754C86.4168 5.8415 86.561 5.94721 86.6963 6.06368Z" fill="#01110B"/>
<g opacity="0.2">
<path opacity="0.2" d="M70.7104 2.15382L70.6074 2.49254L68.8184 8.40888C68.7057 8.32823 68.6028 8.24758 68.4966 8.16371L70.2149 2.48931L70.35 2.04736L70.7104 2.15382Z" fill="#01110B"/>
</g>
<g opacity="0.2">
<path opacity="0.2" d="M73.4 3.80553L71.5562 9.8993C71.4372 9.85413 71.3245 9.80252 71.2119 9.75736L73.046 3.69263L73.4 3.80553Z" fill="#01110B"/>
</g>
<g opacity="0.2">
<path opacity="0.2" d="M79.653 5.71466L77.9058 11.4858L77.5293 11.4374L79.2958 5.60498L79.653 5.71466Z" fill="#01110B"/>
</g>
<g opacity="0.2">
<path opacity="0.2" d="M76.7464 4.83073L74.8898 10.96C74.7675 10.9342 74.6452 10.9019 74.5229 10.8729L76.3893 4.7146L76.7464 4.83073Z" fill="#01110B"/>
</g>
<g opacity="0.2">
<path opacity="0.2" d="M83.2469 5.96681L81.5447 11.5831C81.4128 11.5831 81.2841 11.5831 81.1489 11.6057L82.8897 5.86035L83.2469 5.96681Z" fill="#01110B"/>
</g>
<path d="M86.9475 7.31993C87.3242 5.19751 83.2667 2.69861 77.8848 1.73849C72.503 0.778374 67.8347 1.72061 67.458 3.84304C67.0813 5.96547 71.1387 8.46436 76.5206 9.42448C81.9025 10.3846 86.5707 9.44236 86.9475 7.31993Z" fill="#00FFB6"/>
<path opacity="0.2" d="M85.1152 6.99543C85.3814 5.4957 82.1449 3.66405 77.8863 2.90432C73.6277 2.14459 69.9596 2.74448 69.6934 4.24421C69.4272 5.74394 72.6637 7.5756 76.9223 8.33533C81.1809 9.09506 84.849 8.49517 85.1152 6.99543Z" fill="white"/>
<g opacity="0.2">
<path opacity="0.2" d="M38.719 315.409L36.2381 319.855C36.1254 319.855 36.0128 319.819 35.897 319.8L38.4358 315.248L38.719 315.409Z" fill="#01110B"/>
</g>
<path opacity="0.2" d="M105 82L109 103" stroke="black" stroke-width="2" stroke-linecap="round" stroke-linejoin="round"/>
<path opacity="0.2" d="M79 100.644C79.0978 100.924 103.995 89 103.995 89C104.062 91.7033 103.457 94.3746 102.245 96.7168C101.034 99.059 99.2642 100.98 97.133 102.267C89.639 106.956 79 100.644 79 100.644Z" fill="#407BFF"/>
<path opacity="0.2" d="M104 89C104 89 106.513 94.1791 105.905 103L104 89Z" fill="black"/>
<g opacity="0.2">
<path opacity="0.2" d="M76.1572 94.8447L76.7568 94.5796" stroke="#FAFAFA" stroke-linecap="round" stroke-linejoin="round"/>
<path opacity="0.2" d="M78.0005 94.026L102.273 83.2712" stroke="#FAFAFA" stroke-linecap="round" stroke-linejoin="round" stroke-dasharray="5.2 5.2"/>
<path opacity="0.2" d="M102.896 82.9956L103.493 82.7305" stroke="#FAFAFA" stroke-linecap="round" stroke-linejoin="round"/>
</g>
<path d="M132.123 73.0189L102.163 74.7359C101.105 74.7971 100.066 75.0453 99.0976 75.4684L66.5551 89.7765C65.9841 90.0232 65.5165 90.455 65.2304 90.9998C64.9443 91.5446 64.8569 92.1693 64.983 92.7698L70.3601 117.766C70.4511 118.169 70.6344 118.545 70.8962 118.867C71.1579 119.19 71.4912 119.449 71.8704 119.625C72.2497 119.801 72.6649 119.89 73.0843 119.884C73.5038 119.878 73.9163 119.778 74.2904 119.592L106.411 103.83L136.071 102.854C136.436 102.845 136.795 102.759 137.123 102.602C137.452 102.446 137.743 102.222 137.977 101.947C138.211 101.671 138.382 101.35 138.48 101.004C138.577 100.658 138.599 100.296 138.543 99.941L134.575 76.0064C134.368 74.7702 133.413 72.9817 132.123 73.0189Z" fill="#407BFF"/>
<path opacity="0.1" d="M132.123 73.0189L102.163 74.7359C101.105 74.7971 100.066 75.0453 99.0976 75.4684L66.5551 89.7765C65.9841 90.0232 65.5165 90.455 65.2304 90.9998C64.9443 91.5446 64.8569 92.1693 64.983 92.7698L70.3601 117.766C70.4511 118.169 70.6344 118.545 70.8962 118.867C71.1579 119.19 71.4912 119.449 71.8704 119.625C72.2497 119.801 72.6649 119.89 73.0843 119.884C73.5038 119.878 73.9163 119.778 74.2904 119.592L106.411 103.83L136.071 102.854C136.436 102.845 136.795 102.759 137.123 102.602C137.452 102.446 137.743 102.222 137.977 101.947C138.211 101.671 138.382 101.35 138.48 101.004C138.577 100.658 138.599 100.296 138.543 99.941L134.575 76.0064C134.368 74.7702 133.413 72.9817 132.123 73.0189Z" fill="black"/>
<path d="M71.78 55.5558L56.001 70.1379L84.3171 100.934L100.096 86.3519L71.78 55.5558Z" fill="#407BFF"/>
<path opacity="0.5" d="M100.634 86.2139L84.6598 100.915L56 69.8653L66.482 60.2174L71.9744 55.1646L72.8883 56.1538L100.634 86.2139Z" fill="#FAFAFA"/>
<path d="M71.8814 57.4386L57.9585 70.3054L84.4448 99.1115L98.3678 86.2447L71.8814 57.4386Z" stroke="#407BFF" stroke-miterlimit="10"/>
<path d="M81.2958 81.6827C82.8927 80.2069 82.6907 77.3828 80.8446 75.375C78.9985 73.3672 76.2073 72.9359 74.6103 74.4118C73.0133 75.8876 73.2153 78.7116 75.0615 80.7195C76.9076 82.7273 79.6988 83.1586 81.2958 81.6827Z" fill="#407BFF"/>
<path opacity="0.1" d="M83.8961 88.8805L78.2694 90.8719L66.0425 60.3038L71.4874 55.1646L72.3934 56.1708L83.8961 88.8805Z" fill="black"/>
<path d="M85.2375 43.491L65.0625 50.8247L79.3035 90.2003L99.4784 82.8665L85.2375 43.491Z" fill="#407BFF"/>
<path opacity="0.5" d="M85.2375 43.491L65.0625 50.8247L79.3035 90.2003L99.4784 82.8665L85.2375 43.491Z" fill="#FAFAFA"/>
<path d="M84.6035 45.2667L66.8018 51.7378L80.1225 88.5689L97.9242 82.0979L84.6035 45.2667Z" stroke="#407BFF" stroke-miterlimit="10"/>
<path d="M83.9408 71.2747C85.9827 70.5324 86.8852 67.8496 85.9568 65.2824C85.0283 62.7153 82.6204 61.2358 80.5785 61.9781C78.5366 62.7203 77.634 65.4031 78.5625 67.9703C79.491 70.5375 81.8989 72.0169 83.9408 71.2747Z" fill="#407BFF"/>
<path d="M132.149 74.1345L102.662 75.7769C101.616 75.8335 100.591 76.0818 99.6373 76.509L67.6401 90.7848C67.0765 91.0366 66.6167 91.4709 66.3367 92.0159C66.0567 92.561 65.9734 93.1841 66.1004 93.7824L71.4662 118.874C71.5526 119.275 71.731 119.652 71.9876 119.975C72.2442 120.297 72.5723 120.557 72.9465 120.735C73.3208 120.913 73.7313 121.003 74.1465 121C74.5617 120.996 74.9705 120.899 75.3416 120.715L106.921 104.989L136.111 104.076C136.473 104.064 136.828 103.977 137.152 103.82C137.477 103.662 137.763 103.438 137.993 103.162C138.223 102.886 138.391 102.565 138.485 102.22C138.579 101.875 138.598 101.514 138.54 101.161L134.569 77.1493C134.362 75.8975 133.421 74.1001 132.149 74.1345Z" fill="#054193"/>
<path opacity="0.2" d="M103.982 78.5977H130.762" stroke="black" stroke-width="2" stroke-linecap="round" stroke-linejoin="round"/>
<path opacity="0.2" d="M105.098 84.1768L130.762 81.9451" stroke="black" stroke-width="2" stroke-linecap="round" stroke-linejoin="round"/>
<path opacity="0.2" d="M106.213 90.872L131.878 87.5244" stroke="black" stroke-width="2" stroke-linecap="round" stroke-linejoin="round"/>
<path d="M127.373 40.1883L121.202 61.7059C120.997 62.4265 120.581 63.0689 120.008 63.5503C119.435 64.0317 118.732 64.33 117.988 64.4066C117.515 64.452 117.037 64.4082 116.58 64.2777L104.785 60.8769C103.831 60.6011 103.026 59.9575 102.545 59.0872C102.064 58.2169 101.947 57.1909 102.219 56.2342L108.393 34.7108C108.669 33.7561 109.311 32.95 110.178 32.4691C111.046 31.9881 112.068 31.8715 113.021 32.1448L124.825 35.5426C125.776 35.8215 126.579 36.467 127.056 37.3378C127.534 38.2085 127.647 39.2336 127.373 40.1883Z" fill="#407BFF"/>
<path opacity="0.2" d="M127.373 40.1883L121.202 61.7059C120.997 62.4265 120.581 63.0689 120.008 63.5503C119.435 64.0317 118.732 64.33 117.988 64.4066C117.515 64.452 117.037 64.4082 116.58 64.2777L104.785 60.8769C103.831 60.6011 103.026 59.9575 102.545 59.0872C102.064 58.2169 101.947 57.1909 102.219 56.2342L108.393 34.7108C108.669 33.7561 109.311 32.95 110.178 32.4691C111.046 31.9881 112.068 31.8715 113.021 32.1448L124.825 35.5426C125.776 35.8215 126.579 36.467 127.056 37.3378C127.534 38.2085 127.647 39.2336 127.373 40.1883Z" fill="black"/>
<path d="M126.347 40.4429L120.176 61.9634C120.02 62.5112 119.741 63.0161 119.361 63.4395C118.98 63.8628 118.509 64.1935 117.982 64.4063C117.508 64.4517 117.031 64.408 116.573 64.2774L104.784 60.8767C103.831 60.6009 103.025 59.9572 102.544 59.0869C102.063 58.2166 101.946 57.1906 102.219 56.234L108.392 34.7105C108.549 34.1635 108.828 33.6595 109.208 33.2371C109.588 32.8147 110.06 32.4851 110.587 32.2734C111.06 32.2251 111.538 32.2689 111.995 32.4023L123.775 35.8148C124.727 36.0889 125.532 36.7296 126.014 37.5968C126.496 38.4641 126.615 39.4874 126.347 40.4429Z" fill="#407BFF"/>
<path opacity="0.5" d="M126.347 40.4429L120.176 61.9634C120.02 62.5112 119.741 63.0161 119.361 63.4395C118.98 63.8628 118.509 64.1935 117.982 64.4063C117.508 64.4517 117.031 64.408 116.573 64.2774L104.784 60.8767C103.831 60.6009 103.025 59.9572 102.544 59.0869C102.063 58.2166 101.946 57.1906 102.219 56.234L108.392 34.7105C108.549 34.1635 108.828 33.6595 109.208 33.2371C109.588 32.8147 110.06 32.4851 110.587 32.2734C111.06 32.2251 111.538 32.2689 111.995 32.4023L123.775 35.8148C124.727 36.0889 125.532 36.7296 126.014 37.5968C126.496 38.4641 126.615 39.4874 126.347 40.4429Z" fill="#FAFAFA"/>
<path d="M109.757 42.2701L108.495 41.9133L103.95 58.0793L105.213 58.4361L109.757 42.2701Z" fill="#FAFAFA"/>
<path d="M107.024 58.9494L105.762 58.5862L110.303 42.426L111.565 42.7892L107.024 58.9494Z" fill="#FAFAFA"/>
<path d="M108.86 59.4797L107.598 59.1165L112.141 42.9534L113.404 43.3166L108.86 59.4797Z" fill="#FAFAFA"/>
<path opacity="0.5" d="M120.751 45.4376L119.488 45.0808L114.944 61.2468L116.206 61.6036L120.751 45.4376Z" fill="black"/>
<path d="M120.591 40.8677L119.977 43.0616L119.229 42.8507C118.867 42.7477 118.56 42.5048 118.376 42.1754C118.192 41.8459 118.146 41.4568 118.248 41.0932L118.657 39.6287L120.167 40.0622C120.33 40.1128 120.466 40.226 120.545 40.3771C120.625 40.5281 120.641 40.7046 120.591 40.8677Z" fill="#FAFAFA"/>
<path d="M120.231 39.7929L118.721 39.3594L119.174 37.7542C119.224 37.5741 119.31 37.4058 119.425 37.2588C119.541 37.1119 119.684 36.9892 119.847 36.8978C120.009 36.8064 120.189 36.7481 120.374 36.7261C120.559 36.7042 120.747 36.7191 120.927 36.77L121.704 36.9897L121.026 39.3535C121.003 39.4352 120.965 39.5116 120.913 39.5782C120.86 39.6447 120.795 39.7001 120.721 39.7411C120.647 39.782 120.565 39.8077 120.481 39.8166C120.397 39.8255 120.312 39.8174 120.231 39.7929Z" fill="#FAFAFA"/>
<path d="M121.663 40.5017L123.182 40.9381L122.779 42.3705C122.729 42.551 122.644 42.7198 122.529 42.8671C122.414 43.0145 122.27 43.1374 122.107 43.229C121.944 43.3205 121.765 43.3787 121.579 43.4003C121.394 43.4218 121.206 43.4063 121.026 43.3547L120.237 43.132L120.865 40.941C120.889 40.8594 120.928 40.7832 120.98 40.7168C121.033 40.6505 121.099 40.5952 121.173 40.5544C121.247 40.5135 121.329 40.4878 121.413 40.4788C121.497 40.4697 121.582 40.4775 121.663 40.5017Z" fill="#FAFAFA"/>
<path d="M123.72 39.0372L123.261 40.6659L121.742 40.2294C121.579 40.1818 121.442 40.0716 121.36 39.9229C121.278 39.7743 121.257 39.5991 121.304 39.4356L121.981 37.0718L122.738 37.2856C122.917 37.336 123.085 37.4213 123.231 37.5366C123.377 37.6519 123.5 37.7949 123.591 37.9576C123.682 38.1202 123.74 38.2993 123.762 38.4846C123.785 38.6698 123.77 38.8576 123.72 39.0372Z" fill="#FAFAFA"/>
<path d="M449.78 148.065L434.001 162.647L462.317 193.443L478.096 178.861L449.78 148.065Z" fill="#407BFF"/>
<path opacity="0.5" d="M478.634 178.723L462.66 193.424L434 162.374L444.482 152.726L449.974 147.674L450.888 148.663L478.634 178.723Z" fill="#FAFAFA"/>
<path d="M449.882 149.948L435.959 162.814L462.445 191.62L476.368 178.754L449.882 149.948Z" stroke="#407BFF" stroke-miterlimit="10"/>
<path d="M459.296 174.192C460.893 172.716 460.691 169.892 458.845 167.884C456.998 165.876 454.207 165.445 452.61 166.921C451.013 168.397 451.215 171.221 453.061 173.228C454.908 175.236 457.699 175.668 459.296 174.192Z" fill="#407BFF"/>
<path opacity="0.1" d="M461.897 181.39L456.27 183.381L444.043 152.813L449.488 147.674L450.394 148.68L461.897 181.39Z" fill="black"/>
<path d="M463.237 136L443.062 143.334L457.303 182.709L477.478 175.376L463.237 136Z" fill="#407BFF"/>
<path opacity="0.5" d="M463.237 136L443.062 143.334L457.303 182.709L477.478 175.376L463.237 136Z" fill="#FAFAFA"/>
<path d="M462.604 137.776L444.802 144.247L458.122 181.078L475.924 174.607L462.604 137.776Z" stroke="#407BFF" stroke-miterlimit="10"/>
<path d="M461.941 163.784C463.983 163.041 464.885 160.359 463.957 157.791C463.028 155.224 460.62 153.745 458.578 154.487C456.537 155.229 455.634 157.912 456.562 160.479C457.491 163.047 459.899 164.526 461.941 163.784Z" fill="#407BFF"/>
<path d="M117.725 104.789L124.877 111.817C126.103 112.798 132 109.52 132 109.52C131.48 107.795 130.38 106.312 128.892 105.329L119.916 98.8705C118.41 97.889 117.696 97.8006 117.174 98.2914C116.653 98.7822 114.53 101.589 117.725 104.789Z" fill="#FCA886"/>
<path opacity="0.2" d="M468.19 174.475H428.587C428.372 174.477 428.159 174.436 427.961 174.352C427.764 174.268 427.586 174.144 427.44 173.988C427.294 173.832 427.183 173.647 427.114 173.446C427.046 173.245 427.02 173.032 427.04 172.821C427.083 172.375 427.29 171.961 427.623 171.656C427.955 171.352 428.39 171.179 428.843 171.17H468.446C468.661 171.167 468.874 171.208 469.072 171.291C469.27 171.375 469.447 171.499 469.593 171.654C469.739 171.81 469.85 171.994 469.919 172.195C469.988 172.396 470.013 172.609 469.993 172.821C469.953 173.267 469.746 173.683 469.413 173.989C469.081 174.294 468.645 174.467 468.19 174.475Z" fill="black"/>
<path d="M428.072 172.271C428.129 171.708 428.059 171.139 427.866 170.603C427.673 170.066 427.362 169.574 426.952 169.158C426.542 168.743 426.043 168.412 425.487 168.189C424.932 167.967 424.333 167.856 423.729 167.865H464.535C465.139 167.856 465.739 167.967 466.294 168.189C466.849 168.412 467.348 168.743 467.758 169.158C468.168 169.574 468.48 170.066 468.673 170.603C468.866 171.139 468.936 171.708 468.879 172.271H428.072Z" fill="#F0F0F0"/>
<path d="M423.708 167.865C422.433 167.884 421.21 168.373 420.275 169.237C419.34 170.102 418.759 171.28 418.645 172.545L414.467 227.082C414.353 228.347 413.773 229.525 412.839 230.39C411.905 231.254 410.682 231.743 409.407 231.763H450.19C451.465 231.743 452.688 231.254 453.623 230.39C454.558 229.526 455.139 228.348 455.253 227.082L459.432 172.545C459.545 171.28 460.125 170.102 461.059 169.238C461.994 168.373 463.216 167.884 464.491 167.865H423.708Z" fill="white"/>
<path d="M445.826 227.356C445.769 227.919 445.839 228.488 446.032 229.024C446.225 229.561 446.536 230.053 446.946 230.469C447.356 230.885 447.855 231.215 448.411 231.438C448.966 231.661 449.565 231.771 450.169 231.762H409.363C408.759 231.771 408.159 231.661 407.604 231.438C407.049 231.215 406.55 230.885 406.14 230.469C405.73 230.053 405.418 229.561 405.225 229.024C405.032 228.488 404.962 227.919 405.019 227.356H445.826Z" fill="#F0F0F0"/>
<path d="M421.789 226.254C421.945 224.427 421.317 222.949 419.322 222.949H450.673C452.667 222.949 454.168 224.619 453.143 226.254H421.789Z" fill="#E0E0E0"/>
<path d="M446.164 227.356C446.276 226.166 446.86 225.057 447.804 224.243C448.747 223.429 449.982 222.968 451.271 222.949H410.107C408.82 222.968 407.586 223.427 406.643 224.239C405.7 225.051 405.115 226.158 405 227.346L446.164 227.356Z" fill="#F0F0F0"/>
<path d="M421.632 186.493L421.835 183.388H422.52L422.315 186.493H421.632Z" fill="#00FFB6" stroke="black" stroke-width="0.2"/>
<path d="M425.71 185.124L425.882 183.388H426.923L426.617 186.493H425.514L424.125 184.706L423.971 184.508L423.947 184.758L423.775 186.493H422.737L423.044 183.388H424.135L425.532 185.176L425.686 185.373L425.71 185.124Z" fill="#00FFB6" stroke="black" stroke-width="0.2"/>
<path d="M429.133 185.711L430.23 183.388H431.272L429.575 186.493H428.343L427.178 183.388H428.274L428.946 185.696L429.02 185.949L429.133 185.711Z" fill="#00FFB6" stroke="black" stroke-width="0.2"/>
<path d="M431.551 184.955L431.552 184.955L431.552 184.947C431.565 184.515 431.741 184.105 432.044 183.801C432.364 183.518 432.78 183.372 433.205 183.393L433.205 183.394L433.217 183.393C433.419 183.377 433.622 183.404 433.813 183.473C434.002 183.541 434.175 183.648 434.321 183.787C434.447 183.94 434.54 184.117 434.593 184.309C434.647 184.502 434.66 184.704 434.63 184.903L434.629 184.903L434.629 184.914C434.617 185.219 434.534 185.518 434.386 185.784C434.256 186.004 434.068 186.184 433.844 186.304C433.583 186.436 433.292 186.5 433 186.492L433 186.492L432.993 186.492C432.709 186.503 432.427 186.447 432.168 186.329C431.96 186.22 431.791 186.046 431.688 185.833C431.564 185.558 431.517 185.255 431.551 184.955ZM432.58 184.188C432.418 184.403 432.33 184.666 432.33 184.935C432.286 185.196 432.335 185.464 432.469 185.691L432.468 185.691L432.477 185.702C432.542 185.785 432.627 185.851 432.723 185.894C432.818 185.936 432.921 185.955 433.024 185.949C433.13 185.953 433.236 185.934 433.334 185.894C433.434 185.853 433.524 185.791 433.597 185.711L433.598 185.712L433.605 185.701C433.77 185.471 433.857 185.194 433.854 184.91C433.895 184.66 433.843 184.403 433.707 184.189L433.708 184.188L433.7 184.179C433.634 184.097 433.548 184.032 433.452 183.99C433.356 183.948 433.253 183.93 433.149 183.936C433.044 183.934 432.94 183.954 432.843 183.996C432.745 184.038 432.657 184.101 432.585 184.181L432.585 184.18L432.58 184.188Z" fill="#00FFB6" stroke="black" stroke-width="0.2"/>
<path d="M435.954 186.493L436.16 183.388H436.843L436.64 186.493H435.954Z" fill="#00FFB6" stroke="black" stroke-width="0.2"/>
<path d="M440.468 185.355L441.162 185.559C441.096 185.731 441 185.891 440.877 186.033L440.877 186.033C440.75 186.181 440.586 186.297 440.399 186.373C440.172 186.459 439.928 186.499 439.683 186.492L439.683 186.492L439.676 186.492C439.388 186.502 439.102 186.453 438.837 186.348C438.615 186.242 438.436 186.071 438.328 185.861L438.327 185.861C438.179 185.578 438.122 185.261 438.164 184.948L438.165 184.948L438.165 184.936C438.174 184.507 438.355 184.097 438.674 183.789C439.009 183.512 439.446 183.369 439.891 183.391L439.891 183.392L439.903 183.391C440.226 183.371 440.548 183.451 440.819 183.618C441.018 183.771 441.161 183.976 441.233 184.206L440.497 184.359C440.48 184.308 440.456 184.259 440.428 184.213L440.428 184.212L440.426 184.209C440.368 184.12 440.285 184.049 440.188 184.001L440.188 184.001C440.088 183.952 439.978 183.928 439.866 183.929C439.741 183.926 439.616 183.952 439.504 184.006C439.391 184.06 439.293 184.141 439.221 184.241L439.221 184.241L439.218 184.244C439.085 184.445 439.013 184.678 439.01 184.916C438.96 185.184 439.003 185.46 439.133 185.702L439.138 185.71L439.144 185.718C439.209 185.797 439.292 185.859 439.387 185.899C439.48 185.939 439.581 185.957 439.683 185.952C439.778 185.957 439.874 185.943 439.965 185.913C440.057 185.881 440.142 185.832 440.214 185.767L440.214 185.768L440.221 185.761C440.33 185.642 440.414 185.504 440.468 185.355Z" fill="#00FFB6" stroke="black" stroke-width="0.2"/>
<path d="M442.547 185.945H444.384L444.338 186.493H441.465L441.733 183.388H444.553L444.512 183.894H442.715H442.623L442.615 183.986L442.572 184.513L442.563 184.621H442.671H444.304L444.264 185.093H442.604H442.513L442.505 185.185L442.448 185.836L442.438 185.945H442.547Z" fill="#00FFB6" stroke="black" stroke-width="0.2"/>
<path d="M454.506 192.102H420.424L420.497 191H454.576L454.506 192.102Z" fill="#407BFF"/>
<path d="M454.576 192.102H420.643L420.424 194.305H454.354L454.576 192.102Z" fill="#F0F0F0"/>
<path d="M453.475 197.61H420.639L420.424 199.813H453.263L453.475 197.61Z" fill="#F0F0F0"/>
<path d="M453.475 203.119H419.541L419.322 206.424H453.256L453.475 203.119Z" fill="#F0F0F0"/>
<path d="M453.475 208.627H419.541L419.322 211.932H453.256L453.475 208.627Z" fill="#F0F0F0"/>
<path d="M452.302 215.237H419.322L419.39 214.136H452.373L452.302 215.237Z" fill="#407BFF"/>
<path d="M448.305 174.475H455.678L455.344 178.882H447.966L448.305 174.475Z" fill="#F0F0F0"/>
<path d="M424.2 206.304L414.322 208.992C412.74 209.247 409 203.508 409 203.508C410.302 202.246 412.014 201.478 413.835 201.34L425.095 200.045C426.955 199.878 427.622 200.182 427.851 200.869C428.08 201.556 428.617 205.058 424.2 206.304Z" fill="#FCA886"/>
<path d="M358.401 76.1636H354.773V86H351.86V76.1636H348.299V73.9141H358.401V76.1636ZM359.638 86V73.9141H363.531C364.599 73.9141 365.559 74.1576 366.411 74.6445C367.263 75.126 367.927 75.8094 368.403 76.6948C368.885 77.5747 369.128 78.5625 369.134 79.6582V80.2144C369.134 81.3211 368.899 82.3145 368.428 83.1943C367.963 84.0687 367.305 84.7549 366.453 85.2529C365.606 85.7454 364.66 85.9945 363.614 86H359.638ZM362.551 76.1636V83.7588H363.564C364.4 83.7588 365.042 83.4627 365.49 82.8706C365.938 82.2729 366.162 81.3875 366.162 80.2144V79.6914C366.162 78.5238 365.938 77.6439 365.49 77.0518C365.042 76.4596 364.389 76.1636 363.531 76.1636H362.551ZM376.862 82.7876C376.862 82.3615 376.71 82.0295 376.405 81.7915C376.106 81.5535 375.578 81.3073 374.82 81.0527C374.062 80.7982 373.442 80.5519 372.96 80.314C371.394 79.5448 370.611 78.4878 370.611 77.1431C370.611 76.4735 370.805 75.8841 371.192 75.375C371.585 74.8604 372.139 74.4619 372.853 74.1797C373.566 73.8919 374.369 73.748 375.26 73.748C376.129 73.748 376.906 73.903 377.592 74.2129C378.284 74.5228 378.821 74.9655 379.203 75.541C379.584 76.111 379.775 76.764 379.775 77.5H376.87C376.87 77.0075 376.718 76.6257 376.414 76.3545C376.115 76.0833 375.708 75.9478 375.193 75.9478C374.673 75.9478 374.261 76.064 373.957 76.2964C373.658 76.5233 373.508 76.8138 373.508 77.168C373.508 77.4779 373.674 77.7601 374.006 78.0146C374.338 78.2637 374.922 78.5238 375.758 78.7949C376.593 79.0605 377.28 79.3483 377.816 79.6582C379.122 80.4108 379.775 81.4484 379.775 82.771C379.775 83.828 379.377 84.658 378.58 85.2612C377.783 85.8644 376.69 86.166 375.301 86.166C374.322 86.166 373.434 85.9917 372.637 85.6431C371.845 85.2889 371.248 84.8075 370.844 84.1987C370.445 83.5845 370.246 82.8789 370.246 82.082H373.168C373.168 82.7295 373.334 83.2082 373.666 83.5181C374.004 83.8224 374.549 83.9746 375.301 83.9746C375.783 83.9746 376.162 83.8722 376.438 83.6675C376.721 83.4572 376.862 83.1639 376.862 82.7876Z" fill="white"/>
<path d="M0.77764 357.775C0.77764 357.921 0.581966 357.939 0.369519 357.775C0.157071 357.611 -0.0106532 357.375 0.000528294 357.229C0.0117098 357.084 0.190611 357.065 0.408649 357.229C0.626688 357.393 0.788821 357.63 0.77764 357.775Z" fill="white"/>
<path d="M62.0101 385.561C61.9462 385.541 61.8844 385.516 61.8257 385.484L61.3079 385.223L60.932 385.026L60.5064 384.737C60.3574 384.638 60.1872 384.525 60.0169 384.398L59.4991 383.962C58.6318 383.181 57.9259 382.241 57.4208 381.192C56.7474 379.813 56.4143 378.293 56.4491 376.76L56.5981 376.922H39.9859L20.4726 376.866L14.5641 376.81L12.9539 376.774C12.7674 376.79 12.58 376.79 12.3936 376.774C12.5798 376.755 12.7677 376.755 12.9539 376.774L14.5641 376.739L20.4726 376.676L39.9859 376.626H56.5981H56.747V376.781C56.7032 378.268 57.0092 379.745 57.6407 381.094C58.1183 382.124 58.7901 383.055 59.6197 383.835C60.3592 384.485 61.1596 385.063 62.0101 385.561Z" fill="#263238"/>
<path d="M68.3549 323H15.6885V396.673H68.3549V323Z" fill="#D8D8D8"/>
<path d="M47.705 323H15.6885V344.388H47.705V323Z" fill="#00FFB6" stroke="#00FFB6" stroke-miterlimit="10" stroke-linecap="round"/>
<path d="M21.5683 339.083V328.208H19.6001V326.518H25.7673V328.208H23.8266V339.083H21.5683Z" fill="black"/>
<path d="M25.9648 339.083L28.4382 326.518H30.8491L33.3225 339.083H31.2292L30.7291 336.183H28.5783L28.0781 339.083H25.9648ZM28.8184 334.723H30.4965L29.6587 329.449L28.8184 334.723Z" fill="black"/>
<path d="M33.7178 339.083L36.2062 332.413L33.7903 326.518H35.896L37.4991 330.41L38.9021 326.518H40.8553L38.4745 332.848L41.0429 339.083H38.9346L37.184 334.863L35.656 339.083H33.7178Z" fill="black"/>
<path d="M60.855 352.863H65.4441" stroke="#263238" stroke-miterlimit="10" stroke-linecap="round"/>
<path d="M53.7476 352.863H60.0923" stroke="#263238" stroke-miterlimit="10" stroke-linecap="round"/>
<path d="M40.6025 352.863H52.6794" stroke="#263238" stroke-miterlimit="10" stroke-linecap="round"/>
<path d="M23.2568 352.863H39.8403" stroke="#263238" stroke-miterlimit="10" stroke-linecap="round"/>
<path d="M18.8774 352.863H22.3387" stroke="#263238" stroke-miterlimit="10" stroke-linecap="round"/>
<path d="M55.1255 356.386H65.4442" stroke="#263238" stroke-miterlimit="10" stroke-linecap="round"/>
<path d="M36.0186 356.386H54.2076" stroke="#263238" stroke-miterlimit="10" stroke-linecap="round"/>
<path d="M27.3833 356.386H34.796" stroke="#263238" stroke-miterlimit="10" stroke-linecap="round"/>
<path d="M18.8774 356.386H26.1601" stroke="#263238" stroke-miterlimit="10" stroke-linecap="round"/>
<path d="M43.126 359.907H65.444" stroke="#263238" stroke-miterlimit="10" stroke-linecap="round"/>
<path d="M34.5654 359.907H42.0206" stroke="#263238" stroke-miterlimit="10" stroke-linecap="round"/>
<path d="M23.6167 359.907H33.8779" stroke="#263238" stroke-miterlimit="10" stroke-linecap="round"/>
<path d="M18.8774 359.907H22.9489" stroke="#263238" stroke-miterlimit="10" stroke-linecap="round"/>
<path d="M65.1664 362.726H18.5996V393.153H65.1664V362.726Z" stroke="#263238" stroke-miterlimit="10" stroke-linecap="round"/>
<path d="M31.1265 368.501H65.0287" stroke="#263238" stroke-miterlimit="10" stroke-linecap="round"/>
<path d="M18.7373 368.501H29.9814" stroke="#263238" stroke-miterlimit="10" stroke-linecap="round"/>
<path d="M18.7373 372.586H65.029" stroke="#263238" stroke-miterlimit="10" stroke-linecap="round"/>
<path d="M58.8691 376.671H65.0289" stroke="#263238" stroke-miterlimit="10" stroke-linecap="round"/>
<path d="M18.7373 376.671H58.3341" stroke="#263238" stroke-miterlimit="10" stroke-linecap="round"/>
<path d="M37.6992 380.756H65.0291" stroke="#263238" stroke-miterlimit="10" stroke-linecap="round"/>
<path d="M18.7373 380.756H37.0114" stroke="#263238" stroke-miterlimit="10" stroke-linecap="round"/>
<path d="M29.9814 384.841H65.0291" stroke="#263238" stroke-miterlimit="10" stroke-linecap="round"/>
<path d="M18.7373 384.841H28.5283" stroke="#263238" stroke-miterlimit="10" stroke-linecap="round"/>
<path d="M38.5396 388.926H65.0291" stroke="#263238" stroke-miterlimit="10" stroke-linecap="round"/>
<path d="M18.7373 388.926H37.6241" stroke="#263238" stroke-miterlimit="10" stroke-linecap="round"/>
<path d="M54.9102 388.021V393.01" stroke="#263238" stroke-miterlimit="10" stroke-linecap="round"/>
<path d="M54.9102 366.424V387.167" stroke="#263238" stroke-miterlimit="10" stroke-linecap="round"/>
<path d="M54.9102 363.005V365.105" stroke="#263238" stroke-miterlimit="10" stroke-linecap="round"/>
<path d="M66.5105 353.508L71.9183 344.888C72.6274 343.448 68.4864 338 68.4864 338C66.9459 338.847 65.7343 340.244 65.064 341.947L60.5164 352.35C59.7979 354.082 59.883 354.817 60.4408 355.26C60.9986 355.703 64.0334 357.374 66.5105 353.508Z" fill="#FCA886"/>
<path d="M61.6561 355L61 354.572C63.1164 351.639 61.8254 350.621 61.8042 350.611L62.291 350C62.3863 350.061 64.1852 351.415 61.6561 355Z" fill="black"/>
<path d="M354.737 64.3498C356.23 65.6958 357.974 66.7346 359.87 67.4069C361.765 68.0792 363.775 68.3718 365.785 68.268C367.794 68.1642 369.764 67.6661 371.582 66.802C373.4 65.938 375.03 64.725 376.379 63.2322C376.984 62.5641 377.53 61.845 378.011 61.0829C379.552 58.6131 380.356 55.7565 380.329 52.8481C380.302 49.9397 379.446 47.1002 377.86 44.6626C376.274 42.225 374.025 40.2904 371.376 39.0856C368.727 37.8809 365.789 37.456 362.905 37.8608C360.021 38.2656 357.311 39.4833 355.094 41.3711C352.877 43.2589 351.244 45.7385 350.387 48.519C349.529 51.2995 349.483 54.2658 350.254 57.0697C351.024 59.8737 352.58 62.3991 354.737 64.3498Z" fill="#00FFB6"/>
<path d="M357.022 62.0637C358.732 63.6163 360.866 64.6266 363.153 64.9667C365.441 65.3068 367.778 64.9614 369.87 63.9743C371.962 62.9871 373.714 61.4025 374.906 59.4211C376.097 57.4397 376.673 55.1505 376.562 52.8432C376.45 50.5359 375.656 48.3142 374.28 46.4593C372.903 44.6045 371.007 43.1998 368.829 42.4231C366.652 41.6464 364.293 41.5325 362.049 42.0959C359.806 42.6593 357.779 43.8747 356.226 45.5882C355.195 46.7232 354.397 48.0497 353.879 49.4921C353.361 50.9345 353.132 52.4644 353.206 53.9944C353.28 55.5245 353.655 57.0246 354.31 58.4092C354.964 59.7938 355.886 61.0356 357.022 62.0637Z" fill="#13EE92"/>
<path d="M368.96 49.5156C368.933 49.4903 368.901 49.4706 368.866 49.4576C368.831 49.4445 368.793 49.4384 368.755 49.4395L367.232 49.458C367.135 49.0051 366.933 48.5797 366.643 48.2136L368.74 48.1881C368.818 48.1888 368.893 48.1597 368.948 48.1071C368.973 48.0803 368.993 48.0489 369.006 48.0146C369.018 47.9803 369.024 47.944 369.022 47.9076L369.011 47.021C369.012 46.9456 368.982 46.8729 368.928 46.8188C368.9 46.7936 368.868 46.7739 368.833 46.7608C368.798 46.7478 368.76 46.7416 368.723 46.7428L361.305 46.8328C361.267 46.832 361.229 46.8388 361.195 46.8527C361.16 46.8667 361.128 46.8874 361.102 46.9138C361.076 46.9403 361.055 46.9717 361.042 47.0059C361.029 47.0402 361.022 47.0767 361.023 47.1133L361.037 48.2724C361.037 48.3083 361.044 48.344 361.058 48.3772C361.073 48.4104 361.094 48.4404 361.12 48.4653C361.147 48.4918 361.179 48.5127 361.214 48.5266C361.25 48.5404 361.287 48.547 361.326 48.5459L362.616 48.5303C363.882 48.5149 364.677 48.8347 365.001 49.4897L361.319 49.5344C361.281 49.5335 361.243 49.5403 361.208 49.5542C361.173 49.5681 361.142 49.5888 361.115 49.6151C361.089 49.6415 361.068 49.6728 361.055 49.7071C361.041 49.7415 361.035 49.7782 361.037 49.8149L361.048 50.7015C361.05 50.7765 361.079 50.8484 361.131 50.9037C361.188 50.9549 361.263 50.9822 361.341 50.9797L365.138 50.9336C365.077 51.1679 364.965 51.3869 364.81 51.5759C364.655 51.7649 364.461 51.9197 364.24 52.0298C363.651 52.3106 363.001 52.4469 362.346 52.4269L361.344 52.4391C361.27 52.4423 361.199 52.4731 361.147 52.5252C361.094 52.5773 361.064 52.6468 361.063 52.7196L361.076 53.8232C361.075 53.8593 361.082 53.8953 361.096 53.9286C361.11 53.9619 361.132 53.9918 361.159 54.0162C362.316 55.1875 363.818 56.8273 365.667 58.9355C365.693 58.969 365.727 58.9958 365.766 59.0138C365.805 59.0318 365.848 59.0405 365.891 59.039L367.633 59.0179C367.687 59.021 367.741 59.0071 367.787 58.9783C367.833 58.9495 367.868 58.9073 367.887 58.8578C367.915 58.8112 367.927 58.7567 367.919 58.7032C367.912 58.6496 367.886 58.6002 367.846 58.5627C366.083 56.5058 364.698 54.9662 363.688 53.9439C364.587 53.8621 365.44 53.5186 366.135 52.9582C366.757 52.4349 367.157 51.706 367.259 50.9125L368.773 50.8941C368.811 50.8949 368.848 50.8881 368.883 50.8742C368.918 50.8603 368.95 50.8395 368.976 50.8132C369.003 50.7872 369.024 50.756 369.038 50.7216C369.051 50.6872 369.057 50.6504 369.055 50.6136L369.044 49.727C369.045 49.6881 369.039 49.6493 369.025 49.6129C369.01 49.5766 368.988 49.5434 368.96 49.5156Z" fill="#33AC89"/>
<path d="M357.186 61.6432C357.148 61.5941 357.106 61.5471 357.062 61.5026C356.967 61.403 356.839 61.2724 356.678 61.1022L356.393 60.8119C356.298 60.7004 356.197 60.5665 356.086 60.4286C355.821 60.1179 355.579 59.7879 355.363 59.4412C354.74 58.5088 354.263 57.4868 353.948 56.4104C353.169 53.8359 353.312 51.0701 354.35 48.5868C355.389 46.1036 357.259 44.0572 359.64 42.7984C360.126 42.5385 360.628 42.3125 361.145 42.122C361.4 42.0158 361.676 41.9618 361.945 41.8785C362.214 41.7927 362.49 41.7271 362.769 41.6823C363.905 41.4331 365.075 41.3755 366.23 41.5118C367.428 41.6227 368.6 41.9273 369.7 42.4137C371.988 43.4057 373.887 45.121 375.104 47.2962C375.698 48.3414 376.118 49.4759 376.348 50.6558C376.598 51.7893 376.657 52.9568 376.522 54.1101C376.47 54.6702 376.378 55.2259 376.244 55.7725C376.106 56.3034 375.931 56.8245 375.722 57.332C374.937 59.249 373.654 60.9232 372.008 62.1824C370.699 63.1768 369.195 63.8841 367.595 64.2579C365.995 64.6318 364.334 64.6638 362.721 64.3519C361.616 64.1456 360.549 63.7738 359.556 63.249C359.19 63.0666 358.838 62.8581 358.501 62.6251C358.35 62.5285 358.209 62.4443 358.091 62.3584L357.768 62.1044L357.331 61.763C357.283 61.7215 357.232 61.684 357.177 61.651C357.219 61.6986 357.265 61.7425 357.314 61.7822C357.42 61.869 357.561 61.9904 357.738 62.1413L358.058 62.4171C358.177 62.5065 358.317 62.5956 358.466 62.6972C358.8 62.9382 359.152 63.154 359.518 63.3429C360.511 63.8887 361.583 64.2782 362.695 64.4975C364.331 64.8291 366.018 64.8095 367.646 64.4399C369.273 64.0702 370.804 63.3591 372.136 62.3537C373.436 61.3801 374.518 60.1458 375.313 58.7303C376.107 57.3147 376.597 55.7491 376.749 54.134C376.808 53.5508 376.828 52.9645 376.809 52.3787C376.772 51.783 376.695 51.1905 376.577 50.6054C376.343 49.4018 375.914 48.2444 375.308 47.1781C374.064 44.9564 372.124 43.2041 369.787 42.1893C368.664 41.6942 367.468 41.3845 366.245 41.2724C365.649 41.2073 365.049 41.184 364.45 41.2025C363.865 41.2437 363.283 41.3223 362.708 41.4377C362.424 41.4848 362.144 41.5523 361.87 41.6397C361.595 41.7259 361.317 41.7967 361.054 41.894C358.541 42.8231 356.409 44.5642 354.998 46.8405C354.129 48.2642 353.573 49.8559 353.367 51.51C353.161 53.1641 353.309 54.8427 353.802 56.4343C354.13 57.5194 354.625 58.547 355.269 59.4805C355.492 59.8264 355.741 60.1547 356.014 60.4626C356.132 60.5977 356.231 60.728 356.335 60.8401C356.439 60.9522 356.542 61.0404 356.631 61.1261L357.033 61.5108C357.078 61.5618 357.129 61.6064 357.186 61.6432Z" fill="#263238"/>
<g opacity="0.3">
<path opacity="0.3" d="M357.347 61.6539C357.396 61.6048 357.05 61.2256 356.513 60.488C355.755 59.4552 355.162 58.3113 354.755 57.0968C354.48 56.2664 354.297 55.4085 354.209 54.5383C354.113 53.5444 354.145 52.5421 354.305 51.5563C354.391 51.0252 354.517 50.5011 354.68 49.9885C354.849 49.4551 355.056 48.935 355.302 48.4324C355.555 47.9113 355.85 47.411 356.182 46.9362C356.866 45.958 357.701 45.0937 358.655 44.3752C360.002 43.3645 361.558 42.6669 363.209 42.3336C364.19 42.1378 365.192 42.0678 366.191 42.1253C367.065 42.1816 367.931 42.3326 368.772 42.5755C370.002 42.9382 371.168 43.4883 372.23 44.2064C372.985 44.71 373.38 45.0484 373.428 44.9958C373.476 44.9432 373.153 44.5419 372.438 43.9276C371.408 43.0704 370.23 42.4093 368.961 41.9771C368.086 41.6747 367.178 41.4765 366.256 41.3864C365.191 41.2886 364.117 41.3344 363.063 41.5227C362.495 41.6243 361.934 41.769 361.387 41.9555C360.221 42.3505 359.124 42.9253 358.135 43.6591C357.1 44.4255 356.196 45.3551 355.459 46.4112C355.104 46.924 354.79 47.465 354.523 48.0288C354.014 49.0957 353.671 50.2336 353.504 51.4034C353.217 53.3823 353.443 55.4011 354.162 57.2663C354.639 58.517 355.344 59.6684 356.241 60.6625C356.873 61.4015 357.304 61.6967 357.347 61.6539Z" fill="black"/>
</g>
<path d="M54.297 328.493C55.4157 329.502 56.7226 330.28 58.1431 330.784C59.5636 331.288 61.0698 331.507 62.5758 331.429C64.0818 331.352 65.558 330.978 66.9202 330.331C68.2824 329.683 69.5038 328.774 70.5149 327.656C70.9684 327.155 71.3777 326.616 71.7381 326.045C72.8926 324.194 73.4951 322.053 73.475 319.874C73.455 317.694 72.8132 315.567 71.6249 313.74C70.4366 311.913 68.751 310.463 66.766 309.56C64.781 308.658 62.5788 308.339 60.4176 308.643C58.2565 308.946 56.2261 309.859 54.5645 311.273C52.903 312.688 51.6792 314.546 51.0367 316.63C50.3942 318.713 50.3597 320.936 50.9371 323.038C51.5146 325.139 52.6801 327.031 54.297 328.493Z" fill="#00FFB6"/>
<path d="M56.0091 326.78C57.2911 327.943 58.8902 328.7 60.6041 328.955C62.3181 329.21 64.0697 328.951 65.6374 328.212C67.2051 327.472 68.5184 326.284 69.4111 324.8C70.3038 323.315 70.7357 321.599 70.6522 319.87C70.5687 318.141 69.9736 316.476 68.9421 315.086C67.9106 313.696 66.4892 312.644 64.8576 312.061C63.2261 311.479 61.4578 311.394 59.7766 311.816C58.0954 312.238 56.5768 313.149 55.413 314.433C54.6401 315.284 54.0425 316.278 53.6541 317.359C53.2658 318.44 53.0944 319.586 53.1498 320.733C53.2052 321.879 53.4862 323.004 53.9768 324.041C54.4674 325.079 55.158 326.009 56.0091 326.78Z" fill="#13EE92"/>
<path d="M64.956 317.377C64.9355 317.358 64.9114 317.343 64.885 317.333C64.8586 317.323 64.8305 317.319 64.8023 317.32L63.6607 317.333C63.5878 316.994 63.4367 316.675 63.2189 316.401L64.7909 316.382C64.849 316.382 64.905 316.361 64.9467 316.321C64.9657 316.301 64.9803 316.277 64.9898 316.252C64.9993 316.226 65.0034 316.199 65.0018 316.172L64.9938 315.507C64.9943 315.451 64.9719 315.396 64.9314 315.356C64.911 315.337 64.8869 315.322 64.8605 315.312C64.8341 315.302 64.806 315.298 64.7778 315.299L59.2188 315.366C59.1906 315.366 59.1625 315.371 59.1363 315.381C59.1101 315.392 59.0864 315.407 59.0666 315.427C59.0472 315.447 59.032 315.47 59.0219 315.496C59.0118 315.522 59.0071 315.549 59.008 315.576L59.0185 316.445C59.0182 316.472 59.0235 316.499 59.0342 316.524C59.0449 316.548 59.0608 316.571 59.0807 316.59C59.1007 316.609 59.1246 316.625 59.151 316.635C59.1775 316.646 59.2059 316.651 59.2344 316.65L60.2018 316.638C61.1502 316.627 61.746 316.866 61.9891 317.357L59.2292 317.391C59.2009 317.39 59.1727 317.395 59.1465 317.406C59.1203 317.416 59.0966 317.432 59.0768 317.451C59.057 317.471 59.0416 317.494 59.0315 317.52C59.0215 317.546 59.017 317.573 59.0183 317.601L59.0264 318.265C59.0276 318.322 59.0497 318.375 59.0887 318.417C59.1313 318.455 59.1878 318.476 59.2459 318.474L62.0911 318.439C62.0454 318.615 61.9617 318.779 61.8457 318.921C61.7296 319.062 61.5839 319.178 61.4182 319.261C60.977 319.471 60.4898 319.573 59.9989 319.558L59.2485 319.567C59.1925 319.57 59.1395 319.593 59.1003 319.632C59.0611 319.671 59.0387 319.723 59.0376 319.778L59.0476 320.605C59.0466 320.632 59.0516 320.659 59.0624 320.684C59.0731 320.709 59.0893 320.731 59.1099 320.749C59.9766 321.627 61.1025 322.856 62.4876 324.436C62.5072 324.461 62.5327 324.481 62.562 324.494C62.5912 324.508 62.6234 324.514 62.6557 324.513L63.961 324.498C64.0017 324.5 64.0422 324.489 64.0764 324.468C64.1107 324.446 64.137 324.415 64.1516 324.378C64.1728 324.343 64.1812 324.302 64.1755 324.262C64.1699 324.222 64.1505 324.184 64.1205 324.156C62.7999 322.615 61.7614 321.461 61.0051 320.695C61.6786 320.634 62.3176 320.376 62.8388 319.957C63.3046 319.564 63.6047 319.018 63.681 318.423L64.8155 318.41C64.8438 318.41 64.8719 318.405 64.8981 318.395C64.9243 318.384 64.948 318.369 64.9678 318.349C64.9879 318.33 65.0036 318.306 65.0137 318.28C65.0238 318.255 65.0281 318.227 65.0264 318.199L65.0184 317.535C65.0196 317.506 65.0147 317.477 65.0039 317.45C64.9932 317.422 64.9769 317.398 64.956 317.377Z" fill="#33AC89"/>
<path d="M56.1329 326.465C56.1039 326.428 56.0728 326.393 56.0399 326.36C55.9689 326.285 55.8728 326.187 55.752 326.06L55.5385 325.842C55.4668 325.758 55.3912 325.658 55.3082 325.555C55.1095 325.322 54.9283 325.075 54.7664 324.815C54.2994 324.116 53.9418 323.35 53.7059 322.544C53.1226 320.614 53.2292 318.542 54.0074 316.681C54.7857 314.82 56.1871 313.286 57.9718 312.343C58.3355 312.148 58.7123 311.979 59.0994 311.836C59.2904 311.756 59.4977 311.716 59.6989 311.654C59.9008 311.589 60.1071 311.54 60.3163 311.507C61.1678 311.32 62.0445 311.277 62.91 311.379C63.8079 311.462 64.6861 311.69 65.5103 312.055C67.2253 312.798 68.6479 314.083 69.5598 315.713C70.0049 316.497 70.32 317.347 70.4927 318.231C70.68 319.081 70.724 319.955 70.623 320.82C70.5841 321.239 70.5144 321.656 70.4145 322.066C70.3106 322.463 70.18 322.854 70.0235 323.234C69.4347 324.671 68.4739 325.925 67.2396 326.869C66.2591 327.614 65.1323 328.144 63.933 328.424C62.7337 328.705 61.489 328.729 60.2803 328.495C59.4526 328.34 58.6531 328.062 57.909 327.668C57.6346 327.532 57.3703 327.375 57.1183 327.201C57.0052 327.128 56.8991 327.065 56.8109 327.001L56.5688 326.811L56.241 326.555C56.2051 326.524 56.1667 326.496 56.1262 326.471C56.1574 326.506 56.1917 326.539 56.2286 326.569C56.3079 326.634 56.4134 326.725 56.5465 326.838L56.7862 327.045C56.8756 327.112 56.9802 327.179 57.0917 327.255C57.3421 327.435 57.6056 327.597 57.88 327.739C58.6244 328.148 59.4276 328.44 60.2613 328.604C61.4866 328.852 62.7511 328.838 63.9709 328.561C65.1907 328.284 66.3378 327.751 67.3362 326.997C68.3103 326.268 69.1211 325.343 69.7165 324.282C70.3118 323.221 70.6786 322.048 70.7932 320.838C70.8369 320.401 70.8517 319.961 70.8375 319.522C70.8103 319.076 70.7524 318.632 70.6643 318.193C70.4883 317.291 70.1671 316.424 69.7133 315.625C68.7806 313.96 67.3271 312.647 65.5753 311.886C64.7338 311.515 63.8375 311.283 62.9212 311.199C62.4746 311.151 62.025 311.133 61.5759 311.147C61.1375 311.178 60.7015 311.237 60.2706 311.323C60.0579 311.358 59.8481 311.409 59.6427 311.475C59.4363 311.539 59.2281 311.592 59.0312 311.665C57.1478 312.361 55.5506 313.666 54.4933 315.372C53.842 316.439 53.4253 317.632 53.2707 318.871C53.1161 320.111 53.2272 321.369 53.5967 322.561C53.8428 323.375 54.2136 324.145 54.6957 324.844C54.863 325.103 55.0497 325.349 55.2544 325.58C55.3426 325.681 55.4171 325.779 55.4951 325.863C55.5731 325.947 55.6498 326.013 55.7165 326.077L56.0179 326.366C56.0514 326.404 56.0901 326.437 56.1329 326.465Z" fill="#263238"/>
<g opacity="0.3">
<path opacity="0.3" d="M56.2528 326.473C56.2897 326.436 56.03 326.152 55.6276 325.599C55.0596 324.825 54.6152 323.968 54.3102 323.058C54.1044 322.436 53.9671 321.793 53.9009 321.141C53.8289 320.396 53.8533 319.645 53.9734 318.906C54.0379 318.508 54.1318 318.115 54.2544 317.731C54.3805 317.331 54.5362 316.942 54.7202 316.565C54.9102 316.174 55.1307 315.8 55.3798 315.444C55.8927 314.711 56.518 314.063 57.2329 313.524C58.2424 312.767 59.4084 312.244 60.6455 311.995C61.3809 311.848 62.132 311.795 62.8805 311.838C63.5356 311.881 64.184 311.994 64.8145 312.176C65.7362 312.448 66.6104 312.86 67.406 313.398C67.9717 313.775 68.2679 314.029 68.3036 313.99C68.3394 313.95 68.0973 313.649 67.5615 313.189C66.79 312.547 65.9069 312.051 64.9561 311.727C64.3003 311.501 63.6199 311.352 62.9291 311.285C62.1307 311.211 61.326 311.246 60.5365 311.387C60.1103 311.463 59.6905 311.571 59.2806 311.711C58.4067 312.007 57.5843 312.438 56.8434 312.988C56.0675 313.562 55.3902 314.259 54.8381 315.05C54.5715 315.435 54.3369 315.84 54.1366 316.262C53.7551 317.062 53.4976 317.915 53.3729 318.791C53.1577 320.274 53.3274 321.787 53.8657 323.185C54.2236 324.122 54.752 324.985 55.4242 325.73C55.8976 326.284 56.2201 326.505 56.2528 326.473Z" fill="black"/>
</g>
</svg>
