<svg width="35" height="40" viewBox="0 0 35 40" fill="none" xmlns="http://www.w3.org/2000/svg">
<path d="M8.28103 39.7775C8.07544 39.5255 7.80197 39.3036 7.67784 39.0165C7.09599 37.6648 6.54419 36.2975 5.99822 34.9292C5.90124 34.6956 5.7936 34.6148 5.5434 34.6499C4.12658 34.8513 2.70783 35.0391 1.28907 35.2338L1.02045 35.2698C0.669396 35.3155 0.341618 35.2785 0.127302 34.9525C-0.0870151 34.6265 -0.00458587 34.2947 0.181608 33.9716C1.86963 31.0339 3.5541 28.0955 5.23502 25.1565C5.65202 24.4286 6.06804 23.6967 6.48116 22.9766C1.39381 16.5127 3.00458 7.82904 8.46625 3.28332C11.0012 1.16189 14.1974 0 17.4981 0C20.7988 0 23.995 1.16189 26.5299 3.28332C31.9839 7.81931 33.6092 16.5117 28.516 22.9766C29.3209 24.3825 30.129 25.7933 30.9404 27.2089C32.2056 29.418 33.4715 31.6272 34.738 33.8363C34.7894 33.9268 34.8447 34.0144 34.8902 34.1068C35.1996 34.7336 34.8262 35.3418 34.1319 35.2746C33.0293 35.1627 31.9325 34.9953 30.8347 34.8494C30.3741 34.7881 29.9134 34.7326 29.4557 34.6547C29.2055 34.6119 29.095 34.6995 29.0019 34.9331C28.4549 36.3004 27.906 37.6677 27.3222 39.0204C27.1981 39.3124 26.9237 39.5294 26.7181 39.7814H26.2536C26.0499 39.5411 25.8036 39.326 25.6475 39.0574C23.6187 35.5533 21.5987 32.0469 19.5874 28.5383C19.4381 28.2775 19.2965 28.1704 18.9639 28.1841C17.9864 28.2249 17.0059 28.2249 16.0284 28.1841C15.6977 28.1704 15.5542 28.2814 15.4049 28.5383C13.3936 32.0482 11.3752 35.5549 9.3497 39.0584C9.19454 39.327 8.94822 39.5449 8.7436 39.7824L8.28103 39.7775ZM30.0453 14.1352C30.0531 7.22567 24.4207 1.56177 17.5131 1.54036C10.6278 1.51992 4.98579 7.16631 4.95185 14.1041C4.91694 21.0137 10.5988 26.7223 17.5015 26.7184C24.4042 26.7146 30.0366 21.0565 30.0453 14.1352ZM8.61366 37.2375L14.0239 27.8357C11.5404 27.1856 9.42147 25.9603 7.5828 24.1755L2.23847 33.5015C2.34029 33.5015 2.38878 33.5073 2.43242 33.5015C3.50691 33.3604 4.5814 33.2271 5.65298 33.0675C5.80773 33.0248 5.94093 32.9255 6.02634 32.7891C6.38418 32.2364 6.7139 31.6651 7.06398 31.1065C7.37043 30.6199 7.80197 30.4749 8.20151 30.7172C8.60105 30.9596 8.6796 31.417 8.38867 31.9055C8.0512 32.4719 7.69627 33.0276 7.36364 33.5969C7.29963 33.7059 7.24436 33.8781 7.28509 33.9862C7.70887 35.0586 8.15108 36.1135 8.61366 37.2395V37.2375ZM20.9732 27.8376L26.3825 37.2366C26.8451 36.1106 27.2844 35.0625 27.6995 34.0056C27.7441 33.8927 27.6878 33.7049 27.6199 33.5862C27.2893 33.0159 26.9334 32.4602 26.5969 31.8938C26.3486 31.4763 26.3661 31.1425 26.6289 30.8603C27.0042 30.4584 27.5608 30.5353 27.8954 31.0549C28.2648 31.6311 28.6013 32.2296 28.9766 32.8067C29.0789 32.9453 29.2283 33.0416 29.3965 33.0772C29.9406 33.1745 30.4924 33.2388 31.0451 33.3098C31.5979 33.3808 32.1507 33.4499 32.7752 33.5278L27.4153 24.1755C25.6259 25.9435 23.404 27.2072 20.9732 27.8396V27.8376Z" fill="white"/>
<path d="M13.3684 19.0124C13.5294 18.0548 13.7156 17.0105 13.8717 15.9624C13.8806 15.8741 13.8717 15.785 13.8456 15.7002C13.8194 15.6154 13.7765 15.5368 13.7195 15.469C13.0319 14.7674 12.326 14.0842 11.6161 13.4049C11.3387 13.1402 11.1942 12.8405 11.3193 12.4677C11.4444 12.095 11.7422 11.9811 12.101 11.9354C13.0707 11.8011 14.0405 11.6434 15.0102 11.5101C15.1041 11.5039 15.1942 11.4704 15.2694 11.4137C15.3447 11.3571 15.4019 11.2796 15.434 11.1909C15.853 10.3151 16.2903 9.45282 16.7131 8.58085C16.8751 8.24705 17.0807 7.98624 17.4889 7.98234C17.8972 7.97845 18.1096 8.23342 18.2725 8.56625C18.7021 9.4499 19.1307 10.3335 19.5826 11.2045C19.6249 11.2757 19.6811 11.3375 19.7477 11.3863C19.8144 11.4352 19.8902 11.47 19.9706 11.4887C20.9616 11.6561 21.9576 11.8001 22.9535 11.9412C23.3026 11.9909 23.5742 12.1359 23.6808 12.4862C23.7875 12.8366 23.6721 13.1149 23.4161 13.3621C22.7101 14.0433 22.0148 14.7391 21.3049 15.4184C21.1333 15.5838 21.0596 15.7279 21.111 15.9867C21.2982 16.9599 21.4475 17.9487 21.6143 18.9306C21.6734 19.2761 21.6143 19.5797 21.3146 19.7919C21.015 20.004 20.7124 19.9602 20.404 19.7919C19.539 19.3296 18.6682 18.882 17.807 18.4129C17.7176 18.3536 17.613 18.3216 17.5058 18.3205C17.3986 18.3195 17.2934 18.3495 17.2029 18.407C16.3204 18.8936 15.4321 19.3617 14.5351 19.8162C13.9251 20.1315 13.3461 19.7627 13.3684 19.0124ZM17.4977 10.5087C17.1612 11.1899 16.8557 11.7982 16.5619 12.4103C16.497 12.5664 16.39 12.7012 16.253 12.7995C16.1159 12.8979 15.9542 12.9559 15.786 12.967C15.5679 12.9884 15.3506 13.0224 15.1344 13.0565C14.6863 13.1256 14.2383 13.1976 13.8029 13.2667C14.2878 13.7786 14.7455 14.2681 15.2149 14.7459C15.4699 15.0048 15.5834 15.2822 15.5106 15.6549C15.3797 16.3244 15.2808 17.0008 15.1576 17.7414C15.7928 17.4066 16.3766 17.1127 16.9468 16.7925C17.1103 16.6886 17.2996 16.633 17.4931 16.6321C17.6866 16.6313 17.8764 16.6852 18.0407 16.7877C18.6119 17.1078 19.1977 17.4027 19.8406 17.7414C19.7281 17.0923 19.6467 16.5045 19.5206 15.9284C19.3994 15.3843 19.5012 14.963 19.9366 14.5786C20.372 14.1941 20.7687 13.7144 21.1973 13.2609C20.5708 13.1636 19.9512 13.0448 19.3247 12.9855C18.8398 12.9397 18.5547 12.7032 18.3608 12.275C18.1028 11.7018 17.8119 11.1471 17.4977 10.5087Z" fill="#00FFB6"/>
<path d="M27.5656 13.9773C27.5181 15.7232 27.2272 17.0525 26.6531 18.3186C26.4271 18.8169 26.0315 19.033 25.6154 18.8656C25.1781 18.6894 25.0074 18.2486 25.2324 17.7279C25.8821 16.2214 26.1449 14.6644 25.9403 13.0284C25.3788 8.53917 21.2855 5.22063 16.812 5.62644C15.7321 5.71448 14.6789 6.00845 13.7087 6.49257C13.5599 6.56989 13.4064 6.63782 13.2491 6.69597C12.836 6.84389 12.4355 6.69597 12.2609 6.33492C12.2135 6.24559 12.1847 6.14749 12.1764 6.04662C12.168 5.94574 12.1803 5.84423 12.2125 5.74829C12.2446 5.65234 12.2959 5.564 12.3633 5.48866C12.4306 5.41332 12.5126 5.35258 12.6042 5.31016C13.3878 4.95495 14.1752 4.56568 15.0034 4.35936C19.8842 3.14289 24.6932 5.52718 26.7375 10.142C27.2729 11.3498 27.5549 12.6554 27.5656 13.9773Z" fill="white"/>
<path d="M7.38867 13.9708C7.4508 12.6985 7.72551 11.4458 8.20133 10.2649C8.46995 9.61482 8.84137 9.36861 9.32237 9.55838C9.78882 9.74328 9.90423 10.1929 9.63657 10.8488C9.16529 11.9744 8.9439 13.1895 8.9878 14.4097C9.02467 15.5708 9.29765 16.7122 9.78998 17.7636C10.2823 18.8151 10.9836 19.7545 11.8508 20.5241C12.718 21.2938 13.7328 21.8774 14.8329 22.2392C15.9329 22.601 17.0951 22.7334 18.248 22.6282C19.2516 22.5479 20.2316 22.2809 21.1379 21.8409C21.2999 21.762 21.4618 21.6803 21.6305 21.6151C22.0602 21.4506 22.4781 21.5937 22.6595 21.9596C22.8534 22.3489 22.7196 22.7907 22.2842 23.0058C21.7245 23.2987 21.1432 23.5479 20.5454 23.7512C18 24.5622 15.2379 24.3255 12.8665 23.0931C10.4951 21.8607 8.70851 19.7335 7.89974 17.1793C7.76329 16.7612 7.66113 16.3325 7.59426 15.8977C7.50116 15.2593 7.45559 14.6131 7.38867 13.9708Z" fill="white"/>
<path d="M24.161 19.8672C24.3619 19.8664 24.5551 19.9446 24.6993 20.085C24.8434 20.2254 24.9269 20.417 24.932 20.6185C24.9262 20.8263 24.8425 21.0243 24.6976 21.1729C24.5527 21.3216 24.3573 21.4099 24.1504 21.4204C23.9446 21.419 23.7479 21.3356 23.6034 21.1886C23.4589 21.0416 23.3785 20.843 23.3799 20.6365C23.3813 20.43 23.4644 20.2325 23.6109 20.0875C23.7574 19.9425 23.9553 19.8619 24.161 19.8633V19.8672Z" fill="#00FFB6"/>
<path d="M10.6772 8.55296C10.4765 8.55274 10.2838 8.47353 10.1405 8.33234C9.9973 8.19115 9.91494 7.99922 9.91113 7.79777C9.91893 7.59057 10.004 7.39385 10.1495 7.2466C10.2949 7.09935 10.4902 7.0123 10.6966 7.00269C10.8889 7.02307 11.0666 7.11476 11.195 7.25978C11.3234 7.4048 11.3933 7.59271 11.3908 7.78669C11.3884 7.98068 11.3139 8.16677 11.1819 8.30851C11.0499 8.45025 10.8699 8.53742 10.6772 8.55296Z" fill="#00FFB6"/>
</svg>
