<?xml version="1.0" encoding="utf-8"?>
<!-- Generator: Adobe Illustrator 25.0.1, SVG Export Plug-In . SVG Version: 6.00 Build 0)  -->
<svg version="1.1" id="Layer_1" xmlns="http://www.w3.org/2000/svg" xmlns:xlink="http://www.w3.org/1999/xlink" x="0px" y="0px"
	 viewBox="0 0 281.2 71.9" style="enable-background:new 0 0 281.2 71.9;" xml:space="preserve">
<style type="text/css">
	.st0{fill:#F26765;}
	.st1{fill:#704B9E;}
</style>
<path class="st0" d="M82.1,46.4V21.2h9.3c2,0,3.7,0.3,5,1s2.3,1.6,3,2.8c0.6,1.2,1,2.5,1,4c0,1.4-0.3,2.7-0.9,3.8
	c-0.6,1.2-1.6,2.1-2.9,2.8c-1.3,0.7-3,1.1-5.1,1.1h-4.7v9.8H82.1z M86.7,32.9h4.4c1.6,0,2.8-0.4,3.5-1.1c0.7-0.7,1.1-1.7,1.1-2.9
	c0-1.2-0.4-2.2-1.1-2.9c-0.7-0.7-1.9-1.1-3.5-1.1h-4.4V32.9z"/>
<path class="st0" d="M108.9,46.8c-1.5,0-2.8-0.2-3.8-0.7s-1.7-1.1-2.2-2c-0.5-0.8-0.7-1.7-0.7-2.7c0-1.7,0.6-3,1.9-4
	c1.3-1,3.2-1.5,5.8-1.5h4.5v-0.4c0-1.2-0.3-2.1-1-2.7c-0.7-0.6-1.6-0.9-2.6-0.9c-0.9,0-1.8,0.2-2.4,0.7c-0.7,0.4-1.1,1.1-1.3,2h-4.5
	c0.1-1.3,0.6-2.4,1.3-3.4s1.7-1.7,2.9-2.2c1.2-0.5,2.5-0.8,4-0.8c2.5,0,4.5,0.6,6,1.9c1.5,1.3,2.2,3.1,2.2,5.4v11h-3.9l-0.4-2.9
	c-0.5,1-1.3,1.8-2.2,2.4C111.6,46.5,110.4,46.8,108.9,46.8z M109.9,43.2c1.3,0,2.3-0.4,3.1-1.3c0.7-0.9,1.2-1.9,1.4-3.2h-3.9
	c-1.2,0-2.1,0.2-2.6,0.7c-0.5,0.4-0.8,1-0.8,1.6c0,0.7,0.3,1.2,0.8,1.6C108.4,43,109.1,43.2,109.9,43.2z"/>
<path class="st0" d="M125.1,54.3l4.1-9.1h-1.1l-6.9-16.7h5l5,12.6l5.2-12.6h4.9L130,54.3H125.1z"/>
<path class="st0" d="M144.4,46.4V28.5h4.1l0.4,3.3c0.6-1.2,1.5-2.1,2.6-2.8c1.1-0.7,2.4-1,3.9-1V33h-1.3c-1,0-1.9,0.2-2.7,0.5
	c-0.8,0.3-1.4,0.9-1.9,1.6c-0.4,0.8-0.7,1.8-0.7,3.2v8.1H144.4z"/>
<path class="st0" d="M166.9,46.8c-1.7,0-3.3-0.4-4.7-1.2c-1.4-0.8-2.5-1.9-3.3-3.3c-0.8-1.4-1.2-3-1.2-4.9c0-1.8,0.4-3.5,1.2-4.9
	c0.8-1.4,1.9-2.5,3.3-3.3c1.4-0.8,2.9-1.2,4.7-1.2c1.7,0,3.2,0.4,4.6,1.2s2.5,1.9,3.3,3.3c0.8,1.4,1.2,3,1.2,4.9
	c0,1.8-0.4,3.5-1.2,4.9c-0.8,1.4-1.9,2.5-3.3,3.3C170.1,46.4,168.6,46.8,166.9,46.8z M166.9,42.8c1.2,0,2.2-0.5,3.1-1.4
	c0.9-0.9,1.3-2.2,1.3-4c0-1.8-0.4-3.1-1.3-4c-0.9-0.9-1.9-1.4-3.1-1.4c-1.2,0-2.3,0.5-3.1,1.4c-0.9,0.9-1.3,2.2-1.3,4
	c0,1.8,0.4,3.1,1.3,4C164.7,42.4,165.7,42.8,166.9,42.8z"/>
<path class="st0" d="M180.1,46.4V20.5h4.6v25.9H180.1z"/>
<path class="st0" d="M189.5,46.4V20.5h4.6v25.9H189.5z"/>
<path class="st1" d="M198.9,46.4V21.2h16.5v3.7h-11.8v6.9h10.8v3.6h-10.8v7.3h11.8v3.7H198.9z"/>
<path class="st1" d="M225.7,46.8c-1.5,0-2.8-0.2-3.8-0.7s-1.7-1.1-2.2-2c-0.5-0.8-0.7-1.7-0.7-2.7c0-1.7,0.6-3,1.9-4
	c1.3-1,3.2-1.5,5.8-1.5h4.5v-0.4c0-1.2-0.3-2.1-1-2.7c-0.7-0.6-1.6-0.9-2.6-0.9c-0.9,0-1.8,0.2-2.4,0.7c-0.7,0.4-1.1,1.1-1.3,2h-4.5
	c0.1-1.3,0.6-2.4,1.3-3.4s1.7-1.7,2.9-2.2c1.2-0.5,2.5-0.8,4-0.8c2.5,0,4.5,0.6,6,1.9c1.5,1.3,2.2,3.1,2.2,5.4v11H232l-0.4-2.9
	c-0.5,1-1.3,1.8-2.2,2.4C228.5,46.5,227.2,46.8,225.7,46.8z M226.8,43.2c1.3,0,2.3-0.4,3.1-1.3c0.7-0.9,1.2-1.9,1.4-3.2h-3.9
	c-1.2,0-2.1,0.2-2.6,0.7c-0.5,0.4-0.8,1-0.8,1.6c0,0.7,0.3,1.2,0.8,1.6C225.2,43,225.9,43.2,226.8,43.2z"/>
<path class="st1" d="M247.7,46.8c-1.6,0-3-0.3-4.2-0.8c-1.2-0.5-2.2-1.2-2.9-2.1c-0.7-0.9-1.2-2-1.3-3.2h4.6
	c0.1,0.7,0.5,1.3,1.2,1.8c0.6,0.5,1.5,0.7,2.5,0.7s1.7-0.2,2.2-0.6c0.5-0.4,0.7-0.9,0.7-1.4c0-0.8-0.3-1.3-1-1.6s-1.6-0.5-2.8-0.8
	c-0.8-0.2-1.5-0.4-2.3-0.6c-0.8-0.2-1.5-0.5-2.2-0.9c-0.7-0.4-1.2-0.9-1.6-1.4c-0.4-0.6-0.6-1.3-0.6-2.2c0-1.6,0.6-2.9,1.9-4
	c1.3-1.1,3-1.6,5.3-1.6c2.1,0,3.8,0.5,5.1,1.5c1.3,1,2,2.3,2.2,4.1h-4.4c-0.3-1.3-1.3-2-3-2c-0.9,0-1.5,0.2-2,0.5
	c-0.5,0.3-0.7,0.8-0.7,1.3c0,0.5,0.3,0.9,1,1.3c0.7,0.3,1.6,0.6,2.8,0.9c1.2,0.3,2.4,0.6,3.4,1c1,0.3,1.9,0.9,2.5,1.5
	s0.9,1.7,0.9,2.9c0,1.1-0.3,2.1-0.9,3c-0.6,0.9-1.5,1.6-2.6,2.1C250.6,46.6,249.3,46.8,247.7,46.8z"/>
<path class="st1" d="M267.9,46.8c-1.8,0-3.4-0.4-4.8-1.2c-1.4-0.8-2.5-1.8-3.3-3.2c-0.8-1.4-1.2-3-1.2-4.8c0-1.8,0.4-3.5,1.2-4.9
	c0.8-1.4,1.9-2.6,3.2-3.4c1.4-0.8,3-1.2,4.9-1.2c1.8,0,3.3,0.4,4.6,1.2c1.3,0.8,2.4,1.8,3.1,3.2s1.1,2.8,1.1,4.4c0,0.3,0,0.5,0,0.8
	c0,0.3,0,0.6-0.1,0.9h-13.6c0.1,1.4,0.6,2.5,1.5,3.3s1.9,1.2,3.2,1.2c0.9,0,1.7-0.2,2.4-0.6c0.6-0.4,1.1-1,1.4-1.6h4.7
	c-0.3,1.1-0.9,2.2-1.7,3.1c-0.8,0.9-1.7,1.7-2.9,2.2C270.7,46.6,269.4,46.8,267.9,46.8z M268,31.9c-1.1,0-2.1,0.3-3,1
	c-0.9,0.6-1.4,1.6-1.7,2.9h8.9c-0.1-1.2-0.5-2.1-1.3-2.8C270.1,32.2,269.2,31.9,268,31.9z"/>
<g>
	<path class="st0" d="M23.3,43.8c-1.4-1.5-2.1-3.3-2.1-5.6c0-2.3,0.7-4.2,2.1-5.7c1.4-1.5,3.2-2.2,5.4-2.2c2.2,0,3.9,0.7,5.4,2.2
		c1.4,1.5,2.1,3.4,2.1,5.7c0,2.3-0.7,4.2-2.1,5.6c-1.4,1.5-3.2,2.2-5.4,2.2C26.5,46,24.7,45.3,23.3,43.8z"/>
	<path class="st0" d="M45.1,34.1c-0.8,0-1.3-0.8-1-1.5c0.4-1.2,1.1-2.1,2-2.8c1.3-0.9,2.7-1.4,4.4-1.4c1.7,0,3.2,0.5,4.4,1.5
		c0.9,0.8,1.5,1.9,1.8,3.2c0.1,0.5-0.3,0.9-0.8,0.9H45.1z"/>
	<path class="st0" d="M69.3,36c0,18.7-15.2,33.9-33.9,33.9c-5,0-9.8-1.1-14.1-3.1V49.4c0-0.6,0.7-0.8,1-0.5c0.7,0.7,1.6,1.4,2.5,1.8
		c1.5,0.7,3.2,1.1,5.2,1.1c2.5,0,4.7-0.6,6.6-1.8c1.5-0.9,2.8-2.1,3.8-3.6c0.8,0.8,1.8,1.6,2.9,2.2c2.1,1.1,4.4,1.7,7.1,1.7
		c2.1,0,4-0.4,5.7-1.2c1.7-0.8,3.1-1.8,4.2-3.2c0.8-0.9,1.4-1.9,1.9-3c0.3-0.7-0.2-1.6-1.1-1.6h-3.3c-1.1,0-2.1,0.5-2.8,1.4
		c-0.3,0.4-0.8,0.8-1.2,1.1c-0.9,0.6-2.1,0.9-3.5,0.9c-1.8,0-3.4-0.6-4.7-1.8c-1.1-1-1.8-2.3-2.1-4c-0.1-0.5,0.3-0.9,0.7-0.9h17.9
		c0.7,0,1.4-0.6,1.4-1.3v0c0-0.4,0-0.8,0-1.2c0-2.4-0.6-4.6-1.7-6.5c-1.1-2-2.7-3.5-4.6-4.6c-2-1.1-4.3-1.7-6.8-1.7
		c-2.8,0-5.2,0.6-7.2,1.8c-1.6,0.9-2.9,2.2-4,3.7c-0.8-0.8-1.6-1.5-2.6-2.1c-1.9-1.2-4.2-1.8-6.6-1.8c-2.2,0-4,0.4-5.4,1.3
		c-1.1,0.7-2.1,1.5-2.8,2.4c-0.2,0.3-0.6,0.1-0.7-0.2l-0.3-1.8c-0.1-0.6-0.7-1.1-1.4-1.1h-3.4c-0.8,0-1.5,0.7-1.5,1.5v36.2
		c-7.9-6.2-13-15.8-13-26.7c0-18.7,15.2-33.9,33.9-33.9C54.2,2.1,69.3,17.3,69.3,36z"/>
</g>
</svg>
