<svg width="39" height="39" viewBox="0 0 39 39" fill="none" xmlns="http://www.w3.org/2000/svg">
<g clip-path="url(#clip0_63:11464)">
<path d="M24.5723 38.9999C24.4346 37.9819 24.3041 36.9638 24.1613 35.9457C24.1099 35.5914 23.3567 35.2015 23.0145 35.3348C22.0783 35.7074 21.1442 36.0841 20.1783 36.472L16.8457 30.7646L17.8445 29.9909C18.198 29.718 18.5259 29.3994 18.9122 29.1825C19.4487 28.8822 19.5473 28.4383 19.4682 27.9099C19.4314 27.7688 19.3469 27.6444 19.2287 27.5576C18.4488 26.9407 17.6585 26.3359 16.8539 25.7149C16.9228 25.5866 16.9772 25.4756 17.0399 25.3687C18.0182 23.6879 19.0037 22.0091 19.9707 20.3221C20.1197 20.0635 20.242 19.9953 20.5318 20.1185C21.3292 20.4636 22.141 20.7751 22.9477 21.0989C23.4245 21.2903 24.115 20.8759 24.1808 20.3638C24.3103 19.4089 24.4459 18.4549 24.5816 17.4806H31.2518C31.3587 18.2272 31.4659 18.9738 31.5735 19.7204C31.603 19.831 31.6179 19.945 31.6177 20.0594C31.5334 20.709 32.0205 20.9258 32.4706 21.1528C32.5733 21.2017 32.7398 21.1579 32.858 21.1111C33.7828 20.7497 34.7077 20.376 35.6685 19.9912L39.0011 25.7057L37.9457 26.5202C37.4915 26.8714 37.0352 27.2217 36.5821 27.5749C36.2738 27.8162 36.2655 28.6388 36.5759 28.8801C37.3702 29.4991 38.1697 30.112 39 30.7524L35.6706 36.473C34.7056 36.0852 33.7715 35.7085 32.8354 35.3358C32.4973 35.2015 31.7348 35.5955 31.6844 35.9467C31.5375 36.9648 31.407 37.9829 31.2734 39.001L24.5723 38.9999ZM35.9932 31.3388C35.3767 30.8593 34.7724 30.3869 34.161 29.9288C33.9863 29.7995 33.9452 29.663 33.9555 29.4493C33.975 28.6409 33.9781 27.8325 33.9555 27.0242C33.9425 26.9261 33.9576 26.8264 33.999 26.7364C34.0405 26.6464 34.1065 26.5697 34.1898 26.5151C34.793 26.0682 35.3808 25.5988 35.9973 25.1254L34.6748 22.8561C33.9349 23.1544 33.2228 23.4334 32.5168 23.7296C32.3175 23.8131 32.1839 23.7754 32.003 23.6634C31.3104 23.2389 30.6013 22.8378 29.8871 22.4499C29.7042 22.3481 29.5922 22.2697 29.5655 22.0426C29.4782 21.2893 29.36 20.5389 29.248 19.7784H26.5978C26.4878 20.5399 26.3624 21.2658 26.2895 21.9968C26.2607 22.2778 26.1179 22.3644 25.898 22.4784C25.2469 22.7976 24.6159 23.1552 24.0082 23.5494C23.7061 23.753 23.4944 23.8131 23.1563 23.6634C22.5089 23.3723 21.8409 23.1269 21.1699 22.8581C20.7188 23.6339 20.2923 24.3669 19.8504 25.1244C20.467 25.5978 21.0486 26.0682 21.6539 26.511C21.8594 26.6607 21.8954 26.8165 21.8882 27.0537C21.8656 27.8366 21.8605 28.6205 21.8882 29.4034C21.9026 29.5132 21.8856 29.6247 21.839 29.7254C21.7925 29.826 21.7184 29.9116 21.6251 29.9725C21.0322 30.4124 20.4526 30.8715 19.8474 31.3388L21.1699 33.6061C21.9057 33.3119 22.6188 33.0339 23.3279 32.7387C23.5283 32.6542 23.6608 32.6847 23.8479 32.7998C24.5405 33.2264 25.2485 33.6295 25.9647 34.0144C26.1518 34.1162 26.2576 34.1956 26.2843 34.4216C26.3717 35.175 26.4899 35.9253 26.6008 36.6828H29.249C29.359 35.9131 29.4771 35.174 29.5645 34.4308C29.5902 34.2078 29.6878 34.1192 29.8779 34.0235C30.5521 33.6926 31.2064 33.3235 31.8376 32.9179C32.1572 32.702 32.3863 32.6603 32.7316 32.8161C33.3646 33.1042 34.0212 33.3434 34.6779 33.6061L35.9932 31.3388Z" fill="white"/>
<path d="M21.3518 7.93906C20.5728 8.54076 19.8103 9.12514 19.0592 9.71156C18.7015 9.98848 18.7046 10.7062 19.0592 10.9842C19.8155 11.5706 20.5728 12.154 21.3466 12.7516L18.1148 18.2981C17.2238 17.9428 16.3483 17.5946 15.4748 17.2434C15.0042 17.054 14.3784 17.3859 14.3044 17.8797C14.1657 18.8072 14.0403 19.7367 13.9067 20.6856H7.43273C7.32997 19.9352 7.21693 19.1747 7.10801 18.4132C7.08292 18.315 7.07015 18.2141 7.06998 18.1128C7.13986 17.5315 6.67846 17.3757 6.29414 17.1742C6.20782 17.1273 6.04956 17.1742 5.93961 17.2169C5.16581 17.5223 4.39819 17.8329 3.62542 18.1434C3.498 18.1943 3.36955 18.2452 3.22362 18.3002L0 12.7546L2.26075 11.0086C2.65535 10.7032 2.65227 9.98543 2.25561 9.67796L0.00411055 7.93805L3.23698 2.38844C4.11251 2.73968 4.96338 3.08176 5.81629 3.42078C5.94286 3.478 6.08134 3.50463 6.22032 3.49847C6.3593 3.49231 6.49482 3.45353 6.61573 3.38534C6.73663 3.31715 6.83946 3.22149 6.91575 3.10623C6.99205 2.99097 7.03963 2.85941 7.05457 2.72237C7.18199 1.83052 7.31182 0.939017 7.44404 0.0478488C7.44404 0.0376679 7.45739 0.0285065 7.48 0H13.9118C14.0033 0.638342 14.0968 1.27567 14.1883 1.91401C14.216 2.10235 14.2777 2.29477 14.2602 2.47905C14.2057 3.06038 14.5798 3.3149 15.0299 3.50325C15.1595 3.53763 15.2971 3.52647 15.4193 3.47169C16.3093 3.1235 17.1951 2.75902 18.122 2.39048L21.3518 7.93906ZM9.44891 2.28663C9.34615 3.02169 9.23414 3.71195 9.15296 4.40426C9.12418 4.65267 9.00704 4.75448 8.78918 4.86647C8.12329 5.2116 7.4687 5.57913 6.83672 5.98637C6.61475 6.12686 6.45753 6.16759 6.22015 6.06374C5.56659 5.78377 4.90275 5.53026 4.22966 5.26047L3.00783 7.35977C3.59973 7.81791 4.168 8.26995 4.75477 8.70162C4.83476 8.75021 4.89659 8.8233 4.9309 8.90983C4.9652 8.99635 4.97011 9.0916 4.94488 9.18114C4.79229 9.94305 4.79229 10.7272 4.94488 11.4891C4.97147 11.5846 4.96578 11.686 4.92866 11.778C4.89154 11.8699 4.82505 11.9473 4.73936 11.9982C4.15567 12.4278 3.58946 12.8809 3.0068 13.3319L4.22555 15.4342C4.90686 15.1614 5.57172 14.9038 6.22734 14.6259C6.45136 14.5312 6.60345 14.5597 6.81616 14.6941C7.46048 15.1013 8.12637 15.474 8.80049 15.8313C8.99882 15.9331 9.11802 16.0268 9.14679 16.264C9.23208 16.9767 9.34615 17.6893 9.45508 18.4091H11.9018C12.0046 17.7178 12.1125 17.0316 12.1875 16.3414C12.2183 16.0634 12.3416 15.9463 12.5872 15.8201C13.2542 15.478 13.9036 15.0973 14.5397 14.7002C14.7452 14.5678 14.8994 14.5292 15.1285 14.6269C15.7831 14.9079 16.448 15.1634 17.1303 15.4414L18.3532 13.3411C17.7818 12.8982 17.2485 12.4604 16.6884 12.0623C16.4428 11.8872 16.4059 11.7091 16.4192 11.427C16.4562 10.7203 16.4562 10.0121 16.4192 9.30534C16.4017 8.98973 16.4655 8.7963 16.7275 8.61202C17.2845 8.217 17.8137 7.7833 18.3542 7.36486L17.1221 5.25843C16.4418 5.53128 15.7862 5.78071 15.145 6.05967C14.9025 6.16148 14.7432 6.1289 14.5212 5.98637C13.9045 5.58256 13.265 5.21409 12.6057 4.88276C12.3201 4.74226 12.2122 4.59668 12.1803 4.29736C12.1073 3.62236 11.9933 2.95144 11.8967 2.28663H9.44891Z" fill="white"/>
<path d="M3.13732 24.989H5.42684C5.43301 25.1315 5.44431 25.2649 5.44431 25.3962C5.44431 26.3492 5.44431 27.3011 5.44431 28.253C5.4515 30.4511 6.91997 31.9069 9.12831 31.911C9.40806 31.922 9.68803 31.8957 9.96067 31.8326L8.93306 30.9601C9.28759 30.6211 9.56401 30.3635 9.83119 30.0978C10.0984 29.8321 10.345 29.5674 10.5659 29.3352L14.3815 33.0411L10.6101 36.6981L9.05637 35.1231L9.98123 34.3086L9.92676 34.1966H9.03479C6.09787 34.1915 3.74464 32.2785 3.237 29.4258C3.11368 28.7325 3.15376 28.0097 3.1404 27.3001C3.12704 26.5426 3.13732 25.7841 3.13732 24.989Z" fill="#58D4FF"/>
<path d="M36.1474 13.9905H33.8784C33.8722 13.8449 33.8609 13.7116 33.8599 13.5772C33.8599 12.5998 33.8671 11.6224 33.8599 10.6451C33.8393 8.52236 32.3565 7.07361 30.2119 7.06852H29.2767L30.2756 7.9848L28.6006 9.65549L24.8611 5.99953L28.7013 2.27332L30.2509 3.85543L29.2809 4.63529C29.3137 4.6923 29.3456 4.75033 29.3785 4.80836C29.9087 4.80836 30.4451 4.7544 30.9672 4.81753C33.8733 5.16877 35.9285 7.26807 36.133 10.1635C36.2214 11.4209 36.1474 12.6955 36.1474 13.9905Z" fill="#58D4FF"/>
<path d="M27.9161 31.5628C25.9544 31.5628 24.4808 30.0936 24.4664 28.1328C24.453 26.2717 26.0191 24.7344 27.9264 24.7365C28.8333 24.734 29.7044 25.0865 30.3503 25.7172C30.9962 26.3479 31.3645 27.2059 31.375 28.1043C31.3884 30.0702 29.8922 31.5658 27.9161 31.5628ZM27.9161 27.0272C27.7651 27.0244 27.6151 27.0519 27.4751 27.108C27.3351 27.1641 27.208 27.2477 27.1014 27.3538C26.9949 27.4598 26.9111 27.5861 26.8551 27.7251C26.799 27.864 26.772 28.0127 26.7754 28.1623C26.7717 28.3143 26.7989 28.4655 26.8552 28.6069C26.9116 28.7483 26.996 28.877 27.1035 28.9855C27.2109 29.094 27.3393 29.1801 27.481 29.2385C27.6226 29.297 27.7747 29.3267 27.9281 29.3258C28.0815 29.325 28.2333 29.2937 28.3743 29.2338C28.5153 29.1738 28.6427 29.0864 28.749 28.9768C28.8553 28.8671 28.9383 28.7375 28.9931 28.5955C29.0479 28.4535 29.0734 28.302 29.068 28.1501C29.0702 28.0004 29.0417 27.8518 28.9843 27.7133C28.9268 27.5749 28.8417 27.4493 28.7339 27.3444C28.6261 27.2394 28.498 27.1572 28.3573 27.1027C28.2165 27.0482 28.0661 27.0225 27.9151 27.0272H27.9161Z" fill="white"/>
<path d="M14.1265 10.3134C14.1265 12.265 12.6406 13.7525 10.6881 13.7606C8.73567 13.7688 7.20967 12.2538 7.21069 10.2991C7.21069 8.44923 8.80452 6.90479 10.6994 6.91497C11.6065 6.92269 12.4741 7.28331 13.1152 7.91905C13.7564 8.55479 14.1196 9.41471 14.1265 10.3134ZM11.8185 10.3459C11.821 10.1973 11.7935 10.0497 11.7378 9.91174C11.6821 9.77374 11.5993 9.64811 11.4941 9.54217C11.3888 9.43623 11.2634 9.3521 11.125 9.29467C10.9867 9.23725 10.8382 9.20769 10.6881 9.20771C10.5345 9.20608 10.3821 9.23485 10.2399 9.29234C10.0976 9.34983 9.96837 9.43489 9.85973 9.54251C9.7511 9.65014 9.66525 9.77818 9.60722 9.91911C9.54919 10.06 9.52015 10.211 9.5218 10.3632C9.53287 10.663 9.65996 10.9471 9.87673 11.1566C10.0935 11.366 10.3833 11.4848 10.6861 11.4882C10.9887 11.4842 11.2775 11.3619 11.4896 11.148C11.7017 10.9341 11.8199 10.6458 11.8185 10.3459Z" fill="white"/>
</g>
<defs>
<clipPath id="clip0_63:11464">
<rect width="39" height="39" fill="white"/>
</clipPath>
</defs>
</svg>
